<svg width="21" height="21" viewBox="0 0 21 21" fill="none" xmlns="http://www.w3.org/2000/svg">
<g clip-path="url(#clip0_1_244)">
<path d="M19.25 2.8H18.9V1.05C18.9 0.471099 18.4289 0 17.85 0H17.15C16.5711 0 16.1 0.471099 16.1 1.05V2.8H4.89999V1.05C4.89999 0.471099 4.42889 0 3.85 0H3.15C2.5711 0 2.1 0.471099 2.1 1.05V2.8H1.75C0.785049 2.8 0 3.58505 0 4.54999V19.25C0 20.2149 0.785049 21 1.75 21H19.25C20.2149 21 21 20.2149 21 19.25V4.54999C21 3.58505 20.2149 2.8 19.25 2.8ZM16.8 3.15V1.05C16.8 0.856799 16.9568 0.699999 17.15 0.699999H17.85C18.0432 0.699999 18.2 0.856799 18.2 1.05V3.15V4.54999C18.2 4.74319 18.0432 4.89999 17.85 4.89999H17.15C16.9568 4.89999 16.8 4.74319 16.8 4.54999V3.15ZM2.8 3.15V1.05C2.8 0.856799 2.9568 0.699999 3.15 0.699999H3.85C4.0432 0.699999 4.2 0.856799 4.2 1.05V3.15V4.54999C4.2 4.74319 4.0432 4.89999 3.85 4.89999H3.15C2.9568 4.89999 2.8 4.74319 2.8 4.54999V3.15ZM20.3 19.25C20.3 19.8289 19.8289 20.3 19.25 20.3H1.75C1.1711 20.3 0.699999 19.8289 0.699999 19.25V9.09999H20.3V19.25ZM20.3 8.39999H0.699999V4.54999C0.699999 3.9711 1.1711 3.5 1.75 3.5H2.1V4.54999C2.1 5.12889 2.5711 5.59999 3.15 5.59999H3.85C4.42889 5.59999 4.89999 5.12889 4.89999 4.54999V3.5H16.1V4.54999C16.1 5.12889 16.5711 5.59999 17.15 5.59999H17.85C18.4289 5.59999 18.9 5.12889 18.9 4.54999V3.5H19.25C19.8289 3.5 20.3 3.9711 20.3 4.54999V8.39999Z" fill="#9C9C9C"/>
<path d="M14.35 4.54989H6.65C6.45645 4.54989 6.3 4.70634 6.3 4.89989V6.99989C6.3 7.19344 6.45645 7.34989 6.65 7.34989H14.35C14.5435 7.34989 14.7 7.19344 14.7 6.99989V4.89989C14.7 4.70634 14.5435 4.54989 14.35 4.54989ZM14 6.64989H7V5.24989H14V6.64989Z" fill="#9C9C9C"/>
<path d="M4.54987 10.1499H2.44987C2.25632 10.1499 2.09987 10.3064 2.09987 10.4999V12.2499C2.09987 12.4435 2.25632 12.5999 2.44987 12.5999H4.54987C4.74342 12.5999 4.89987 12.4435 4.89987 12.2499V10.4999C4.89987 10.3064 4.74342 10.1499 4.54987 10.1499ZM4.19987 11.8999H2.79987V10.8499H4.19987V11.8999Z" fill="#9C9C9C"/>
<path d="M9.09983 10.1499H6.99983C6.80628 10.1499 6.64983 10.3064 6.64983 10.4999V12.2499C6.64983 12.4435 6.80628 12.5999 6.99983 12.5999H9.09983C9.29338 12.5999 9.44983 12.4435 9.44983 12.2499V10.4999C9.44983 10.3064 9.29338 10.1499 9.09983 10.1499ZM8.74983 11.8999H7.34983V10.8499H8.74983V11.8999Z" fill="#9C9C9C"/>
<path d="M14 10.1499H11.9C11.7064 10.1499 11.55 10.3064 11.55 10.4999V12.2499C11.55 12.4435 11.7064 12.5999 11.9 12.5999H14C14.1935 12.5999 14.35 12.4435 14.35 12.2499V10.4999C14.35 10.3064 14.1935 10.1499 14 10.1499ZM13.65 11.8999H12.25V10.8499H13.65V11.8999Z" fill="#9C9C9C"/>
<path d="M18.55 10.1499H16.45C16.2564 10.1499 16.1 10.3064 16.1 10.4999V12.2499C16.1 12.4435 16.2564 12.5999 16.45 12.5999H18.55C18.7435 12.5999 18.9 12.4435 18.9 12.2499V10.4999C18.9 10.3064 18.7435 10.1499 18.55 10.1499ZM18.2 11.8999H16.8V10.8499H18.2V11.8999Z" fill="#9C9C9C"/>
<path d="M4.54987 13.6497H2.44987C2.25632 13.6497 2.09987 13.8062 2.09987 13.9997V15.7497C2.09987 15.9433 2.25632 16.0997 2.44987 16.0997H4.54987C4.74342 16.0997 4.89987 15.9433 4.89987 15.7497V13.9997C4.89987 13.8062 4.74342 13.6497 4.54987 13.6497ZM4.19987 15.3997H2.79987V14.3497H4.19987V15.3997Z" fill="#9C9C9C"/>
<path d="M9.09983 13.6497H6.99983C6.80628 13.6497 6.64983 13.8062 6.64983 13.9997V15.7497C6.64983 15.9433 6.80628 16.0997 6.99983 16.0997H9.09983C9.29338 16.0997 9.44983 15.9433 9.44983 15.7497V13.9997C9.44983 13.8062 9.29338 13.6497 9.09983 13.6497ZM8.74983 15.3997H7.34983V14.3497H8.74983V15.3997Z" fill="#9C9C9C"/>
<path d="M14 13.6497H11.9C11.7064 13.6497 11.55 13.8062 11.55 13.9997V15.7497C11.55 15.9433 11.7064 16.0997 11.9 16.0997H14C14.1935 16.0997 14.35 15.9433 14.35 15.7497V13.9997C14.35 13.8062 14.1935 13.6497 14 13.6497ZM13.65 15.3997H12.25V14.3497H13.65V15.3997Z" fill="#9C9C9C"/>
<path d="M18.55 13.6497H16.45C16.2564 13.6497 16.1 13.8062 16.1 13.9997V15.7497C16.1 15.9433 16.2564 16.0997 16.45 16.0997H18.55C18.7435 16.0997 18.9 15.9433 18.9 15.7497V13.9997C18.9 13.8062 18.7435 13.6497 18.55 13.6497ZM18.2 15.3997H16.8V14.3497H18.2V15.3997Z" fill="#9C9C9C"/>
<path d="M4.54987 17.15H2.44987C2.25632 17.15 2.09987 17.3065 2.09987 17.5V19.25C2.09987 19.4436 2.25632 19.6 2.44987 19.6H4.54987C4.74342 19.6 4.89987 19.4436 4.89987 19.25V17.5C4.89987 17.3065 4.74342 17.15 4.54987 17.15ZM4.19987 18.9H2.79987V17.85H4.19987V18.9Z" fill="#9C9C9C"/>
<path d="M9.09983 17.15H6.99983C6.80628 17.15 6.64983 17.3065 6.64983 17.5V19.25C6.64983 19.4436 6.80628 19.6 6.99983 19.6H9.09983C9.29338 19.6 9.44983 19.4436 9.44983 19.25V17.5C9.44983 17.3065 9.29338 17.15 9.09983 17.15ZM8.74983 18.9H7.34983V17.85H8.74983V18.9Z" fill="#9C9C9C"/>
<path d="M14.0812 16.9259L12.5766 18.7315L11.7975 17.9524L11.3026 18.4473L12.3526 19.4973C12.418 19.5635 12.5073 19.5999 12.6 19.5999C12.6053 19.5999 12.6105 19.5999 12.6158 19.5995C12.7141 19.595 12.8058 19.5495 12.8692 19.4742L14.6192 17.3742L14.0812 16.9259Z" fill="#9C9C9C"/>
<path d="M18.2811 16.9259L16.7764 18.7315L15.9973 17.9524L15.5024 18.4473L16.5524 19.4973C16.6179 19.5635 16.7071 19.5999 16.7999 19.5999C16.8051 19.5999 16.8104 19.5999 16.8156 19.5995C16.914 19.595 17.0057 19.5495 17.069 19.4742L18.819 17.3742L18.2811 16.9259Z" fill="#9C9C9C"/>
</g>
<defs>
<clipPath id="clip0_1_244">
<rect width="20.2026" height="20.2026" fill="white" transform="scale(1.03947)"/>
</clipPath>
</defs>
</svg>
