<svg width="17" height="11" viewBox="0 0 17 11" fill="none" xmlns="http://www.w3.org/2000/svg">
<path d="M15.4841 3.60828H15.4491V1.06149C15.4445 0.477172 14.9719 0.00451582 14.3876 0H2.18251C1.59819 0.00451582 1.12554 0.477172 1.12102 1.06149V3.60828H1.05096C0.773439 3.60609 0.506457 3.71475 0.309129 3.91002C0.111938 4.1053 0.000684576 4.37118 3.61143e-07 4.6487V9.69329C-0.000273325 9.88856 0.155044 10.0487 0.350319 10.0541H0.700638V10.6497C0.701185 10.8429 0.857734 10.9995 1.05096 11H3.36306C3.55628 10.9995 3.71283 10.8429 3.71338 10.6497V10.0541H12.7866V10.6497C12.7872 10.8429 12.9437 10.9995 13.137 11H15.4491C15.6423 10.9995 15.7988 10.8429 15.7994 10.6497V10.0541H16.1847C16.38 10.0487 16.5353 9.88856 16.535 9.69329V4.6487C16.5344 4.37118 16.4231 4.1053 16.2259 3.91002C16.0286 3.71475 15.7616 3.60609 15.4841 3.60828ZM1.82166 1.06149C1.82508 0.863618 1.98464 0.704058 2.18251 0.700637H14.3911C14.5885 0.70529 14.7473 0.864165 14.752 1.06149V3.60828H14.1915C13.9138 3.60609 13.6468 3.71475 13.4496 3.91002C13.2523 4.1053 13.1411 4.37118 13.1405 4.6487V4.76433H3.39809V4.6487C3.39686 4.37132 3.28547 4.10584 3.08828 3.91071C2.89109 3.71557 2.62452 3.60678 2.34714 3.60828H1.82166V1.06149ZM3.39809 5.46497H13.137V6.62102H3.39809V5.46497ZM3.01274 10.2994H1.40128V10.0541H3.01274V10.2994ZM15.0987 10.2994H13.4873V10.0541H15.0987V10.2994ZM15.8344 9.35351H0.700638V4.6487C0.701322 4.55702 0.738817 4.4693 0.804639 4.40553C0.87046 4.34162 0.959272 4.30687 1.05096 4.30892H2.34714C2.43882 4.30687 2.52763 4.34162 2.59345 4.40553C2.65928 4.4693 2.69677 4.55702 2.69745 4.6487V6.9608C2.69718 7.15608 2.8525 7.31619 3.04777 7.32166H13.4873C13.6825 7.31619 13.8379 7.15608 13.8376 6.9608V4.6487C13.8383 4.55702 13.8758 4.4693 13.9416 4.40553C14.0074 4.34162 14.0962 4.30687 14.1879 4.30892H15.4841C15.5758 4.30687 15.6646 4.34162 15.7304 4.40553C15.7962 4.4693 15.8337 4.55702 15.8344 4.6487V9.35351Z" fill="white"/>
</svg>
