<svg width="17" height="17" viewBox="0 0 17 17" fill="none" xmlns="http://www.w3.org/2000/svg">
<path d="M4.1755 4.11311C4.1755 3.96175 4.30911 3.83892 4.47375 3.83892C4.63838 3.83892 4.772 3.96175 4.772 4.11311C4.772 4.26446 4.63838 4.3873 4.47375 4.3873C4.30911 4.3873 4.1755 4.26446 4.1755 4.11311ZM6.26325 4.3873C6.42788 4.3873 6.56149 4.26446 6.56149 4.11311C6.56149 3.96175 6.42788 3.83892 6.26325 3.83892C6.09861 3.83892 5.965 3.96175 5.965 4.11311C5.965 4.26446 6.09861 4.3873 6.26325 4.3873ZM5.3685 6.03243C6.02643 6.03243 6.56149 5.54053 6.56149 4.93567H5.965C5.965 5.2381 5.69747 5.48405 5.3685 5.48405C5.03953 5.48405 4.772 5.2381 4.772 4.93567H4.1755C4.1755 5.54053 4.71056 6.03243 5.3685 6.03243ZM16.8413 9.51682C16.6737 9.73891 16.3984 9.87107 16.1052 9.87107C15.923 9.87107 15.747 9.82035 15.5964 9.72493L14.8179 9.22947L13.2551 11.3045C12.8966 11.7805 12.307 12.0646 11.6774 12.0646C11.4066 12.0646 11.1441 12.0133 10.8977 11.9121L8.94749 11.1156V17H1.7895V14.2581H1.49125C0.668974 14.2581 0 13.6431 0 12.8871V10.437C0 9.47542 0.519551 8.58293 1.38955 8.04991C1.77488 7.81383 2.22077 7.65727 2.67918 7.59695L3.93451 7.43216L4.1072 6.79796C3.79135 6.61097 3.53038 6.35131 3.3398 6.03215H2.9825C2.32456 6.03215 1.7895 5.54026 1.7895 4.9354V3.29027V3.01608V2.74189C1.7895 1.23001 3.12745 0 4.772 0H5.965C7.15501 0 8.22841 0.653666 8.69935 1.64513H9.24574C9.73905 1.64513 10.1405 2.01419 10.1405 2.4677C10.1405 2.92121 9.73905 3.29027 9.24574 3.29027H8.94749V4.9354C8.94749 5.54026 8.41243 6.03215 7.75449 6.03215H7.39719C7.20691 6.35104 6.94594 6.61097 6.62979 6.79796L6.80248 7.43216L7.81176 7.56432C8.43361 7.6463 9.03428 7.86456 9.54847 8.1955L11.5584 9.48913L12.7555 7.91693L12.6085 7.82343C12.3893 7.9087 12.1617 7.95175 11.93 7.95175C10.9431 7.95175 10.1405 7.21391 10.1405 6.30662C10.1405 6.25123 10.1474 6.19776 10.1557 6.1443L10.1611 6.1081C10.1736 6.01296 10.2398 5.9307 10.335 5.8915C10.4301 5.85174 10.5407 5.86161 10.6269 5.91617L11.1641 6.25809C11.295 6.34144 11.4886 6.30881 11.5792 6.18844C11.6726 6.06451 11.6386 5.89341 11.5035 5.80704L10.8948 5.41962C10.8148 5.36862 10.7671 5.28581 10.7662 5.1967C10.7653 5.10759 10.8116 5.02341 10.8906 4.97159C11.1978 4.76869 11.5572 4.66148 11.93 4.66148C12.9169 4.66148 13.7195 5.39933 13.7195 6.30662C13.7195 6.37516 13.7135 6.44536 13.7019 6.51829L16.6149 8.37208C17.0205 8.63064 17.1219 9.1442 16.8413 9.51682ZM4.1755 8.0203V9.20918L4.91456 8.52974L4.1755 8.0203ZM4.59722 9.59688H6.13977L5.3685 8.88783L4.59722 9.59688ZM5.82243 8.52974L6.56149 9.20918V8.0203L5.82243 8.52974ZM8.35099 4.93567C8.35099 4.63324 8.08346 4.3873 7.75449 4.3873V4.66148C7.75449 4.95569 7.71244 5.2307 7.63669 5.48405H7.75449C8.08346 5.48405 8.35099 5.2381 8.35099 4.93567ZM8.35099 3.29054H7.75449V3.83892C7.97281 3.83892 8.17473 3.89705 8.35099 3.99137V3.29054ZM6.26325 2.19379C5.87433 2.19379 5.54267 2.42301 5.4195 2.74216H9.24574C9.41038 2.74216 9.54399 2.61933 9.54399 2.46797C9.54399 2.31662 9.41038 2.19379 9.24574 2.19379H6.26325ZM2.386 2.74216H4.80212C4.94051 2.11729 5.54297 1.64541 6.26325 1.64541H8.03216C7.61133 0.976661 6.82664 0.548652 5.965 0.548652H4.772C3.45642 0.548652 2.386 1.53272 2.386 2.74216ZM2.386 3.29054V3.99137C2.56226 3.89705 2.76418 3.83892 2.9825 3.83892V3.29054H2.386ZM3.10031 5.48405C3.02455 5.2307 2.9825 4.95569 2.9825 4.66148V4.3873C2.65353 4.3873 2.386 4.63324 2.386 4.93567C2.386 5.2381 2.65353 5.48405 2.9825 5.48405H3.10031ZM5.3685 6.58081C6.45562 6.58081 7.15799 5.82734 7.15799 4.66148V3.29054H3.579V4.66148C3.579 5.82734 4.28138 6.58081 5.3685 6.58081ZM4.65777 7.03349L4.51282 7.56761L5.3685 8.15739L6.22417 7.56761L6.07922 7.03349C5.85763 7.09546 5.62022 7.12918 5.3685 7.12918C5.11677 7.12918 4.87937 7.09546 4.65777 7.03349ZM2.386 8.221V12.0646H2.9825V10.6936H7.75449V14.8065H8.35099V8.25116C8.14759 8.187 7.93971 8.13546 7.72706 8.10749L7.15799 8.03291V10.1453H3.579V8.03291L2.76388 8.14012C2.63563 8.15684 2.51007 8.18618 2.386 8.221ZM7.15799 15.3548V11.242H3.579V12.0646H4.772C5.42994 12.0646 5.965 12.5565 5.965 13.1613C5.965 13.7662 5.42994 14.2581 4.772 14.2581H3.579V15.3548H7.15799ZM4.1755 12.613V13.7097H4.772C5.10097 13.7097 5.3685 13.4638 5.3685 13.1613C5.3685 12.8589 5.10097 12.613 4.772 12.613H4.1755ZM1.49125 13.7097H3.579V12.613H1.7895V12.3388V12.0646V8.46887C1.76683 8.48176 1.74267 8.49245 1.7206 8.50616C1.01673 8.93773 0.5965 9.6594 0.5965 10.437V12.8871C0.5965 13.3407 0.997944 13.7097 1.49125 13.7097ZM2.386 14.2581V14.8065H2.9825V14.2581H2.386ZM2.386 16.4516H5.07025V15.9032H2.9825V15.3548H2.386V16.4516ZM8.35099 16.4516V15.3548H7.75449V15.9032H5.66675V16.4516H8.35099ZM13.6333 9.83899L12.5584 9.13241L11.7051 10.253L9.20637 8.64517C9.12346 8.59171 9.03548 8.5451 8.94749 8.49876V10.5157L11.1405 11.4115C11.3102 11.4808 11.4907 11.5162 11.6774 11.5162C12.111 11.5162 12.5172 11.3204 12.7645 10.9925L13.6333 9.83899ZM14.3273 8.91744L13.2459 8.22923L12.9005 8.68301L13.973 9.38795L14.3273 8.91744ZM16.3987 8.99942C16.3844 8.92704 16.3405 8.86452 16.2752 8.82285L13.2011 6.86651C13.0988 6.80153 13.0511 6.68472 13.0818 6.57368C13.1099 6.4725 13.123 6.38778 13.123 6.30662C13.123 5.70176 12.5879 5.20986 11.93 5.20986C11.8378 5.20986 11.7472 5.21973 11.6586 5.2392L11.8426 5.35628C12.2482 5.61456 12.3496 6.12812 12.069 6.50102C11.7976 6.86103 11.2172 6.95836 10.8241 6.70913L10.8184 6.70556C10.9926 7.11355 11.4254 7.40337 11.93 7.40337C12.1218 7.40337 12.3112 7.35731 12.4934 7.26628C12.5378 7.24407 12.5867 7.2331 12.6359 7.2331C12.6953 7.2331 12.7547 7.24955 12.8057 7.28191L15.9361 9.27416C16.067 9.35752 16.2606 9.32461 16.3512 9.20452C16.396 9.14475 16.413 9.07181 16.3987 8.99942Z" fill="white"/>
</svg>
