<svg width="27" height="32" viewBox="0 0 27 32" fill="none" xmlns="http://www.w3.org/2000/svg">
<g style="mix-blend-mode:multiply" opacity="0.22">
<path d="M1.96319 31.4432L2.83104 30.3808L3.68544 31.4432L4.55329 30.3808L5.40787 31.4432L6.27554 30.3808L7.13012 31.4432L7.99779 30.3808L8.85237 31.4432L9.72022 30.3808L10.5746 31.4432L11.4425 30.3808L12.2969 31.4432L13.1647 30.3808L14.0191 31.4432L14.887 30.3808L15.7416 31.4432L16.6092 30.3808L17.4638 31.4432L18.3315 30.3808L19.1861 31.4432L20.0539 30.3808L20.9083 31.4432L21.7762 30.3808L22.6283 31.4402V5.96045H1.96142V31.4432H1.96319Z" fill="#3C6F7A"/>
</g>
<path d="M0.00177041 29.4436L0.869624 28.3812L1.7242 29.4436L2.59187 28.3812L3.44645 29.4436L4.3143 28.3812L5.1687 29.4436L6.03655 28.3812L6.89095 29.4436L7.75881 28.3812L8.6132 29.4436L9.48106 28.3812L10.3355 29.4436L11.2033 28.3812L12.0579 29.4436L12.9256 28.3812L13.7801 29.4436L14.648 28.3812L15.5024 29.4436L16.3702 28.3812L17.2246 29.4436L18.0925 28.3812L18.9469 29.4436L19.8147 28.3812L20.6668 29.4406V3.53159H0V29.4436H0.00177041Z" fill="#F7F7F7"/>
<path d="M9.31842 12.3937H2.44924C2.35167 12.3937 2.2581 12.355 2.1891 12.2861C2.12011 12.2172 2.08135 12.1237 2.08135 12.0263C2.08133 11.978 2.09083 11.9302 2.1093 11.8856C2.12778 11.841 2.15488 11.8005 2.18904 11.7664C2.22321 11.7322 2.26377 11.7052 2.30842 11.6867C2.35306 11.6682 2.40091 11.6587 2.44924 11.6587H9.31842C9.36675 11.6587 9.4146 11.6682 9.45924 11.6867C9.50389 11.7052 9.54445 11.7322 9.57862 11.7664C9.61278 11.8005 9.63988 11.841 9.65836 11.8856C9.67683 11.9302 9.68633 11.978 9.68631 12.0263C9.68631 12.1237 9.64755 12.2172 9.57856 12.2861C9.50956 12.355 9.41599 12.3937 9.31842 12.3937Z" fill="#C4C4C4"/>
<path d="M18.0758 12.3937H15.4951C15.4468 12.3937 15.399 12.3842 15.3543 12.3657C15.3096 12.3473 15.2691 12.3202 15.2349 12.2861C15.2007 12.252 15.1736 12.2115 15.1551 12.1669C15.1366 12.1223 15.1271 12.0745 15.1271 12.0263C15.1271 11.9288 15.1658 11.8353 15.2349 11.7664C15.3039 11.6974 15.3975 11.6587 15.4951 11.6587H18.0758C18.1242 11.6587 18.172 11.6682 18.2167 11.6867C18.2613 11.7052 18.3019 11.7322 18.336 11.7664C18.3702 11.8005 18.3973 11.841 18.4158 11.8856C18.4343 11.9302 18.4438 11.978 18.4437 12.0263C18.4437 12.1237 18.405 12.2172 18.336 12.2861C18.267 12.355 18.1734 12.3937 18.0758 12.3937Z" fill="#C4C4C4"/>
<path d="M18.0758 14.0178H15.4951C15.3975 14.0178 15.3039 13.9791 15.2349 13.9101C15.1658 13.8412 15.1271 13.7477 15.1271 13.6502C15.1271 13.602 15.1366 13.5542 15.1551 13.5096C15.1736 13.465 15.2007 13.4245 15.2349 13.3904C15.2691 13.3563 15.3096 13.3292 15.3543 13.3107C15.399 13.2923 15.4468 13.2828 15.4951 13.2828H18.0758C18.1734 13.2828 18.267 13.3215 18.336 13.3904C18.405 13.4593 18.4437 13.5528 18.4437 13.6502C18.4438 13.6985 18.4343 13.7463 18.4158 13.7909C18.3973 13.8355 18.3702 13.876 18.336 13.9101C18.3019 13.9442 18.2613 13.9713 18.2167 13.9898C18.172 14.0083 18.1242 14.0178 18.0758 14.0178Z" fill="#C4C4C4"/>
<path d="M18.0759 15.642H15.4951C15.3977 15.642 15.3042 15.6035 15.2352 15.5348C15.1662 15.4661 15.1273 15.3728 15.1271 15.2755C15.1271 15.178 15.1658 15.0845 15.2349 15.0156C15.3039 14.9467 15.3975 14.9079 15.4951 14.9079H18.0759C18.1734 14.9081 18.2668 14.9469 18.3356 15.0158C18.4045 15.0848 18.4431 15.1781 18.4431 15.2755C18.4428 15.3727 18.4041 15.4658 18.3352 15.5345C18.2664 15.6031 18.1732 15.6418 18.0759 15.642Z" fill="#C4C4C4"/>
<path d="M18.0758 18.8908H15.4951C15.4468 18.8908 15.399 18.8813 15.3543 18.8628C15.3096 18.8444 15.2691 18.8173 15.2349 18.7832C15.2007 18.7491 15.1736 18.7086 15.1551 18.664C15.1366 18.6194 15.1271 18.5716 15.1271 18.5234C15.1271 18.4259 15.1658 18.3324 15.2349 18.2635C15.3039 18.1945 15.3975 18.1558 15.4951 18.1558H18.0758C18.1242 18.1558 18.172 18.1653 18.2167 18.1838C18.2613 18.2023 18.3019 18.2293 18.336 18.2635C18.3702 18.2976 18.3973 18.3381 18.4158 18.3827C18.4343 18.4273 18.4438 18.4751 18.4437 18.5234C18.4437 18.6208 18.405 18.7142 18.336 18.7831C18.267 18.852 18.1734 18.8908 18.0758 18.8908Z" fill="#C4C4C4"/>
<path d="M18.0758 20.5152H15.4951C15.3975 20.5152 15.3039 20.4765 15.2349 20.4075C15.1658 20.3386 15.1271 20.2451 15.1271 20.1476C15.1271 20.0993 15.1366 20.0516 15.1551 20.007C15.1736 19.9624 15.2007 19.9219 15.2349 19.8878C15.2691 19.8536 15.3096 19.8266 15.3543 19.8081C15.399 19.7897 15.4468 19.7802 15.4951 19.7802H18.0758C18.1734 19.7802 18.267 19.8189 18.336 19.8878C18.405 19.9567 18.4437 20.0502 18.4437 20.1476C18.4438 20.1959 18.4343 20.2437 18.4158 20.2883C18.3973 20.3329 18.3702 20.3734 18.336 20.4075C18.3019 20.4416 18.2613 20.4687 18.2167 20.4872C18.172 20.5057 18.1242 20.5152 18.0758 20.5152Z" fill="#C4C4C4"/>
<path d="M6.65681 14.0178H2.44961C2.40128 14.0178 2.35343 14.0083 2.30879 13.9898C2.26414 13.9713 2.22357 13.9442 2.18941 13.9101C2.15525 13.876 2.12815 13.8355 2.10967 13.7909C2.0912 13.7463 2.0817 13.6985 2.08172 13.6502C2.08172 13.5528 2.12048 13.4593 2.18947 13.3904C2.25847 13.3215 2.35204 13.2828 2.44961 13.2828H6.65681C6.75438 13.2828 6.84796 13.3215 6.91695 13.3904C6.98594 13.4593 7.0247 13.5528 7.0247 13.6502C7.02473 13.6985 7.01523 13.7463 6.99675 13.7909C6.97827 13.8355 6.95118 13.876 6.91701 13.9101C6.88285 13.9442 6.84229 13.9713 6.79764 13.9898C6.75299 14.0083 6.70514 14.0178 6.65681 14.0178Z" fill="#C4C4C4"/>
<path d="M7.67001 15.642H2.44961C2.35219 15.642 2.25875 15.6034 2.18979 15.5347C2.12082 15.466 2.08195 15.3728 2.08172 15.2755C2.0817 15.2272 2.0912 15.1794 2.10967 15.1348C2.12815 15.0902 2.15525 15.0497 2.18941 15.0156C2.22357 14.9815 2.26414 14.9544 2.30878 14.9359C2.35343 14.9174 2.40128 14.9079 2.44961 14.9079H7.67001C7.76756 14.908 7.86109 14.9468 7.93004 15.0157C7.99899 15.0846 8.03772 15.1781 8.03772 15.2755C8.03749 15.3727 7.99865 15.4659 7.92972 15.5346C7.86079 15.6033 7.7674 15.642 7.67001 15.642Z" fill="#C4C4C4"/>
<path d="M8.19156 18.8908H2.44961C2.35204 18.8908 2.25847 18.852 2.18947 18.7831C2.12048 18.7142 2.08172 18.6208 2.08172 18.5234C2.0817 18.4751 2.0912 18.4273 2.10967 18.3827C2.12815 18.3381 2.15525 18.2976 2.18941 18.2635C2.22357 18.2293 2.26414 18.2023 2.30878 18.1838C2.35343 18.1653 2.40128 18.1558 2.44961 18.1558H8.19156C8.28918 18.1558 8.3828 18.1945 8.45182 18.2635C8.52085 18.3324 8.55963 18.4259 8.55963 18.5234C8.55963 18.5716 8.55011 18.6194 8.53161 18.664C8.51311 18.7086 8.48599 18.7491 8.45181 18.7832C8.41763 18.8173 8.37706 18.8444 8.3324 18.8628C8.28775 18.8813 8.23989 18.8908 8.19156 18.8908Z" fill="#C4C4C4"/>
<path d="M8.86679 20.5152H2.44961C2.40128 20.5152 2.35343 20.5057 2.30878 20.4872C2.26414 20.4687 2.22357 20.4416 2.18941 20.4075C2.15525 20.3734 2.12815 20.3329 2.10967 20.2883C2.0912 20.2437 2.0817 20.1959 2.08172 20.1476C2.08172 20.0502 2.12048 19.9567 2.18947 19.8878C2.25847 19.8189 2.35204 19.7802 2.44961 19.7802H8.86679C8.96436 19.7802 9.05794 19.8189 9.12693 19.8878C9.19592 19.9567 9.23468 20.0502 9.23468 20.1476C9.23471 20.1959 9.22521 20.2437 9.20673 20.2883C9.18825 20.3329 9.16116 20.3734 9.12699 20.4075C9.09283 20.4416 9.05226 20.4687 9.00762 20.4872C8.96297 20.5057 8.91512 20.5152 8.86679 20.5152Z" fill="#C4C4C4"/>
<path d="M18.0758 7.47739H15.4951C15.4468 7.47742 15.399 7.46793 15.3543 7.44948C15.3096 7.43103 15.2691 7.40397 15.2349 7.36985C15.2007 7.33573 15.1736 7.29522 15.1551 7.25064C15.1366 7.20605 15.1271 7.15826 15.1271 7.11C15.1271 7.01252 15.1658 6.91903 15.2349 6.85009C15.3039 6.78116 15.3975 6.74243 15.4951 6.74243H18.0758C18.1242 6.74243 18.172 6.75194 18.2167 6.77042C18.2613 6.78889 18.3019 6.81597 18.336 6.8501C18.3702 6.88424 18.3973 6.92476 18.4158 6.96935C18.4343 7.01395 18.4438 7.06174 18.4437 7.11C18.4437 7.20744 18.405 7.30089 18.336 7.36979C18.267 7.43869 18.1734 7.47739 18.0758 7.47739Z" fill="#C4C4C4"/>
<path d="M18.0759 9.10186H15.4951C15.4468 9.10186 15.3989 9.09234 15.3542 9.07384C15.3095 9.05535 15.2689 9.02824 15.2348 8.99407C15.2006 8.9599 15.1735 8.91934 15.155 8.87471C15.1365 8.83007 15.127 8.78224 15.1271 8.73394C15.1271 8.68568 15.1366 8.63789 15.1551 8.59331C15.1736 8.54872 15.2007 8.50821 15.2349 8.4741C15.2691 8.43998 15.3096 8.41292 15.3543 8.39447C15.399 8.37602 15.4468 8.36653 15.4951 8.36655H18.0759C18.1733 8.36674 18.2667 8.40553 18.3356 8.47441C18.4044 8.54329 18.4431 8.63662 18.4431 8.73394C18.4432 8.83135 18.4046 8.92482 18.3358 8.99381C18.2669 9.06281 18.1734 9.10167 18.0759 9.10186Z" fill="#C4C4C4"/>
<path d="M8.19156 7.47739H2.44961C2.35204 7.47739 2.25847 7.43869 2.18947 7.36979C2.12048 7.30089 2.08172 7.20744 2.08172 7.11C2.0817 7.06174 2.0912 7.01395 2.10967 6.96935C2.12815 6.92476 2.15525 6.88424 2.18941 6.8501C2.22357 6.81597 2.26414 6.78889 2.30878 6.77042C2.35343 6.75194 2.40128 6.74243 2.44961 6.74243H8.19156C8.28918 6.74243 8.3828 6.78116 8.45182 6.85009C8.52085 6.91903 8.55963 7.01252 8.55963 7.11C8.55963 7.15826 8.55011 7.20605 8.53161 7.25064C8.51311 7.29522 8.48599 7.33573 8.45181 7.36985C8.41763 7.40397 8.37706 7.43103 8.3324 7.44948C8.28775 7.46793 8.23989 7.47742 8.19156 7.47739Z" fill="#C4C4C4"/>
<path d="M8.8668 9.10185H2.44961C2.40125 9.10185 2.35337 9.09233 2.3087 9.07384C2.26403 9.05534 2.22345 9.02823 2.18929 8.99406C2.15512 8.95989 2.12803 8.91933 2.10957 8.87469C2.09112 8.83006 2.08165 8.78223 2.08172 8.73394C2.08172 8.68569 2.09124 8.63792 2.10972 8.59335C2.12821 8.54877 2.15531 8.50827 2.18947 8.47416C2.22364 8.44004 2.26419 8.41298 2.30883 8.39452C2.35346 8.37606 2.4013 8.36655 2.44961 8.36655H8.8668C8.96437 8.36655 9.05795 8.40526 9.12694 8.47416C9.19593 8.54306 9.23469 8.6365 9.23469 8.73394C9.23476 8.78223 9.2253 8.83006 9.20684 8.87469C9.18839 8.91933 9.1613 8.95989 9.12713 8.99406C9.09296 9.02823 9.05238 9.05534 9.00771 9.07384C8.96304 9.09233 8.91516 9.10185 8.8668 9.10185Z" fill="#C4C4C4"/>
<path d="M10.1711 22.6057H3.59577C2.75958 22.6057 2.08172 23.2826 2.08172 24.1177C2.08172 24.9527 2.75958 25.6297 3.59577 25.6297H10.1711C11.0072 25.6297 11.6851 24.9527 11.6851 24.1177C11.6851 23.2826 11.0072 22.6057 10.1711 22.6057Z" fill="#E8E8E8"/>
<path d="M16.9381 25.3885V25.8204H16.506V25.3885H15.6411V24.7409H16.506V24.2011C15.9293 24.2011 15.641 23.8989 15.6411 23.2945C15.6411 22.6757 15.9294 22.3662 16.506 22.3661V21.9343H16.9381V22.3652H17.803V23.013H16.9381V23.5526C17.5146 23.5526 17.8029 23.862 17.803 24.481C17.803 25.086 17.5147 25.3885 16.9381 25.3885ZM16.2896 23.2941C16.2896 23.4668 16.3618 23.5531 16.506 23.5531V23.0135C16.3616 23.0135 16.2895 23.107 16.2896 23.2941ZM16.9381 24.2007V24.7405C17.0822 24.7405 17.1543 24.6542 17.1543 24.4815C17.1543 24.2944 17.0822 24.2008 16.9381 24.2007Z" fill="#F55B62"/>
<g style="mix-blend-mode:multiply" opacity="0.13">
<path d="M19.1795 16.2479C14.8671 16.2479 11.3589 12.7443 11.3589 8.43794C11.3589 4.13161 14.8671 0.627788 19.1795 0.627788C23.4918 0.627788 27 4.13144 27 8.43794C27 12.7444 23.4916 16.2479 19.1795 16.2479Z" fill="#595959"/>
</g>
<path d="M18.0763 14.1175C21.98 14.1175 25.1446 10.9572 25.1446 7.05874C25.1446 3.16031 21.98 0 18.0763 0C14.1725 0 11.0079 3.16031 11.0079 7.05874C11.0079 10.9572 14.1725 14.1175 18.0763 14.1175Z" fill="#9ED13F"/>
<path d="M16.2396 9.93757L14.0992 7.93355C13.9906 7.83183 13.904 7.70894 13.8448 7.57248C13.7855 7.43602 13.755 7.28888 13.755 7.14016C13.755 6.99143 13.7855 6.84429 13.8448 6.70783C13.904 6.57137 13.9906 6.44848 14.0992 6.34677C14.3011 6.15783 14.5674 6.05269 14.844 6.05269C15.1207 6.05269 15.387 6.15783 15.5888 6.34677L16.7453 7.42949C16.8101 7.49004 16.8955 7.52373 16.9843 7.52373C17.073 7.52373 17.1585 7.49004 17.2233 7.42949L20.5416 4.32311C20.7434 4.13415 21.0096 4.02899 21.2863 4.02899C21.5629 4.02899 21.8292 4.13415 22.031 4.32311C22.1397 4.42481 22.2263 4.5477 22.2855 4.68416C22.3447 4.82063 22.3753 4.96777 22.3753 5.1165C22.3753 5.26523 22.3447 5.41238 22.2855 5.54884C22.2263 5.68531 22.1397 5.80819 22.031 5.90989L17.7289 9.93757C17.5271 10.1264 17.2608 10.2315 16.9843 10.2315C16.7077 10.2315 16.4415 10.1264 16.2396 9.93757Z" fill="white"/>
</svg>
