<svg width="34" height="50" viewBox="0 0 34 50" fill="none" xmlns="http://www.w3.org/2000/svg">
<path d="M27.9801 23.3049C27.9801 21.6947 26.6242 20.3388 25.014 20.3388C23.4038 20.3388 22.0479 21.6947 22.0479 23.3049V22.8812V19.915C22.0479 18.3049 20.6919 16.9489 19.0817 16.9489C17.4716 16.9489 16.1156 18.3049 16.1156 19.915V20.3388V9.8302C16.1156 8.13527 14.7596 6.77931 13.1495 6.77931C11.5393 6.77931 10.1833 8.13527 10.1833 9.8302V29.6608L8.91214 27.5421C7.38674 24.8302 3.91211 23.6438 1.53924 24.576C1.20028 24.6608 0.945979 24.8302 0.691778 25.0845C-0.155688 25.593 0.0138439 26.3557 0.0138439 26.5252C0.0138439 26.6948 4.25118 31.1863 6.62404 35.6778C6.62404 35.6778 8.74271 39.0677 11.0308 41.5253V44.0677C11.0308 47.8813 14.1664 50 17.8105 50H25.353C28.2343 50 30.8615 48.4746 31.5394 45.5085C31.709 44.8305 31.9632 43.8135 32.4717 43.305C33.1496 42.5423 33.9124 40.5931 33.9124 37.966V26.6948C33.9124 25.0846 32.5564 23.7286 30.9463 23.7286C29.3361 23.7286 27.9801 25.0846 27.9801 26.6948V26.271V23.3049Z" fill="#FDC794"/>
<path d="M13.9977 44.7458C13.8282 44.7458 13.574 44.661 13.4893 44.5763C12.8113 43.983 12.2181 43.3051 11.7096 42.6272C11.5401 42.4577 11.4554 42.2883 11.2859 42.1188C10.947 41.7798 11.0317 41.1866 11.3707 40.9324C11.7096 40.5934 12.3029 40.6782 12.5571 41.0171C12.7266 41.1867 12.896 41.4408 12.9808 41.6104C13.4893 42.2036 13.913 42.7968 14.5061 43.3052C14.8451 43.6442 14.9298 44.1527 14.5909 44.4916C14.4215 44.5763 14.2519 44.7458 13.9977 44.7458Z" fill="#F9A671"/>
<path d="M11.0315 32.2034C10.6925 32.2034 10.4382 32.0339 10.2688 31.7797L9.42135 30.0848C9.16716 29.6611 9.33659 29.1526 9.7603 28.9832C10.184 28.729 10.6925 28.8984 10.8619 29.3221L11.7094 31.017C11.9635 31.4407 11.7941 31.9492 11.3704 32.1186C11.3704 32.2034 11.201 32.2034 11.0315 32.2034Z" fill="#F9A671"/>
<path d="M16.1156 31.3549C15.6071 31.3549 15.2682 31.0159 15.2682 30.5074V19.4908C15.2682 18.9823 15.6071 18.6434 16.1156 18.6434C16.6241 18.6434 16.963 18.9823 16.963 19.4908V30.5074C16.963 31.0159 16.6241 31.3549 16.1156 31.3549Z" fill="#F9A671"/>
<path d="M22.048 30.5074C21.5395 30.5074 21.2006 30.1684 21.2006 29.66V22.8805C21.2006 22.372 21.5395 22.0331 22.048 22.0331C22.5565 22.0331 22.8954 22.372 22.8954 22.8805V29.66C22.8954 30.1684 22.5564 30.5074 22.048 30.5074Z" fill="#F9A671"/>
<path d="M27.9805 30.5932C27.472 30.5932 27.1331 30.2543 27.1331 29.7458V26.2713C27.1331 25.7628 27.472 25.4238 27.9805 25.4238C28.489 25.4238 28.8279 25.7628 28.8279 26.2713V29.7458C28.8279 30.2542 28.489 30.5932 27.9805 30.5932Z" fill="#F9A671"/>
<path d="M28.8274 45.7627C28.4885 45.7627 28.1495 45.5085 27.98 45.1695C27.8952 44.7458 28.1495 44.2373 28.5732 44.1525C30.1833 43.7288 30.3529 43.4746 30.8614 42.7966C31.1155 42.4577 31.7088 42.3729 32.0477 42.6271C32.3867 42.8813 32.4715 43.3898 32.2173 43.8135C31.4546 44.9151 30.8614 45.3388 28.9971 45.8473C28.997 45.7627 28.9122 45.7627 28.8274 45.7627Z" fill="#F9A671"/>
<path d="M13.5726 4.23716C13.0641 4.23716 12.7252 3.89821 12.7252 3.38973V0.847432C12.7252 0.338953 13.0641 0 13.5726 0C14.0811 0 14.42 0.338953 14.42 0.847432V3.38973C14.42 3.89821 14.0811 4.23716 13.5726 4.23716Z" fill="#71C386"/>
<path d="M6.87778 10.1691H4.33548C3.827 10.1691 3.48805 9.83019 3.48805 9.32171C3.48805 8.81324 3.827 8.47428 4.33548 8.47428H6.87778C7.38625 8.47428 7.72521 8.81324 7.72521 9.32171C7.72521 9.8301 7.30149 10.1691 6.87778 10.1691Z" fill="#71C386"/>
<path d="M22.0479 10.1695H19.5056C18.9971 10.1695 18.6582 9.83055 18.6582 9.32207C18.6582 8.81359 18.9971 8.47464 19.5056 8.47464H22.0479C22.5564 8.47464 22.8953 8.81359 22.8953 9.32207C22.8953 9.83045 22.4716 10.1695 22.0479 10.1695Z" fill="#71C386"/>
<path d="M17.8107 5.93217C17.5565 5.93217 17.387 5.84741 17.2174 5.67798C16.8785 5.33903 16.8785 4.83055 17.2174 4.4916L18.9123 2.79673C19.2513 2.45778 19.7597 2.45778 20.0987 2.79673C20.4376 3.13569 20.4376 3.64417 20.0987 3.98312L18.4038 5.67798C18.2344 5.84741 18.0649 5.93217 17.8107 5.93217Z" fill="#71C386"/>
<path d="M8.57313 5.93207C8.31894 5.93207 8.14942 5.8473 7.97989 5.67788L6.28503 3.98301C5.94607 3.64406 5.94607 3.13558 6.28503 2.79663C6.62398 2.45767 7.13246 2.45767 7.47141 2.79663L9.16628 4.49149C9.50523 4.83044 9.50523 5.33892 9.16628 5.67788C8.99685 5.8473 8.74266 5.93207 8.57313 5.93207Z" fill="#71C386"/>
</svg>
