<svg width="310" height="141" viewBox="0 0 310 141" fill="none" xmlns="http://www.w3.org/2000/svg">
<g clip-path="url(#clip0_1_523)">
<path d="M39.3333 138.974L38.8013 138.854C44.7329 112.521 59.6397 88.6087 80.7756 71.5211C96.7551 58.6225 115.76 49.9959 136.001 46.4534C156.243 42.911 177.054 44.5694 196.476 51.2723C215.898 57.9753 233.292 69.5023 247.019 84.7681C260.746 100.034 270.356 118.536 274.943 138.533L274.411 138.653C261.855 83.6179 213.536 45.1804 156.909 45.1804C101.023 45.1804 51.5755 84.626 39.3333 138.974Z" fill="#E5E5E5"/>
<path d="M245.283 74.6342C253.461 74.6342 260.091 68.0156 260.091 59.8512C260.091 51.6868 253.461 45.0682 245.283 45.0682C237.104 45.0682 230.474 51.6868 230.474 59.8512C230.474 68.0156 237.104 74.6342 245.283 74.6342Z" fill="#1E8CF2"/>
<path d="M239.657 118.954H239.112V140.456H239.657V118.954Z" fill="#E5E5E5"/>
<path d="M244.689 121.694C244.724 129.213 239.425 135.332 239.425 135.332C239.425 135.332 234.07 129.262 234.035 121.743C234 114.225 239.299 108.105 239.299 108.105C239.299 108.105 244.655 114.176 244.689 121.694Z" fill="#1E8CF2"/>
<path opacity="0.1" d="M244.689 121.694C244.724 129.213 239.425 135.332 239.425 135.332C239.425 135.332 234.07 129.262 234.035 121.743C234 114.225 239.299 108.105 239.299 108.105C239.299 108.105 244.655 114.176 244.689 121.694Z" fill="#31373A"/>
<path opacity="0.4" d="M136.602 76.2052C141.307 76.2052 145.122 72.3975 145.122 67.7004C145.122 63.0033 141.307 59.1956 136.602 59.1956C131.897 59.1956 128.083 63.0033 128.083 67.7004C128.083 72.3975 131.897 76.2052 136.602 76.2052Z" fill="#1E8CF2"/>
<path opacity="0.4" d="M120.835 77.7283C124.135 77.7283 126.811 75.0573 126.811 71.7623C126.811 68.4674 124.135 65.7963 120.835 65.7963C117.534 65.7963 114.858 68.4674 114.858 71.7623C114.858 75.0573 117.534 77.7283 120.835 77.7283Z" fill="#1E8CF2"/>
<path opacity="0.4" d="M56.7624 94.8751C60.0631 94.8751 62.7388 92.2041 62.7388 88.9091C62.7388 85.6141 60.0631 82.9431 56.7624 82.9431C53.4616 82.9431 50.7859 85.6141 50.7859 88.9091C50.7859 92.2041 53.4616 94.8751 56.7624 94.8751Z" fill="#1E8CF2"/>
<path opacity="0.4" d="M233.471 75.5055C238.176 75.5055 241.991 71.6977 241.991 67.0007C241.991 62.3036 238.176 58.4959 233.471 58.4959C228.766 58.4959 224.952 62.3036 224.952 67.0007C224.952 71.6977 228.766 75.5055 233.471 75.5055Z" fill="#1E8CF2"/>
<path d="M15.4402 138.065C15.9021 139.769 17.484 140.825 17.484 140.825C17.484 140.825 18.3171 139.117 17.8553 137.413C17.3934 135.708 15.8115 134.653 15.8115 134.653C15.8115 134.653 14.9783 136.361 15.4402 138.065Z" fill="#E5E5E5"/>
<path d="M16.1188 137.699C17.3861 138.93 17.5409 140.823 17.5409 140.823C17.5409 140.823 15.641 140.72 14.3737 139.488C13.1063 138.257 12.9515 136.364 12.9515 136.364C12.9515 136.364 14.8515 136.467 16.1188 137.699Z" fill="#1E8CF2"/>
<path d="M182.3 138.065C182.762 139.769 184.344 140.825 184.344 140.825C184.344 140.825 185.177 139.117 184.715 137.413C184.254 135.708 182.672 134.653 182.672 134.653C182.672 134.653 181.839 136.361 182.3 138.065Z" fill="#E5E5E5"/>
<path d="M182.979 137.699C184.246 138.93 184.401 140.823 184.401 140.823C184.401 140.823 182.501 140.72 181.234 139.488C179.967 138.257 179.812 136.364 179.812 136.364C179.812 136.364 181.712 136.467 182.979 137.699Z" fill="#1E8CF2"/>
<path d="M18.5773 125.254L17.4494 123.377L27.9774 114.369H55.0496V116.996L45.2736 127.506L33.9934 129.758L18.5773 125.254Z" fill="#E5E5E5"/>
<path d="M59.7098 119.655V113.783H56.1653V115.635L55.0497 114.369L46.0256 123.377L44.5214 124.879L42.6415 132.386L46.0256 140.643H63.3215V123.753L59.7098 119.655Z" fill="#CCCCCC"/>
<path d="M46.0255 123.377H17.4494V140.643H46.0255V123.377Z" fill="#F2F2F2"/>
<path d="M42.0775 128.82H36.0615V134.075H42.0775V128.82Z" fill="#E5E5E5"/>
<path d="M33.6175 128.632H28.3535V140.643H33.6175V128.632Z" fill="#CCCCCC"/>
<path d="M22.3374 130.509V128.632H20.0815V130.509H22.1493H22.3374Z" fill="#E5E5E5"/>
<path d="M22.1493 132.01H20.0815V133.887H22.3374V132.01H22.1493Z" fill="#E5E5E5"/>
<path d="M26.0974 128.632H23.8414V130.509H26.0974V128.632Z" fill="#E5E5E5"/>
<path d="M26.0974 132.01H23.8414V133.887H26.0974V132.01Z" fill="#E5E5E5"/>
<path d="M54.1096 130.697V128.82H51.8535V130.697H53.9215H54.1096Z" fill="#E5E5E5"/>
<path d="M53.9215 132.198H51.8535V134.074H54.1096V132.198H53.9215Z" fill="#E5E5E5"/>
<path d="M57.8696 128.82H55.6136V130.696H57.8696V128.82Z" fill="#E5E5E5"/>
<path d="M57.8696 132.198H55.6136V134.075H57.8696V132.198Z" fill="#E5E5E5"/>
<path d="M127.364 125.254L126.236 123.377L136.764 114.369H163.836V116.996L154.06 127.506L142.78 129.758L127.364 125.254Z" fill="#E5E5E5"/>
<path d="M168.496 119.655V113.783H164.952V115.635L163.836 114.369L154.812 123.377L153.308 124.879L151.428 132.386L154.812 140.643H172.108V123.753L168.496 119.655Z" fill="#CCCCCC"/>
<path d="M154.812 123.377H126.236V140.643H154.812V123.377Z" fill="#F2F2F2"/>
<path d="M150.864 128.82H144.848V134.075H150.864V128.82Z" fill="#E5E5E5"/>
<path d="M142.404 128.632H137.14V140.643H142.404V128.632Z" fill="#CCCCCC"/>
<path d="M131.124 130.509V128.632H128.868V130.509H130.936H131.124Z" fill="#E5E5E5"/>
<path d="M130.936 132.01H128.868V133.887H131.124V132.01H130.936Z" fill="#E5E5E5"/>
<path d="M134.884 128.632H132.628V130.509H134.884V128.632Z" fill="#E5E5E5"/>
<path d="M134.884 132.01H132.628V133.887H134.884V132.01Z" fill="#E5E5E5"/>
<path d="M162.896 130.697V128.82H160.64V130.697H162.708H162.896Z" fill="#E5E5E5"/>
<path d="M162.708 132.198H160.64V134.074H162.896V132.198H162.708Z" fill="#E5E5E5"/>
<path d="M166.656 128.82H164.4V130.696H166.656V128.82Z" fill="#E5E5E5"/>
<path d="M166.656 132.198H164.4V134.075H166.656V132.198Z" fill="#E5E5E5"/>
<path d="M76.4817 93.7251L74.6017 92.2235L85.1298 82.8398H111.826V91.0975L94.5298 102.733L76.4817 93.7251Z" fill="#E5E5E5"/>
<path d="M116.693 88.1036V83.0274H113.149V84.2706L111.826 82.8398L103.178 92.2235L99.7939 94.4757L94.5468 132.744L102.46 140.643H120.85V92.5988L116.693 88.1036Z" fill="#CCCCCC"/>
<path d="M103.178 92.2236H74.6016V140.643H103.178V92.2236Z" fill="#F2F2F2"/>
<path d="M90.9577 128.82H85.6937V140.643H90.9577V128.82Z" fill="#CCCCCC"/>
<path d="M80.0536 132.198V130.321H77.7977V132.198H79.8658H80.0536Z" fill="#E5E5E5"/>
<path d="M79.8658 133.699H77.7977V135.576H80.0536V133.699H79.8658Z" fill="#E5E5E5"/>
<path d="M83.8137 130.321H81.5577V132.198H83.8137V130.321Z" fill="#E5E5E5"/>
<path d="M83.8137 133.699H81.5577V135.576H83.8137V133.699Z" fill="#E5E5E5"/>
<path d="M95.4696 132.198V130.321H93.2137V132.198H95.2818H95.4696Z" fill="#E5E5E5"/>
<path d="M95.2818 133.699H93.2137V135.576H95.4696V133.699H95.2818Z" fill="#E5E5E5"/>
<path d="M99.2298 130.321H96.9738V132.198H99.2298V130.321Z" fill="#E5E5E5"/>
<path d="M99.2298 133.699H96.9738V135.576H99.2298V133.699Z" fill="#E5E5E5"/>
<path d="M111.262 94.6632V92.7866H109.006V94.6632H111.074H111.262Z" fill="#E5E5E5"/>
<path d="M111.074 96.1648H109.006V98.0414H111.262V96.1648H111.074Z" fill="#E5E5E5"/>
<path d="M115.022 92.7866H112.766V94.6633H115.022V92.7866Z" fill="#E5E5E5"/>
<path d="M115.022 96.1647H112.766V98.0415H115.022V96.1647Z" fill="#E5E5E5"/>
<path d="M111.262 105.173V103.296H109.006V105.173H111.074H111.262Z" fill="#E5E5E5"/>
<path d="M111.074 106.674H109.006V108.551H111.262V106.674H111.074Z" fill="#E5E5E5"/>
<path d="M115.022 103.296H112.766V105.173H115.022V103.296Z" fill="#E5E5E5"/>
<path d="M115.022 106.674H112.766V108.551H115.022V106.674Z" fill="#E5E5E5"/>
<path d="M111.262 115.683V113.806H109.006V115.683H111.074H111.262Z" fill="#E5E5E5"/>
<path d="M111.074 117.184H109.006V119.061H111.262V117.184H111.074Z" fill="#E5E5E5"/>
<path d="M115.022 113.806H112.766V115.683H115.022V113.806Z" fill="#E5E5E5"/>
<path d="M115.022 117.184H112.766V119.061H115.022V117.184Z" fill="#E5E5E5"/>
<path d="M111.262 126.192V124.315H109.006V126.192H111.074H111.262Z" fill="#E5E5E5"/>
<path d="M111.074 127.694H109.006V129.57H111.262V127.694H111.074Z" fill="#E5E5E5"/>
<path d="M115.022 124.316H112.766V126.192H115.022V124.316Z" fill="#E5E5E5"/>
<path d="M115.022 127.694H112.766V129.57H115.022V127.694Z" fill="#E5E5E5"/>
<path d="M99.6058 94.6633H77.7977V99.1675H99.6058V94.6633Z" fill="#E5E5E5"/>
<path d="M99.6058 103.672H77.7977V108.176H99.6058V103.672Z" fill="#E5E5E5"/>
<path d="M99.6058 112.68H77.7977V117.184H99.6058V112.68Z" fill="#E5E5E5"/>
<path d="M99.6058 121.688H77.7977V126.192H99.6058V121.688Z" fill="#E5E5E5"/>
<path d="M186.359 93.7251L184.479 92.2235L195.007 82.8398H221.703V91.0975L204.407 102.733L186.359 93.7251Z" fill="#E5E5E5"/>
<path d="M226.57 88.1036V83.0274H223.025V84.2706L221.703 82.8398L213.055 92.2235L209.671 94.4757L204.424 132.744L212.337 140.643H230.727V92.5988L226.57 88.1036Z" fill="#CCCCCC"/>
<path d="M213.055 92.2236H184.479V140.643H213.055V92.2236Z" fill="#F2F2F2"/>
<path d="M200.835 128.82H195.571V140.643H200.835V128.82Z" fill="#CCCCCC"/>
<path d="M189.93 132.198V130.321H187.675V132.198H189.743H189.93Z" fill="#E5E5E5"/>
<path d="M189.743 133.699H187.675V135.576H189.93V133.699H189.743Z" fill="#E5E5E5"/>
<path d="M193.691 130.321H191.435V132.198H193.691V130.321Z" fill="#E5E5E5"/>
<path d="M193.691 133.699H191.435V135.576H193.691V133.699Z" fill="#E5E5E5"/>
<path d="M205.347 132.198V130.321H203.091V132.198H205.159H205.347Z" fill="#E5E5E5"/>
<path d="M205.159 133.699H203.091V135.576H205.347V133.699H205.159Z" fill="#E5E5E5"/>
<path d="M209.107 130.321H206.851V132.198H209.107V130.321Z" fill="#E5E5E5"/>
<path d="M209.107 133.699H206.851V135.576H209.107V133.699Z" fill="#E5E5E5"/>
<path d="M221.139 94.6632V92.7866H218.883V94.6632H220.951H221.139Z" fill="#E5E5E5"/>
<path d="M220.951 96.1648H218.883V98.0414H221.139V96.1648H220.951Z" fill="#E5E5E5"/>
<path d="M224.899 92.7866H222.643V94.6633H224.899V92.7866Z" fill="#E5E5E5"/>
<path d="M224.899 96.1647H222.643V98.0415H224.899V96.1647Z" fill="#E5E5E5"/>
<path d="M221.139 105.173V103.296H218.883V105.173H220.951H221.139Z" fill="#E5E5E5"/>
<path d="M220.951 106.674H218.883V108.551H221.139V106.674H220.951Z" fill="#E5E5E5"/>
<path d="M224.899 103.296H222.643V105.173H224.899V103.296Z" fill="#E5E5E5"/>
<path d="M224.899 106.674H222.643V108.551H224.899V106.674Z" fill="#E5E5E5"/>
<path d="M221.139 115.683V113.806H218.883V115.683H220.951H221.139Z" fill="#E5E5E5"/>
<path d="M220.951 117.184H218.883V119.061H221.139V117.184H220.951Z" fill="#E5E5E5"/>
<path d="M224.899 113.806H222.643V115.683H224.899V113.806Z" fill="#E5E5E5"/>
<path d="M224.899 117.184H222.643V119.061H224.899V117.184Z" fill="#E5E5E5"/>
<path d="M221.139 126.192V124.315H218.883V126.192H220.951H221.139Z" fill="#E5E5E5"/>
<path d="M220.951 127.694H218.883V129.57H221.139V127.694H220.951Z" fill="#E5E5E5"/>
<path d="M224.899 124.316H222.643V126.192H224.899V124.316Z" fill="#E5E5E5"/>
<path d="M224.899 127.694H222.643V129.57H224.899V127.694Z" fill="#E5E5E5"/>
<path d="M209.483 94.6633H187.675V99.1675H209.483V94.6633Z" fill="#E5E5E5"/>
<path d="M209.483 103.672H187.675V108.176H209.483V103.672Z" fill="#E5E5E5"/>
<path d="M209.483 112.68H187.675V117.184H209.483V112.68Z" fill="#E5E5E5"/>
<path d="M209.483 121.688H187.675V126.192H209.483V121.688Z" fill="#E5E5E5"/>
<path d="M246.614 93.7251L244.734 92.2235L255.262 82.8398H281.958V91.0975L264.662 102.733L246.614 93.7251Z" fill="#E5E5E5"/>
<path d="M286.825 88.1036V83.0274H283.281V84.2706L281.958 82.8398L273.31 92.2235L269.926 94.4757L264.679 132.744L272.592 140.643H290.982V92.5988L286.825 88.1036Z" fill="#CCCCCC"/>
<path d="M273.31 92.2236H244.734V140.643H273.31V92.2236Z" fill="#F2F2F2"/>
<path d="M261.09 128.82H255.826V140.643H261.09V128.82Z" fill="#CCCCCC"/>
<path d="M250.186 132.198V130.321H247.93V132.198H249.998H250.186Z" fill="#E5E5E5"/>
<path d="M249.998 133.699H247.93V135.576H250.186V133.699H249.998Z" fill="#E5E5E5"/>
<path d="M253.946 130.321H251.69V132.198H253.946V130.321Z" fill="#E5E5E5"/>
<path d="M253.946 133.699H251.69V135.576H253.946V133.699Z" fill="#E5E5E5"/>
<path d="M265.602 132.198V130.321H263.346V132.198H265.414H265.602Z" fill="#E5E5E5"/>
<path d="M265.414 133.699H263.346V135.576H265.602V133.699H265.414Z" fill="#E5E5E5"/>
<path d="M269.362 130.321H267.106V132.198H269.362V130.321Z" fill="#E5E5E5"/>
<path d="M269.362 133.699H267.106V135.576H269.362V133.699Z" fill="#E5E5E5"/>
<path d="M281.394 94.6632V92.7866H279.138V94.6632H281.206H281.394Z" fill="#E5E5E5"/>
<path d="M281.206 96.1648H279.138V98.0414H281.394V96.1648H281.206Z" fill="#E5E5E5"/>
<path d="M285.154 92.7866H282.898V94.6633H285.154V92.7866Z" fill="#E5E5E5"/>
<path d="M285.154 96.1647H282.898V98.0415H285.154V96.1647Z" fill="#E5E5E5"/>
<path d="M281.394 105.173V103.296H279.138V105.173H281.206H281.394Z" fill="#E5E5E5"/>
<path d="M281.206 106.674H279.138V108.551H281.394V106.674H281.206Z" fill="#E5E5E5"/>
<path d="M285.154 103.296H282.898V105.173H285.154V103.296Z" fill="#E5E5E5"/>
<path d="M285.154 106.674H282.898V108.551H285.154V106.674Z" fill="#E5E5E5"/>
<path d="M281.394 115.683V113.806H279.138V115.683H281.206H281.394Z" fill="#E5E5E5"/>
<path d="M281.206 117.184H279.138V119.061H281.394V117.184H281.206Z" fill="#E5E5E5"/>
<path d="M285.154 113.806H282.898V115.683H285.154V113.806Z" fill="#E5E5E5"/>
<path d="M285.154 117.184H282.898V119.061H285.154V117.184Z" fill="#E5E5E5"/>
<path d="M281.394 126.192V124.315H279.138V126.192H281.206H281.394Z" fill="#E5E5E5"/>
<path d="M281.206 127.694H279.138V129.57H281.394V127.694H281.206Z" fill="#E5E5E5"/>
<path d="M285.154 124.316H282.898V126.192H285.154V124.316Z" fill="#E5E5E5"/>
<path d="M285.154 127.694H282.898V129.57H285.154V127.694Z" fill="#E5E5E5"/>
<path d="M269.738 94.6633H247.93V99.1675H269.738V94.6633Z" fill="#E5E5E5"/>
<path d="M269.738 103.672H247.93V108.176H269.738V103.672Z" fill="#E5E5E5"/>
<path d="M269.738 112.68H247.93V117.184H269.738V112.68Z" fill="#E5E5E5"/>
<path d="M269.738 121.688H247.93V126.192H269.738V121.688Z" fill="#E5E5E5"/>
<path d="M310 140.456H0V141H310V140.456Z" fill="#E5E5E5"/>
<path d="M69.2525 118.954H68.7072V140.456H69.2525V118.954Z" fill="#E5E5E5"/>
<path d="M74.2848 121.694C74.3196 129.213 69.0206 135.332 69.0206 135.332C69.0206 135.332 63.6654 129.262 63.6307 121.743C63.5959 114.225 68.8949 108.105 68.8949 108.105C68.8949 108.105 74.2501 114.176 74.2848 121.694Z" fill="#1E8CF2"/>
<path d="M123.782 118.954H123.237V140.456H123.782V118.954Z" fill="#E5E5E5"/>
<path d="M128.814 121.694C128.849 129.213 123.55 135.332 123.55 135.332C123.55 135.332 118.195 129.262 118.16 121.743C118.125 114.225 123.424 108.105 123.424 108.105C123.424 108.105 128.78 114.176 128.814 121.694Z" fill="#1E8CF2"/>
<path d="M232.568 118.954H232.023V140.456H232.568V118.954Z" fill="#E5E5E5"/>
<path d="M237.601 121.694C237.635 129.213 232.336 135.332 232.336 135.332C232.336 135.332 226.981 129.262 226.946 121.743C226.912 114.225 232.211 108.105 232.211 108.105C232.211 108.105 237.566 114.176 237.601 121.694Z" fill="#1E8CF2"/>
<path d="M160.18 46.827C165.902 46.827 170.541 45.7852 170.541 44.5C170.541 43.2148 165.902 42.1729 160.18 42.1729C154.458 42.1729 149.82 43.2148 149.82 44.5C149.82 45.7852 154.458 46.827 160.18 46.827Z" fill="#1E8CF2"/>
<path d="M171.904 11.9755C171.904 18.5894 159.908 37.2874 159.908 37.2874C159.908 37.2874 147.911 18.5894 147.911 11.9755C147.911 8.79942 149.175 5.7534 151.425 3.50755C153.675 1.2617 156.726 0 159.908 0C163.089 0 166.141 1.2617 168.39 3.50755C170.64 5.7534 171.904 8.79942 171.904 11.9755Z" fill="#FF3632"/>
<path d="M159.908 18.7798C163.672 18.7798 166.724 15.7334 166.724 11.9755C166.724 8.21764 163.672 5.17126 159.908 5.17126C156.143 5.17126 153.091 8.21764 153.091 11.9755C153.091 15.7334 156.143 18.7798 159.908 18.7798Z" fill="#F2F2F2"/>
</g>
<defs>
<clipPath id="clip0_1_523">
<rect width="310" height="141" fill="white"/>
</clipPath>
</defs>
</svg>
