<svg width="19" height="19" viewBox="0 0 19 19" fill="none" xmlns="http://www.w3.org/2000/svg">
<path d="M18.2653 17.7425L12.8654 12.3425C13.987 11.0972 14.6763 9.45524 14.6763 7.65129C14.6763 3.77778 11.5249 0.62635 7.65133 0.62635C3.77778 0.62635 0.62635 3.77778 0.62635 7.65133C0.62635 11.5249 3.77778 14.6763 7.65133 14.6763C9.45528 14.6763 11.0972 13.987 12.3425 12.8654L17.7425 18.2653C17.8147 18.3375 17.9093 18.3736 18.0039 18.3736C18.0985 18.3736 18.1931 18.3375 18.2654 18.2653C18.4098 18.1209 18.4098 17.8869 18.2653 17.7425ZM7.65133 13.9368C4.18579 13.9368 1.36584 11.1172 1.36584 7.65133C1.36584 4.18544 4.18579 1.36581 7.65133 1.36581C11.1169 1.36581 13.9368 4.18541 13.9368 7.65133C13.9368 11.1172 11.1169 13.9368 7.65133 13.9368Z" fill="#A1A4B2" stroke="#A1A4B2" stroke-width="1.2"/>
</svg>
