<svg width="44" height="43" viewBox="0 0 44 43" fill="none" xmlns="http://www.w3.org/2000/svg">
<path d="M12.064 10.6451C11.672 10.6451 11.3543 10.3274 11.3543 9.93544C11.3543 9.54352 11.672 9.22576 12.064 9.22576C12.8466 9.22576 13.4833 8.589 13.4833 7.80641V6.38705C13.4833 5.60446 12.8466 4.9677 12.064 4.9677C11.672 4.9677 11.3543 4.64994 11.3543 4.25803C11.3543 3.86611 11.672 3.54835 12.064 3.54835C13.6292 3.54835 14.9027 4.82178 14.9027 6.38705V7.80641C14.9027 9.37169 13.6292 10.6451 12.064 10.6451Z" fill="#463C4B"/>
<path d="M20.1651 12.3584L14.6095 6.80276C14.3434 6.53654 13.9823 6.38698 13.6059 6.38698H11.943C11.5666 6.38698 11.2056 6.53654 10.9393 6.80276L5.38372 12.3584C5.1176 12.6246 4.96803 12.9856 4.96803 13.3619V27.6774C4.96803 28.4613 5.60355 29.0967 6.38738 29.0967H19.1616C19.9454 29.0967 20.5809 28.4613 20.5809 27.6774V13.362C20.5808 12.9856 20.4313 12.6246 20.1651 12.3584Z" fill="#A5C3DC"/>
<path d="M4.96791 13.3629V27.6782C4.96791 28.4622 5.60334 29.0976 6.38726 29.0976H17.7421C18.526 29.0976 19.1614 28.4622 19.1614 27.6782V13.3629C19.1614 12.9865 19.0119 12.6255 18.7457 12.3593L13.1901 6.80365C12.9239 6.53743 12.563 6.38796 12.1865 6.38796H11.943C11.5666 6.38796 11.2055 6.53752 10.9393 6.80365L5.38369 12.3593C5.11747 12.6255 4.96791 12.9865 4.96791 13.3629Z" fill="#E6E6EB"/>
<path d="M12.0646 12.0645C13.2404 12.0645 14.1936 11.1113 14.1936 9.93545C14.1936 8.75962 13.2404 7.80642 12.0646 7.80642C10.8888 7.80642 9.93557 8.75962 9.93557 9.93545C9.93557 11.1113 10.8888 12.0645 12.0646 12.0645Z" fill="#A5C3DC"/>
<path d="M14.9032 19.1612C15.2951 19.1612 15.6129 18.8435 15.6129 18.4515V18.3151C15.6129 16.825 14.4007 15.6128 12.9106 15.6128H12.7742V14.1935C12.7742 13.8016 12.4564 13.4838 12.0645 13.4838C11.6726 13.4838 11.3548 13.8016 11.3548 14.1935V15.6128H11.2184C9.72835 15.6128 8.51614 16.825 8.51614 18.3151C8.51614 19.5574 9.35781 20.6354 10.563 20.9367L13.2217 21.6013C13.7939 21.7444 14.1935 22.2563 14.1935 22.846C14.1935 23.5535 13.6181 24.1289 12.9106 24.1289H11.2184C10.5109 24.1289 9.93549 23.5535 9.93549 22.846V22.7096C9.93549 22.3177 9.61773 21.9999 9.22581 21.9999C8.83389 21.9999 8.51614 22.3177 8.51614 22.7096V22.846C8.51614 24.3361 9.72835 25.5483 11.2184 25.5483H11.3548V26.9677C11.3548 27.3596 11.6726 27.6773 12.0645 27.6773C12.4564 27.6773 12.7742 27.3596 12.7742 26.9677V25.5483H12.9106C14.4007 25.5483 15.6129 24.3361 15.6129 22.846C15.6129 21.6037 14.7712 20.5257 13.566 20.2244L10.9073 19.5598C10.3351 19.4167 9.93549 18.9048 9.93549 18.3151C9.93549 17.6076 10.5109 17.0322 11.2184 17.0322H12.9106C13.6181 17.0322 14.1935 17.6076 14.1935 18.3151V18.4515C14.1935 18.8435 14.5113 19.1612 14.9032 19.1612Z" fill="#FF4646"/>
<path d="M32.6449 36.1935H24.1288C23.3448 36.1935 22.7094 36.8289 22.7094 37.6128V42.5805H34.0642V37.6128C34.0642 36.8289 33.4288 36.1935 32.6449 36.1935Z" fill="#463C4B"/>
<path d="M34.0645 37.6128H29.8064C29.0225 37.6128 28.387 38.2482 28.387 39.0321V42.5805H34.0645V37.6128Z" fill="#32283C"/>
<path d="M33.3545 26.9677H28.3868C26.0351 26.9677 24.1287 28.8741 24.1287 31.2258V36.1935H28.3868V32.6451C28.3868 31.8612 29.0222 31.2258 29.8061 31.2258H33.3545C34.5304 31.2258 35.4836 30.2726 35.4836 29.0968C35.4836 27.9209 34.5304 26.9677 33.3545 26.9677Z" fill="#FAB991"/>
<path d="M43.5841 25.9641C43.0299 25.4098 42.1312 25.4098 41.5769 25.9641L36.3153 31.2257H29.8064C29.0226 31.2257 28.387 31.8612 28.387 32.6451V36.1935H32.6451V35.4838C32.6451 34.6999 33.2806 34.0644 34.0645 34.0644H36.6093C37.1779 34.0644 37.7126 33.843 38.1147 33.4409L43.5842 27.9713C44.1386 27.417 44.1386 26.5184 43.5841 25.9641Z" fill="#F0915A"/>
<path d="M33.3546 30.2795H32.8815C32.4896 30.2795 32.1718 29.9618 32.1718 29.5698V28.6236C32.1718 28.2317 32.4896 27.9139 32.8815 27.9139H33.3546C34.0079 27.9139 34.5374 28.4435 34.5374 29.0967C34.5374 29.75 34.0079 30.2795 33.3546 30.2795Z" fill="#F0915A"/>
<path d="M19.8709 39.7418H11.3548C10.5709 39.7418 9.93545 40.3772 9.93545 41.1612V42.5805H21.2903V41.1612C21.2903 40.3772 20.6548 39.7418 19.8709 39.7418Z" fill="#463C4B"/>
<path d="M21.29 41.1612H17.0319C16.248 41.1612 15.6126 41.7967 15.6126 42.5806H21.29V41.1612Z" fill="#32283C"/>
<path d="M10.6452 30.5161H15.6129C17.9646 30.5161 19.871 32.4224 19.871 34.7741H10.6452C9.46932 34.7741 8.51614 33.821 8.51614 32.6451C8.51614 31.4693 9.46932 30.5161 10.6452 30.5161Z" fill="#FAB991"/>
<path d="M10.6451 33.8279H11.1182C11.5101 33.8279 11.8278 33.5101 11.8278 33.1182V32.1719C11.8278 31.78 11.5101 31.4622 11.1182 31.4622H10.6451C9.99181 31.4622 9.46231 31.9918 9.46231 32.645C9.46231 33.2984 9.99181 33.8279 10.6451 33.8279Z" fill="#F0915A"/>
<path d="M7.68462 34.7741L2.42299 29.5125C1.86873 28.9582 0.970017 28.9582 0.415759 29.5125C-0.138586 30.0667 -0.138586 30.9654 0.415759 31.5197L5.88532 36.9892C6.28736 37.3914 6.8221 37.6128 7.39072 37.6128H9.93545C10.7193 37.6128 11.3548 38.2482 11.3548 39.0321V39.7418H19.8709V34.7741H7.68462Z" fill="#F0915A"/>
<path d="M9.93545 37.6128C10.7193 37.6128 11.3548 38.2482 11.3548 39.0321V39.7418H15.6129V39.0321C15.6129 38.2482 14.9774 37.6128 14.1935 37.6128H9.93545Z" fill="#FAB991"/>
<path d="M12.0641 10.6451C10.4988 10.6451 9.22537 9.37169 9.22537 7.80641V6.38705C9.22537 4.82178 10.4988 3.54835 12.0641 3.54835C12.456 3.54835 12.7737 3.86611 12.7737 4.25803C12.7737 4.64994 12.456 4.9677 12.0641 4.9677C11.2815 4.9677 10.6447 5.60446 10.6447 6.38705V7.80641C10.6447 8.589 11.2815 9.22576 12.0641 9.22576C12.456 9.22576 12.7737 9.54352 12.7737 9.93544C12.7737 10.3274 12.456 10.6451 12.0641 10.6451Z" fill="#463C4B"/>
<path d="M30.516 7.09676C30.1241 7.09676 29.8064 6.77901 29.8064 6.38709C29.8064 5.99517 30.1241 5.67741 30.516 5.67741C31.2986 5.67741 31.9354 5.04065 31.9354 4.25806V2.83871C31.9354 2.05611 31.2986 1.41935 30.516 1.41935C30.1241 1.41935 29.8064 1.1016 29.8064 0.709676C29.8064 0.317758 30.1241 0 30.516 0C32.0813 0 33.3547 1.27343 33.3547 2.83871V4.25806C33.3547 5.82334 32.0813 7.09676 30.516 7.09676Z" fill="#463C4B"/>
<path d="M38.6162 8.81003L33.0606 3.25441C32.7945 2.9882 32.4334 2.83863 32.057 2.83863H30.3941C30.0177 2.83863 29.6567 2.9882 29.3904 3.25441L23.8348 8.81003C23.5687 9.07624 23.4191 9.4372 23.4191 9.8136V24.129C23.4191 24.9129 24.0546 25.5484 24.8385 25.5484H37.6127C38.3965 25.5484 39.032 24.9129 39.032 24.129V9.81368C39.0319 9.43729 38.8824 9.07624 38.6162 8.81003Z" fill="#CD3232"/>
<path d="M23.4193 9.81396V24.1293C23.4193 24.9132 24.0547 25.5486 24.8386 25.5486H36.1934C36.9774 25.5486 37.6128 24.9132 37.6128 24.1293V9.81396C37.6128 9.43757 37.4632 9.07652 37.1971 8.8103L31.6415 3.25469C31.3753 2.98847 31.0143 2.839 30.6378 2.839H30.3943C30.0179 2.839 29.6569 2.98856 29.3906 3.25469L23.835 8.8103C23.5688 9.07652 23.4193 9.43757 23.4193 9.81396Z" fill="#FF4646"/>
<path d="M30.5158 8.51613C31.6917 8.51613 32.6449 7.56293 32.6449 6.3871C32.6449 5.21127 31.6917 4.25807 30.5158 4.25807C29.34 4.25807 28.3868 5.21127 28.3868 6.3871C28.3868 7.56293 29.34 8.51613 30.5158 8.51613Z" fill="#CD3232"/>
<path d="M33.3548 15.6129C33.7467 15.6129 34.0645 15.2951 34.0645 14.9032V14.7668C34.0645 13.2767 32.8523 12.0645 31.3622 12.0645H31.2258V10.6451C31.2258 10.2532 30.908 9.93545 30.5161 9.93545C30.1242 9.93545 29.8064 10.2532 29.8064 10.6451V12.0645H29.67C28.1799 12.0645 26.9677 13.2767 26.9677 14.7668C26.9677 16.009 27.8094 17.087 29.0146 17.3884L31.6733 18.053C32.2455 18.1961 32.6451 18.7079 32.6451 19.2977C32.6451 20.0051 32.0697 20.5806 31.3622 20.5806H29.67C28.9625 20.5806 28.3871 20.0051 28.3871 19.2977V19.1612C28.3871 18.7693 28.0693 18.4516 27.6774 18.4516C27.2855 18.4516 26.9677 18.7693 26.9677 19.1612V19.2977C26.9677 20.7877 28.1799 22 29.67 22H29.8064V23.4193C29.8064 23.8112 30.1242 24.129 30.5161 24.129C30.908 24.129 31.2258 23.8112 31.2258 23.4193V22H31.3622C32.8523 22 34.0645 20.7877 34.0645 19.2977C34.0645 18.0554 33.2228 16.9774 32.0176 16.676L29.3589 16.0114C28.7867 15.8683 28.3871 15.3565 28.3871 14.7668C28.3871 14.0593 28.9625 13.4838 29.67 13.4838H31.3622C32.0697 13.4838 32.6451 14.0593 32.6451 14.7668V14.9032C32.6451 15.2951 32.9629 15.6129 33.3548 15.6129Z" fill="#E6E6EB"/>
<path d="M30.5162 7.09676C28.9509 7.09676 27.6774 5.82334 27.6774 4.25806V2.83871C27.6774 1.27343 28.9509 0 30.5162 0C30.9081 0 31.2258 0.317758 31.2258 0.709676C31.2258 1.1016 30.9081 1.41935 30.5162 1.41935C29.7336 1.41935 29.0968 2.05611 29.0968 2.83871V4.25806C29.0968 5.04065 29.7336 5.67741 30.5162 5.67741C30.9081 5.67741 31.2258 5.99517 31.2258 6.38709C31.2258 6.77901 30.9081 7.09676 30.5162 7.09676Z" fill="#463C4B"/>
</svg>
