<svg width="27" height="21" viewBox="0 0 27 21" fill="none" xmlns="http://www.w3.org/2000/svg">
<path d="M10.3883 20.7688C10.525 20.7696 10.6604 20.7434 10.7869 20.6918C10.9134 20.6401 11.0285 20.564 11.1255 20.4678C11.2228 20.3712 11.3 20.2564 11.3527 20.1299C11.4054 20.0034 11.4326 19.8677 11.4326 19.7306C11.4326 19.5936 11.4054 19.4579 11.3527 19.3313C11.3 19.2048 11.2228 19.09 11.1255 18.9935L2.50815 10.3865L11.1255 1.77962C11.321 1.58412 11.4308 1.31896 11.4308 1.04248C11.4308 0.765996 11.321 0.500837 11.1255 0.305335C10.93 0.109832 10.6648 0 10.3883 0C10.1118 0 9.84668 0.109832 9.65118 0.305335L0.307108 9.64941C0.209796 9.74592 0.132556 9.86075 0.0798463 9.98727C0.0271366 10.1138 0 10.2495 0 10.3865C0 10.5236 0.0271366 10.6593 0.0798463 10.7858C0.132556 10.9123 0.209796 11.0272 0.307108 11.1237L9.65118 20.4678C9.74819 20.564 9.86324 20.6401 9.98974 20.6918C10.1162 20.7434 10.2517 20.7696 10.3883 20.7688Z" fill="black"/>
<path d="M1.04425 11.4248H25.9618C26.2371 11.4248 26.5012 11.3155 26.6959 11.1207C26.8906 10.926 27 10.662 27 10.3866C27 10.1113 26.8906 9.84718 26.6959 9.65247C26.5012 9.45776 26.2371 9.34838 25.9618 9.34838H1.04425C0.768894 9.34838 0.504815 9.45776 0.31011 9.65247C0.115404 9.84718 0.00602001 10.1113 0.00602001 10.3866C0.00602001 10.662 0.115404 10.926 0.31011 11.1207C0.504815 11.3155 0.768894 11.4248 1.04425 11.4248Z" fill="black"/>
</svg>
