<svg width="22" height="22" viewBox="0 0 22 22" fill="none" xmlns="http://www.w3.org/2000/svg">
<g clip-path="url(#clip0_1_237)">
<path d="M21.766 8.94064L11.3377 1.30524C11.1366 1.15803 10.8634 1.15803 10.6624 1.30524L0.233989 8.94064C-0.020729 9.12717 -0.0760726 9.48484 0.110454 9.73956C0.296981 9.99427 0.654695 10.0495 0.90937 9.86309L11 2.47489L21.0906 9.86305C21.1924 9.9376 21.3106 9.97348 21.4278 9.97348C21.6038 9.97348 21.7775 9.89248 21.8895 9.73951C22.0761 9.48484 22.0207 9.12717 21.766 8.94064Z" fill="black"/>
<path d="M19.003 9.99214C18.6873 9.99214 18.4313 10.2481 18.4313 10.5638V19.6623H13.8585V14.6957C13.8585 13.1197 12.5763 11.8375 11.0003 11.8375C9.42425 11.8375 8.14198 13.1197 8.14198 14.6957V19.6624H3.56913V10.5638C3.56913 10.2481 3.31317 9.99218 2.99752 9.99218C2.68187 9.99218 2.42591 10.2481 2.42591 10.5638V20.234C2.42591 20.5497 2.68187 20.8056 2.99752 20.8056H8.7136C9.0142 20.8056 9.2602 20.5734 9.28297 20.2785C9.28435 20.2652 9.28521 20.2506 9.28521 20.234V14.6958C9.28521 13.7501 10.0546 12.9807 11.0003 12.9807C11.946 12.9807 12.7153 13.7501 12.7153 14.6958V20.234C12.7153 20.2505 12.7162 20.2648 12.7175 20.278C12.7401 20.5731 12.9861 20.8056 13.2869 20.8056H19.003C19.3187 20.8056 19.5746 20.5497 19.5746 20.234V10.5638C19.5746 10.2481 19.3186 9.99214 19.003 9.99214Z" fill="black"/>
</g>
<defs>
<clipPath id="clip0_1_237">
<rect width="21.1209" height="21.1209" fill="white" transform="scale(1.04162)"/>
</clipPath>
</defs>
</svg>
