<svg width="171" height="199" viewBox="0 0 171 199" fill="none" xmlns="http://www.w3.org/2000/svg">
<path d="M82.8959 0L90.5837 15.6037L26.0286 122.54L11.2548 130.224L82.8959 0Z" fill="#0D0D0D"/>
<path d="M70.9807 82.5544L89.9387 60.283L116.825 55.8277L155.576 50.6267L171 48.6627L121.615 65.9763L70.9807 82.5544Z" fill="#0D0D0D"/>
<path d="M0 148.433L19.2138 116.718L51.9743 105.711L99.4401 91.3744L118.355 85.8014L60.034 117.451L0 148.433Z" fill="#0D0D0D"/>
<path d="M156.419 100.667L155.969 82.0392L125.901 98.3033L83.5104 122.968L66.7205 132.893L111.133 116.265L156.419 100.667Z" fill="#0D0D0D"/>
<path d="M82.4326 26.3371L90.458 15.3357L108.833 51.4134L102.94 51.8949L98.7271 52.2398L94.2355 52.6062L82.4326 26.3371Z" fill="#0D0D0D"/>
<path d="M27.8197 198.443H5.13438V159.154H27.8197V165.979H13.467V174.618H26.8239V181.443H13.467V191.567H27.8197V198.443ZM36.0207 198.443V159.154H44.3557V191.565H60.3634V198.443H36.0207ZM90.4701 187.548C90.4701 191.033 89.2006 193.821 86.6615 195.912C84.159 197.966 80.5895 198.994 75.9531 198.993C71.7946 198.993 68.0778 198.205 64.8027 196.627V188.869C66.6796 189.675 68.6116 190.427 70.5988 191.124C72.6217 191.785 74.6266 192.115 76.6134 192.115C78.674 192.115 80.1276 191.729 80.974 190.959C81.8571 190.153 82.2988 189.144 82.299 187.933C82.299 186.942 81.9494 186.098 81.25 185.401C80.5878 184.705 79.6863 184.063 78.5455 183.476C77.4045 182.852 76.0981 182.192 74.6262 181.495C73.7063 181.054 72.7128 180.541 71.6456 179.954C70.5435 179.305 69.5081 178.549 68.5543 177.698C67.5978 176.781 66.8066 175.68 66.1809 174.396C65.5553 173.112 65.2424 171.571 65.2424 169.774C65.2424 166.252 66.4384 163.519 68.8304 161.575C71.2223 159.594 74.4794 158.604 78.6015 158.604C80.6622 158.604 82.6123 158.842 84.4518 159.319C86.2913 159.796 88.2414 160.475 90.3021 161.355L87.5982 167.849C85.7952 167.115 84.1761 166.546 82.7409 166.142C81.3039 165.739 79.8178 165.535 78.3249 165.538C76.7426 165.538 75.5283 165.904 74.6819 166.638C73.8354 167.371 73.4122 168.325 73.4122 169.499C73.4122 170.893 74.0378 171.994 75.289 172.801C76.5402 173.608 78.3986 174.598 80.8642 175.772C82.8881 176.726 84.5996 177.716 85.9987 178.744C87.4331 179.771 88.5367 180.981 89.3097 182.374C90.0827 183.767 90.469 185.492 90.4686 187.548H90.4701ZM120.873 187.548C120.873 191.033 119.603 193.821 117.064 195.912C114.562 197.966 110.992 198.994 106.355 198.993C102.197 198.993 98.4807 198.205 95.2054 196.627V188.869C97.082 189.675 99.014 190.427 101.001 191.124C103.024 191.785 105.029 192.115 107.016 192.115C109.077 192.115 110.53 191.729 111.377 190.959C112.26 190.153 112.701 189.144 112.701 187.933C112.701 186.942 112.352 186.098 111.653 185.401C110.99 184.705 110.089 184.063 108.948 183.476C107.807 182.852 106.501 182.192 105.029 181.495C104.109 181.054 103.115 180.541 102.048 179.954C100.946 179.305 99.9108 178.549 98.957 177.698C98.0005 176.781 97.2093 175.68 96.5836 174.396C95.958 173.112 95.6451 171.571 95.6451 169.774C95.6451 166.252 96.8411 163.519 99.2331 161.575C101.625 159.594 104.882 158.604 109.004 158.604C111.065 158.604 113.015 158.842 114.855 159.319C116.694 159.796 118.644 160.475 120.705 161.355L118.001 167.849C116.198 167.115 114.578 166.546 113.143 166.142C111.706 165.739 110.22 165.535 108.728 165.537C107.145 165.537 105.931 165.904 105.085 166.638C104.238 167.371 103.815 168.325 103.815 169.499C103.815 170.893 104.441 171.994 105.692 172.801C106.943 173.607 108.801 174.598 111.267 175.772C113.29 176.726 115.002 177.716 116.401 178.743C117.835 179.771 118.939 180.981 119.712 182.374C120.486 183.767 120.872 185.492 120.871 187.548H120.873ZM152.156 198.443L149.286 189.089H134.934L132.064 198.443H123.067L136.977 158.989H147.19L161.154 198.443H152.156ZM147.299 182.1L144.429 172.966C144.245 172.342 144.006 171.554 143.711 170.6C143.416 169.646 143.122 168.674 142.828 167.684C142.533 166.694 142.294 165.832 142.11 165.098C141.926 165.832 141.669 166.749 141.338 167.849C141.043 168.913 140.749 169.94 140.454 170.931C140.197 171.885 139.994 172.563 139.847 172.966L137.032 182.101L147.299 182.1Z" fill="#0D0D0D"/>
</svg>
