<svg width="44" height="54" viewBox="0 0 44 54" fill="none" xmlns="http://www.w3.org/2000/svg">
<path d="M20.7663 31.3918L11.6748 53.3416L9.50244 49.3967L15.5215 27.5824L20.7663 31.3918Z" fill="#E02E00"/>
<path d="M10.3623 23.4868L0 48.5057L7.77142 46.2536L9.50304 49.3967L17.8712 29.1913L10.3623 23.4868Z" fill="#FF4719"/>
<path d="M23.2333 31.3918L32.3248 53.3416L34.4971 49.3967L28.478 27.5824L23.2333 31.3918Z" fill="#C20035"/>
<path d="M33.6377 23.4868L26.1288 29.1913L34.497 49.3967L36.2286 46.2536L44 48.5057L33.6377 23.4868Z" fill="#FF0F47"/>
<path d="M22.0002 0L16.1384 16.8371L22.0002 33.6742C31.299 33.6742 38.8373 26.136 38.8373 16.8371C38.8373 7.53815 31.299 0 22.0002 0Z" fill="#E89330"/>
<path d="M5.16321 16.8371C5.16321 26.1359 12.7014 33.6742 22.0003 33.6742V0C12.7015 0 5.16321 7.53815 5.16321 16.8371Z" fill="#FFBE35"/>
<path d="M21.9995 3.51699V30.1573C29.3442 30.1573 35.3197 24.1819 35.3197 16.8371C35.3197 9.49229 29.3442 3.51699 21.9995 3.51699Z" fill="#FFDB8A"/>
<path d="M21.9993 3.51699C14.6546 3.51699 8.67908 9.4924 8.67908 16.8372C8.67908 24.182 14.6546 30.1574 21.9993 30.1574C28.0509 30.1574 32.9747 24.182 32.9747 16.8372C32.9747 9.4924 28.0509 3.51699 21.9993 3.51699Z" fill="#FFEAB5"/>
<path d="M21.9999 7.03396L24.9748 12.7422L31.3231 13.8077L26.8135 18.401L27.7619 24.7677L21.9999 21.8983L16.2378 24.7677L17.1862 18.401L12.6766 13.8077L19.0249 12.7422L21.9999 7.03396Z" fill="#E89330"/>
</svg>
