<svg width="21" height="19" viewBox="0 0 21 19" fill="none" xmlns="http://www.w3.org/2000/svg">
<g clip-path="url(#clip0_1_230)">
<path d="M17.8519 18.9998H3.04771C2.32753 18.9998 1.74146 18.467 1.74146 17.8123V9.89561C1.74146 9.67711 1.93652 9.49978 2.17687 9.49978H18.7227C18.963 9.49978 19.1581 9.67711 19.1581 9.89561V17.8123C19.1581 18.467 18.572 18.9998 17.8519 18.9998ZM2.61229 10.2914V17.8123C2.61229 18.03 2.80823 18.2081 3.04771 18.2081H17.8519C18.0913 18.2081 18.2873 18.03 18.2873 17.8123V10.2914H2.61229Z" fill="#9C9C9C"/>
<path d="M19.5936 10.2916H1.30612C0.585944 10.2916 -0.000126284 9.7588 -0.000126284 9.10409V6.72909C-0.000126284 6.07439 0.585944 5.5416 1.30612 5.5416H19.5936C20.3138 5.5416 20.8999 6.07439 20.8999 6.72909V9.10409C20.8999 9.7588 20.3138 10.2916 19.5936 10.2916ZM1.30612 6.33326C1.06664 6.33326 0.870706 6.51139 0.870706 6.72909V9.10409C0.870706 9.3218 1.06664 9.49993 1.30612 9.49993H19.5936C19.8331 9.49993 20.029 9.3218 20.029 9.10409V6.72909C20.029 6.51139 19.8331 6.33326 19.5936 6.33326H1.30612Z" fill="#9C9C9C"/>
<path d="M10.4499 6.33308C10.3237 6.33308 10.2035 6.28399 10.1208 6.19612C10.038 6.10983 10.0006 5.99503 10.0189 5.88183C10.0285 5.82245 11.002 -0.000252568 16.1103 -0.000252568C18.3606 -0.000252568 19.1591 1.10491 19.1591 2.05095C19.1591 3.82904 16.4569 6.33308 10.4499 6.33308ZM16.1103 0.791413C12.5295 0.791413 11.3086 4.26287 10.982 5.53349C15.7533 5.39891 18.2883 3.46249 18.2883 2.05095C18.2883 1.69945 18.1255 1.4097 17.8059 1.192C17.4227 0.929955 16.8357 0.791413 16.1103 0.791413Z" fill="#9C9C9C"/>
<path d="M10.4507 6.33308C4.44365 6.33308 1.74146 3.82904 1.74146 2.05095C1.74146 1.45404 2.03667 0.923622 2.57136 0.558664C3.10692 0.192914 3.87413 -0.000252568 4.79024 -0.000252568C9.89855 -0.000252568 10.8721 5.82245 10.8817 5.88183C10.9 5.99583 10.8626 6.10983 10.7798 6.19612C10.6971 6.28399 10.5769 6.33308 10.4507 6.33308ZM4.79024 0.791413C3.44655 0.791413 2.61229 1.27354 2.61229 2.05095C2.61229 3.46329 5.14903 5.3997 9.92293 5.53428C9.60682 4.25574 8.41639 0.791413 4.79024 0.791413Z" fill="#9C9C9C"/>
<path d="M10.45 18.9999C10.2096 18.9999 10.0146 18.8226 10.0146 18.6041V5.93743C10.0146 5.71893 10.2096 5.5416 10.45 5.5416C10.6903 5.5416 10.8854 5.71893 10.8854 5.93743V18.6041C10.8854 18.8226 10.6903 18.9999 10.45 18.9999Z" fill="#9C9C9C"/>
</g>
<defs>
<clipPath id="clip0_1_230">
<rect width="20.2026" height="18.366" fill="white" transform="scale(1.03452)"/>
</clipPath>
</defs>
</svg>
