<svg width="19" height="19" viewBox="0 0 19 19" fill="none" xmlns="http://www.w3.org/2000/svg">
<g clip-path="url(#clip0_1_679)">
<path d="M9.50002 6.72919C7.9725 6.72919 6.72919 7.9721 6.72919 9.50002C6.72919 11.0279 7.9725 12.2709 9.50002 12.2709C11.0275 12.2709 12.2709 11.0279 12.2709 9.50002C12.2709 7.9721 11.0275 6.72919 9.50002 6.72919ZM9.50002 10.6875C8.84531 10.6875 8.31252 10.1547 8.31252 9.50002C8.31252 8.84531 8.84531 8.31252 9.50002 8.31252C10.1547 8.31252 10.6875 8.84531 10.6875 9.50002C10.6875 10.1547 10.1547 10.6875 9.50002 10.6875Z" fill="white"/>
<path d="M18.2083 8.70833H16.5783C16.2118 5.41144 13.5886 2.78825 10.2917 2.42171V0.791667C10.2917 0.354667 9.937 0 9.5 0C9.063 0 8.70833 0.354667 8.70833 0.791667V2.42171C5.41144 2.78825 2.78825 5.41144 2.42171 8.70833H0.791667C0.354667 8.70833 0 9.063 0 9.5C0 9.937 0.354667 10.2917 0.791667 10.2917H2.42171C2.78825 13.5886 5.41144 16.2118 8.70833 16.5783V18.2083C8.70833 18.6453 9.063 19 9.5 19C9.937 19 10.2917 18.6453 10.2917 18.2083V16.5783C13.5886 16.2118 16.2118 13.5886 16.5783 10.2917H18.2083C18.6453 10.2917 19 9.937 19 9.5C19 9.063 18.6453 8.70833 18.2083 8.70833ZM9.5 15.0417C6.44417 15.0417 3.95833 12.5558 3.95833 9.5C3.95833 6.44417 6.44417 3.95833 9.5 3.95833C12.5558 3.95833 15.0417 6.44417 15.0417 9.5C15.0417 12.5558 12.5558 15.0417 9.5 15.0417Z" fill="white"/>
</g>
<defs>
<clipPath id="clip0_1_679">
<rect width="19" height="19" fill="white"/>
</clipPath>
</defs>
</svg>
