<svg width="17" height="17" viewBox="0 0 17 17" fill="none" xmlns="http://www.w3.org/2000/svg">
<path d="M9.51983 16.9999H7.4799C7.45759 16.9999 7.43528 16.9978 7.41343 16.9939C7.39157 16.99 7.37041 16.9842 7.34971 16.9766C7.329 16.969 7.30945 16.9597 7.29082 16.9486C7.27242 16.9375 7.25516 16.925 7.23929 16.911C7.22365 16.8968 7.20962 16.8815 7.1972 16.8648C7.18477 16.8484 7.17419 16.8309 7.16568 16.8123C7.15717 16.794 7.15073 16.7751 7.14636 16.7555C7.14199 16.736 7.13992 16.7162 7.13992 16.6962V13.6787C7.00834 13.6206 6.88228 13.5543 6.76175 13.4798C6.64098 13.4055 6.52688 13.3237 6.41923 13.2346C6.3118 13.1457 6.21197 13.0502 6.11973 12.9485C6.02749 12.8466 5.94398 12.7393 5.86922 12.6267C5.79423 12.5141 5.72867 12.3974 5.67255 12.2763C5.61642 12.1555 5.57041 12.0315 5.5343 11.9045C5.49818 11.7777 5.47219 11.649 5.45678 11.5189C5.44136 11.3886 5.43653 11.2581 5.44205 11.1272C5.44758 10.9964 5.46368 10.8665 5.49013 10.7377C5.51658 10.609 5.55316 10.4826 5.60009 10.3585C5.64678 10.2343 5.70337 10.1139 5.76962 9.99696C5.83587 9.88024 5.91109 9.76824 5.99528 9.66099C6.0797 9.55394 6.17195 9.45265 6.2727 9.35734C6.37322 9.26202 6.48088 9.1735 6.59566 9.09218C6.71045 9.01066 6.83122 8.93675 6.95796 8.87088C7.08448 8.80479 7.21583 8.74736 7.35178 8.69815C7.36466 8.69342 7.37777 8.68951 7.39111 8.68621C7.40468 8.68313 7.41826 8.68066 7.43183 8.6788C7.44563 8.67716 7.45943 8.67613 7.47323 8.67592C7.48727 8.67572 7.50107 8.67613 7.51487 8.67736C7.52867 8.6788 7.54224 8.68066 7.55582 8.68354C7.56939 8.68621 7.58273 8.68971 7.59584 8.69404C7.60872 8.69815 7.6216 8.7031 7.6338 8.70886C7.64622 8.71442 7.65818 8.72059 7.66968 8.72759C7.68118 8.73439 7.69222 8.742 7.70281 8.75003C7.71316 8.75827 7.72305 8.76691 7.73225 8.77618C7.74168 8.78524 7.75019 8.79491 7.75824 8.8052C7.76629 8.81529 7.77343 8.82579 7.77987 8.8367C7.78654 8.84782 7.79229 8.85894 7.79712 8.87046C7.80218 8.8822 7.80632 8.89393 7.80977 8.90587C7.81299 8.91802 7.81552 8.93017 7.81736 8.94252C7.81897 8.95466 7.81989 8.96702 7.81989 8.97957V10.8027L8.49987 11.4098L9.17984 10.8027V8.97957C9.17984 8.96702 9.18076 8.95466 9.18237 8.94252C9.18398 8.93017 9.18651 8.91802 9.18996 8.90608C9.19318 8.89393 9.19732 8.8822 9.20238 8.87067C9.20744 8.85914 9.21319 8.84782 9.21963 8.83691C9.22608 8.826 9.23344 8.81529 9.24126 8.8052C9.24931 8.79512 9.25805 8.78544 9.26725 8.77618C9.27645 8.76691 9.28634 8.75827 9.29693 8.75024C9.30728 8.742 9.31832 8.73459 9.32982 8.72759C9.34132 8.7208 9.35328 8.71442 9.3657 8.70886C9.37813 8.7033 9.39078 8.69836 9.40389 8.69404C9.41677 8.68992 9.43011 8.68642 9.44369 8.68354C9.45726 8.68086 9.47083 8.6788 9.48463 8.67757C9.49843 8.67633 9.51224 8.67572 9.52627 8.67592C9.54007 8.67633 9.55387 8.67716 9.56767 8.67901C9.58124 8.68066 9.59482 8.68313 9.60839 8.68642C9.62173 8.68971 9.63484 8.69363 9.64772 8.69836C9.78367 8.74736 9.91502 8.805 10.0415 8.87088C10.1683 8.93696 10.2891 9.01066 10.4038 9.09218C10.5186 9.1737 10.6263 9.26202 10.727 9.35734C10.8276 9.45265 10.92 9.55394 11.0042 9.66099C11.0884 9.76824 11.1636 9.88024 11.2299 9.99717C11.2961 10.1139 11.3527 10.2343 11.3996 10.3585C11.4463 10.4826 11.4831 10.609 11.5096 10.7379C11.5361 10.8665 11.5522 10.9964 11.5577 11.1272C11.5632 11.2581 11.5584 11.3886 11.543 11.5189C11.5273 11.649 11.5015 11.7777 11.4654 11.9045C11.4293 12.0315 11.3831 12.1555 11.327 12.2763C11.2711 12.3974 11.2055 12.5141 11.1305 12.6267C11.0555 12.7393 10.972 12.8466 10.88 12.9485C10.7878 13.0502 10.6879 13.1457 10.5803 13.2348C10.4728 13.3237 10.3588 13.4055 10.238 13.4798C10.1172 13.5543 9.99116 13.6206 9.85981 13.6787V16.6962C9.85981 16.7162 9.85774 16.736 9.85337 16.7555C9.849 16.7751 9.84256 16.794 9.83405 16.8123C9.82531 16.8309 9.81496 16.8484 9.80254 16.8648C9.79011 16.8815 9.77608 16.8968 9.76021 16.911C9.74457 16.925 9.72731 16.9375 9.70868 16.9486C9.69005 16.9597 9.6705 16.969 9.65002 16.9766C9.62932 16.9842 9.60816 16.99 9.58608 16.9939C9.56422 16.9978 9.54214 16.9999 9.51983 16.9999ZM7.81989 16.3926H9.17984V13.4825C9.17984 13.4522 9.18467 13.4228 9.19479 13.3937C9.20468 13.3649 9.21894 13.338 9.23804 13.3128C9.2569 13.2877 9.27944 13.2657 9.3059 13.2468C9.33212 13.2276 9.36087 13.2126 9.39239 13.2013C9.4913 13.1654 9.587 13.1239 9.6797 13.0767C9.7724 13.0294 9.86119 12.9769 9.94585 12.919C10.0307 12.861 10.1108 12.7984 10.186 12.7309C10.2612 12.6633 10.3311 12.5915 10.3958 12.5157C10.4602 12.4398 10.5189 12.3603 10.5713 12.2773C10.624 12.1944 10.67 12.1087 10.7095 12.0202C10.7491 11.9319 10.782 11.8413 10.808 11.7489C10.834 11.6564 10.8531 11.563 10.8651 11.4683C10.8768 11.3736 10.8816 11.2787 10.8793 11.1834C10.8768 11.088 10.8674 10.9934 10.8508 10.8993C10.834 10.8052 10.8103 10.7123 10.7797 10.6211C10.7491 10.5299 10.7119 10.4408 10.6679 10.3539C10.6237 10.2673 10.5734 10.1835 10.5168 10.1026C10.4602 10.0219 10.3976 9.94488 10.3295 9.87159C10.2612 9.7983 10.1878 9.72954 10.1092 9.66511C10.0305 9.60067 9.94745 9.54117 9.85981 9.48683V10.9285C9.85981 10.9686 9.85107 11.0073 9.83382 11.0446C9.81657 11.0817 9.79218 11.1146 9.76021 11.143L8.74025 12.0538C8.72438 12.0678 8.70735 12.0805 8.68872 12.0914C8.67009 12.1026 8.65054 12.112 8.62983 12.1196C8.60936 12.1273 8.58797 12.133 8.56611 12.1369C8.54426 12.1408 8.52218 12.1427 8.49987 12.1427C8.47755 12.1427 8.45547 12.1408 8.43339 12.1369C8.41153 12.133 8.39037 12.1273 8.36967 12.1196C8.34919 12.112 8.32941 12.1026 8.31101 12.0914C8.29238 12.0805 8.27512 12.0678 8.25948 12.0538L7.23952 11.143C7.20755 11.1146 7.18293 11.0817 7.16568 11.0446C7.14843 11.0073 7.13992 10.9686 7.13992 10.9285V9.48683C7.05228 9.54117 6.96923 9.60067 6.89056 9.66511C6.81189 9.72954 6.73851 9.7983 6.67019 9.87159C6.60187 9.94488 6.53954 10.0219 6.48295 10.1028C6.42613 10.1835 6.37575 10.2673 6.33182 10.3541C6.28788 10.4408 6.25039 10.5299 6.21979 10.6211C6.1892 10.7126 6.1655 10.8052 6.14894 10.8993C6.13238 10.9934 6.12272 11.088 6.12042 11.1834C6.11812 11.2787 6.12272 11.3736 6.13468 11.4683C6.14664 11.563 6.1655 11.6566 6.19173 11.7491C6.21772 11.8413 6.25039 11.9319 6.29018 12.0204C6.32975 12.1087 6.37575 12.1946 6.42843 12.2775C6.48088 12.3603 6.53954 12.4398 6.60394 12.5157C6.66858 12.5917 6.73851 12.6633 6.81373 12.7309C6.88895 12.7984 6.969 12.861 7.05389 12.919C7.13854 12.9769 7.22733 13.0294 7.32003 13.0767C7.41274 13.1239 7.50843 13.1654 7.60757 13.2013C7.63886 13.2126 7.66761 13.2278 7.69406 13.2468C7.72029 13.2657 7.74283 13.2879 7.76169 13.3128C7.78079 13.338 7.79505 13.3649 7.80494 13.3937C7.81483 13.4228 7.81989 13.4522 7.81989 13.4825V16.3926Z" fill="white"/>
<path d="M16.6601 6.98214H0.340027C0.305522 6.98214 0.271708 6.9774 0.238583 6.96835C0.205689 6.95908 0.174865 6.9457 0.146571 6.928C0.118047 6.9105 0.0932033 6.8895 0.0720404 6.86521C0.0506474 6.84091 0.0338551 6.81415 0.0218935 6.78533C0.00970179 6.75651 0.00257078 6.72645 0.000500512 6.69578C-0.00133974 6.6649 0.00188072 6.63443 0.0103919 6.60458C0.018673 6.57452 0.0320148 6.54653 0.0499573 6.52018C0.0681298 6.49383 0.0899828 6.47036 0.116206 6.45018L8.27612 0.0751409C8.30717 0.0508488 8.34191 0.0323209 8.38055 0.0193514C8.41897 0.00638182 8.45899 0 8.50017 0C8.54135 0 8.58114 0.00638182 8.61979 0.0193514C8.6582 0.0323209 8.69317 0.0508488 8.72399 0.0751409L16.8839 6.45018C16.9099 6.47036 16.932 6.49383 16.9502 6.52018C16.9681 6.54653 16.9814 6.57452 16.9897 6.60458C16.9982 6.63443 17.0015 6.6649 16.9994 6.69557C16.9975 6.72645 16.9904 6.7563 16.9782 6.78533C16.9663 6.81415 16.9495 6.84071 16.9283 6.86521C16.9069 6.8895 16.8821 6.9105 16.8538 6.928C16.8252 6.9457 16.7947 6.95908 16.7615 6.96814C16.7286 6.9774 16.6948 6.98214 16.6601 6.98214ZM1.24497 6.37504H15.7554L8.50017 0.706943L1.24497 6.37504Z" fill="white"/>
<path d="M14.9597 15.1785H9.51972C9.49741 15.1785 9.47533 15.1767 9.45347 15.1728C9.43139 15.1689 9.41023 15.1631 9.38952 15.1555C9.36905 15.1479 9.3495 15.1384 9.33087 15.1273C9.31223 15.1164 9.29498 15.1038 9.27934 15.0896C9.26347 15.0756 9.24943 15.0602 9.23701 15.0437C9.22459 15.027 9.21424 15.0095 9.2055 14.9912C9.19699 14.9727 9.19055 14.9537 9.18618 14.9342C9.18181 14.9146 9.17973 14.8949 9.17973 14.8749C9.17973 14.8551 9.18181 14.8354 9.18618 14.8158C9.19055 14.7962 9.19699 14.7771 9.2055 14.7588C9.21424 14.7405 9.22459 14.723 9.23701 14.7063C9.24943 14.6898 9.26347 14.6744 9.27934 14.6604C9.29498 14.6462 9.31223 14.6336 9.33087 14.6225C9.3495 14.6114 9.36905 14.6021 9.38952 14.5945C9.41023 14.5869 9.43139 14.5811 9.45347 14.5772C9.47533 14.5733 9.49741 14.5714 9.51972 14.5714H14.6198V6.98221H2.37977V14.5714H7.4798C7.50211 14.5714 7.5242 14.5733 7.54605 14.5772C7.5679 14.5811 7.5893 14.5869 7.60977 14.5945C7.63047 14.6021 7.65002 14.6114 7.66866 14.6225C7.68706 14.6336 7.70431 14.6462 7.72018 14.6604C7.73583 14.6744 7.75009 14.6898 7.76251 14.7063C7.7747 14.723 7.78528 14.7405 7.79379 14.7588C7.80231 14.7771 7.80875 14.7962 7.81312 14.8158C7.81749 14.8354 7.81979 14.8551 7.81979 14.8749C7.81979 14.8949 7.81749 14.9146 7.81312 14.9342C7.80875 14.9537 7.80231 14.9727 7.79379 14.9912C7.78528 15.0095 7.7747 15.027 7.76251 15.0437C7.75009 15.0602 7.73583 15.0756 7.72018 15.0896C7.70431 15.1038 7.68706 15.1164 7.66866 15.1273C7.65002 15.1384 7.63047 15.1479 7.60977 15.1555C7.5893 15.1631 7.5679 15.1689 7.54605 15.1728C7.5242 15.1767 7.50211 15.1785 7.4798 15.1785H2.03955C2.01724 15.1785 1.99515 15.1767 1.9733 15.1728C1.95145 15.1689 1.93006 15.1631 1.90958 15.1555C1.88888 15.1479 1.86933 15.1384 1.8507 15.1273C1.83229 15.1164 1.81504 15.1038 1.79917 15.0896C1.78353 15.0756 1.76926 15.0602 1.75684 15.0437C1.74465 15.027 1.73407 15.0095 1.72556 14.9912C1.71705 14.9727 1.71061 14.9537 1.70624 14.9342C1.70186 14.9146 1.69956 14.8949 1.69956 14.8749V6.67855C1.69956 6.65859 1.70186 6.63882 1.70624 6.61927C1.71061 6.59971 1.71705 6.58077 1.72556 6.56245C1.73407 6.54392 1.74465 6.52642 1.75684 6.50995C1.76926 6.49328 1.78353 6.47804 1.79917 6.46384C1.81504 6.44984 1.83229 6.43728 1.8507 6.42616C1.86933 6.41505 1.88888 6.40578 1.90958 6.39817C1.93006 6.39055 1.95145 6.38478 1.9733 6.38087C1.99515 6.37696 2.01724 6.37511 2.03955 6.37511H14.9597C14.9821 6.37511 15.0041 6.37696 15.026 6.38087C15.0481 6.38478 15.0692 6.39055 15.0899 6.39817C15.1104 6.40578 15.1302 6.41505 15.1486 6.42616C15.1672 6.43728 15.1845 6.44984 15.2001 6.46384C15.216 6.47804 15.23 6.49328 15.2425 6.50995C15.2549 6.52642 15.2655 6.54392 15.274 6.56245C15.2825 6.58077 15.2889 6.59971 15.2933 6.61927C15.2977 6.63882 15.2997 6.65859 15.2997 6.67855V14.8749C15.2997 14.8949 15.2977 14.9146 15.2933 14.9342C15.2889 14.9537 15.2825 14.9727 15.274 14.9912C15.2655 15.0095 15.2549 15.027 15.2425 15.0437C15.23 15.0602 15.216 15.0756 15.2001 15.0896C15.1845 15.1038 15.1672 15.1164 15.1486 15.1273C15.1302 15.1384 15.1104 15.1479 15.0899 15.1555C15.0692 15.1631 15.0481 15.1689 15.026 15.1728C15.0041 15.1767 14.9821 15.1785 14.9597 15.1785Z" fill="white"/>
<path d="M2.72012 5.12403C2.69781 5.12403 2.6755 5.12218 2.65364 5.11826C2.63179 5.11435 2.61063 5.10859 2.58993 5.10097C2.56922 5.09335 2.54967 5.08389 2.53104 5.07297C2.51264 5.06186 2.49538 5.0493 2.47951 5.0351C2.46387 5.0211 2.44984 5.00566 2.43741 4.98919C2.42499 4.97251 2.41441 4.95501 2.4059 4.93669C2.39739 4.91816 2.39095 4.89922 2.38658 4.87967C2.38221 4.86011 2.38014 4.84035 2.38014 4.82058V0.910577C2.38014 0.890608 2.38221 0.870845 2.38658 0.851287C2.39095 0.83173 2.39739 0.812791 2.4059 0.794263C2.41441 0.775941 2.42499 0.758442 2.43741 0.741767C2.44984 0.725298 2.46387 0.709858 2.47951 0.695859C2.49538 0.68186 2.51264 0.669096 2.53104 0.658186C2.54967 0.647069 2.56922 0.637599 2.58993 0.629982C2.61063 0.622365 2.63179 0.616601 2.65364 0.612689C2.6755 0.608984 2.69781 0.606925 2.72012 0.606925H4.76004C4.78236 0.606925 4.80444 0.608984 4.82629 0.612689C4.84838 0.616601 4.86954 0.622365 4.89024 0.629982C4.91072 0.637599 4.93027 0.647069 4.9489 0.658186C4.96753 0.669096 4.98479 0.68186 5.00043 0.695859C5.0163 0.709858 5.03033 0.725298 5.04275 0.741767C5.05518 0.758442 5.06553 0.775941 5.07427 0.794263C5.08278 0.812791 5.08922 0.83173 5.09359 0.851287C5.09796 0.870845 5.10003 0.890608 5.10003 0.910577V3.22677C5.10003 3.24674 5.09796 3.2665 5.09359 3.28606C5.08922 3.30562 5.08278 3.32456 5.07427 3.34288C5.06553 3.36141 5.05518 3.37891 5.04275 3.39538C5.03033 3.41205 5.0163 3.42728 5.00043 3.44149C4.98479 3.45549 4.96753 3.46805 4.9489 3.47916C4.93027 3.49028 4.91072 3.49954 4.89024 3.50716C4.86954 3.51478 4.84838 3.52054 4.82629 3.52445C4.80444 3.52836 4.78236 3.53042 4.76004 3.53042C4.73773 3.53042 4.71565 3.52836 4.6938 3.52445C4.67171 3.52054 4.65055 3.51478 4.62985 3.50716C4.60937 3.49954 4.58982 3.49028 4.57119 3.47916C4.55256 3.46805 4.5353 3.45549 4.51966 3.44149C4.50379 3.42728 4.48976 3.41205 4.47734 3.39538C4.46491 3.37891 4.45456 3.36141 4.44582 3.34288C4.43731 3.32456 4.43087 3.30562 4.4265 3.28606C4.42213 3.2665 4.42006 3.24674 4.42006 3.22677V1.21402H3.06011V4.82058C3.06011 4.84035 3.05781 4.86011 3.05344 4.87967C3.04907 4.89922 3.04263 4.91816 3.03412 4.93669C3.02561 4.95501 3.01502 4.97251 3.00283 4.98919C2.99041 5.00566 2.97615 5.0211 2.96051 5.0351C2.94463 5.0493 2.92738 5.06186 2.90898 5.07297C2.89035 5.08389 2.87079 5.09335 2.85009 5.10097C2.82962 5.10859 2.80823 5.11435 2.78637 5.11826C2.76452 5.12218 2.74244 5.12403 2.72012 5.12403Z" fill="white"/>
</svg>
