<svg width="17" height="17" viewBox="0 0 17 17" fill="none" xmlns="http://www.w3.org/2000/svg">
<path d="M0 15.4123C7.94676e-06 15.4898 0.0186934 15.5653 0.0534141 15.6282C0.0881347 15.6911 0.137133 15.7381 0.193481 15.7627C0.262402 15.7928 1.37062 16.2644 2.9615 16.2644C3.89392 16.2671 4.82206 16.0998 5.71901 15.7675C7.34048 15.1612 8.34302 14.0096 8.92793 13.0583C9.00249 13.1144 9.08084 13.1616 9.162 13.1991C9.92175 14.8807 11.7557 16.0787 13.8647 16.2604C13.8708 16.261 13.8771 16.2613 13.8833 16.2613H15.3487C15.4156 16.5077 15.5471 16.7155 15.7201 16.8477C15.893 16.9799 16.0962 17.0282 16.2937 16.984C16.4913 16.9398 16.6705 16.8059 16.7997 16.606C16.929 16.4062 16.9999 16.1532 17 15.8917V14.4134C16.9999 14.1519 16.929 13.8989 16.7997 13.6991C16.6705 13.4992 16.4913 13.3653 16.2937 13.3211C16.0962 13.2769 15.893 13.3252 15.7201 13.4574C15.5471 13.5896 15.4156 13.7974 15.3487 14.0438H13.8934C12.5543 13.9173 11.373 13.31 10.8146 12.4752C10.9681 12.1733 11.05 11.8191 11.05 11.4568C11.05 11.0946 10.9681 10.7403 10.8146 10.4384C11.373 9.60362 12.5543 8.99632 13.8934 8.86979H15.3487C15.4156 9.11626 15.5471 9.32396 15.7201 9.45621C15.893 9.58846 16.0962 9.63674 16.2937 9.59252C16.4913 9.5483 16.6705 9.41443 16.7997 9.21456C16.929 9.01469 16.9999 8.76167 17 8.50021V7.02191C16.9999 6.76045 16.929 6.50743 16.7997 6.30756C16.6705 6.10769 16.4913 5.97382 16.2937 5.92961C16.0962 5.88539 15.893 5.93367 15.7201 6.06591C15.5471 6.19816 15.4156 6.40587 15.3487 6.65234H13.8833C13.8771 6.65234 13.8708 6.65262 13.8647 6.65317C11.7557 6.83491 9.92175 8.03275 9.162 9.71449C9.08084 9.75202 9.00249 9.79917 8.92793 9.85535C8.34302 8.90402 7.34048 7.75242 5.71901 7.14609C5.4892 7.06016 5.26247 6.98694 5.03883 6.92642C5.09079 6.57863 5.17084 6.23899 5.27764 5.91319H6.23333C6.90939 5.9122 7.55755 5.56145 8.03561 4.93788C8.51366 4.31432 8.78256 3.46887 8.78332 2.58702V0.369574C8.78332 0.271557 8.75347 0.177555 8.70034 0.108246C8.6472 0.0389373 8.57513 0 8.49999 0H7.36666C6.89821 0.000578907 6.43891 0.169331 6.0391 0.487767C5.63929 0.806203 5.31439 1.26204 5.09999 1.80532C4.8856 1.26204 4.56069 0.806203 4.16088 0.487767C3.76107 0.169331 3.30178 0.000578907 2.83333 0H1.7C1.62485 0 1.55279 0.0389373 1.49965 0.108246C1.44652 0.177555 1.41666 0.271557 1.41666 0.369574V2.58702C1.41742 3.46887 1.68633 4.31432 2.16438 4.93788C2.64243 5.56145 3.29059 5.9122 3.96666 5.91319H4.66791C4.58839 6.20077 4.52588 6.49588 4.48091 6.79592C2.11508 6.33289 0.282873 7.11191 0.193587 7.1509C0.137248 7.17549 0.0882604 7.22256 0.053551 7.28545C0.0188416 7.34834 0.000166583 7.42387 0.000166583 7.50137C0.000166583 7.57886 0.0188416 7.65439 0.053551 7.71729C0.0882604 7.78018 0.137248 7.82725 0.193587 7.85184L4.55606 9.75515C4.68631 10.4122 4.88116 11.0445 5.13576 11.6364C5.17261 11.7212 5.23365 11.7835 5.30558 11.8099C5.37752 11.8363 5.45453 11.8245 5.51985 11.7772C5.58517 11.7299 5.63351 11.6508 5.65434 11.5572C5.67518 11.4636 5.66683 11.363 5.6311 11.2774C5.46172 10.8824 5.32024 10.4682 5.2084 10.0397L8.21914 11.3532C8.21765 11.3876 8.21676 11.4221 8.21676 11.4569C8.21676 11.4917 8.21765 11.5262 8.21914 11.5606L0.193729 15.0619C0.137341 15.0864 0.0882922 15.1334 0.053525 15.1963C0.0187577 15.2592 3.27471e-05 15.3347 0 15.4123ZM15.8666 14.4134C15.8666 14.3154 15.8965 14.2214 15.9496 14.1521C16.0028 14.0828 16.0748 14.0438 16.15 14.0438C16.2251 14.0438 16.2972 14.0828 16.3503 14.1521C16.4035 14.2214 16.4333 14.3154 16.4333 14.4134V15.8917C16.4333 15.9897 16.4035 16.0837 16.3503 16.153C16.2972 16.2223 16.2251 16.2613 16.15 16.2613C16.0748 16.2613 16.0028 16.2223 15.9496 16.153C15.8965 16.0837 15.8666 15.9897 15.8666 15.8917V14.4134ZM15.8666 7.02191C15.8666 6.9239 15.8965 6.82989 15.9496 6.76058C16.0028 6.69128 16.0748 6.65234 16.15 6.65234C16.2251 6.65234 16.2972 6.69128 16.3503 6.76058C16.4035 6.82989 16.4333 6.9239 16.4333 7.02191V8.50021C16.4333 8.59823 16.4035 8.69223 16.3503 8.76154C16.2972 8.83085 16.2251 8.86979 16.15 8.86979C16.0748 8.86979 16.0028 8.83085 15.9496 8.76154C15.8965 8.69223 15.8666 8.59823 15.8666 8.50021V7.02191ZM5.38333 3.32617C5.38392 2.64029 5.59306 1.98271 5.96488 1.49772C6.3367 1.01273 6.84083 0.739919 7.36666 0.739149H8.21666V2.58702C8.21607 3.2729 8.00692 3.93048 7.6351 4.41547C7.26328 4.90046 6.75916 5.17327 6.23333 5.17404H5.71603L7.01511 3.19714C7.06402 3.12272 7.08826 3.02601 7.08251 2.92827C7.07675 2.83054 7.04146 2.73979 6.98441 2.676C6.92735 2.6122 6.85321 2.58058 6.77828 2.58809C6.70335 2.5956 6.63378 2.64163 6.58487 2.71605L5.38333 4.54456V3.32617ZM1.33011 7.56833C2.34698 7.34907 3.38373 7.33617 4.40363 7.53008C4.37632 7.99413 4.38614 8.46063 4.43292 8.92204L1.33011 7.56833ZM14.7333 14.783H15.3V15.5221H14.7333V14.783ZM13.8633 14.7821C13.8699 14.7827 13.8766 14.783 13.8833 14.783H14.1666V15.5221H13.8928C12.1711 15.3711 10.6646 14.5098 9.89069 13.2735C10.0774 13.2286 10.2552 13.1349 10.4134 12.9981C11.0857 13.9699 12.3756 14.6444 13.8633 14.7821ZM14.7333 7.39149H15.3V8.13064H14.7333V7.39149ZM13.8928 7.39149H14.1666V8.13064H13.8833C13.8766 8.13064 13.8699 8.13096 13.8633 8.13156C12.3756 8.26937 11.0857 8.94361 10.4137 9.91554C10.2555 9.77871 10.0776 9.68501 9.89094 9.64007C10.6646 8.40384 12.1711 7.54251 13.8928 7.39149ZM9.63332 10.3481C9.80143 10.3481 9.96577 10.4131 10.1056 10.5349C10.2453 10.6568 10.3543 10.8299 10.4186 11.0325C10.483 11.2351 10.4998 11.458 10.467 11.6731C10.4342 11.8882 10.3532 12.0857 10.2344 12.2408C10.1155 12.3958 9.96403 12.5014 9.79915 12.5442C9.63426 12.587 9.46336 12.565 9.30804 12.4811C9.15272 12.3972 9.01997 12.2551 8.92657 12.0728C8.83317 11.8905 8.78332 11.6761 8.78332 11.4568C8.78358 11.1629 8.87322 10.8811 9.03257 10.6732C9.19192 10.4653 9.40797 10.3484 9.63332 10.3481ZM4.81666 4.54456L3.61512 2.71605C3.56621 2.64163 3.49664 2.5956 3.42171 2.58809C3.34678 2.58058 3.27263 2.6122 3.21558 2.676C3.15853 2.73979 3.12324 2.83054 3.11748 2.92827C3.11172 3.02601 3.13597 3.12272 3.18488 3.19714L4.48396 5.17404H3.96666C3.44083 5.17327 2.93671 4.90046 2.56489 4.41547C2.19307 3.93048 1.98392 3.2729 1.98333 2.58702V0.739149H2.83333C3.35916 0.739919 3.86329 1.01273 4.2351 1.49772C4.60692 1.98271 4.81607 2.64029 4.81666 3.32617V4.54456ZM5.03624 9.18522C4.96231 8.68371 4.93828 8.17187 4.96474 7.66234C5.16162 7.71713 5.36119 7.78125 5.56278 7.85664C7.06013 8.4165 7.97504 9.47815 8.50236 10.3452C8.44942 10.4367 8.40311 10.5344 8.36402 10.637L5.03624 9.18522ZM8.36417 12.2766C8.40325 12.3792 8.44956 12.4769 8.5025 12.5684C7.97504 13.4356 7.06013 14.4971 5.56292 15.057C3.85846 15.6945 2.28908 15.5502 1.33234 15.3444L8.36417 12.2766ZM9.34999 11.4568C9.34999 11.3837 9.36661 11.3123 9.39774 11.2515C9.42887 11.1907 9.47312 11.1433 9.52489 11.1154C9.57667 11.0874 9.63364 11.0801 9.6886 11.0943C9.74356 11.1086 9.79404 11.1438 9.83367 11.1955C9.87329 11.2472 9.90028 11.313 9.91121 11.3847C9.92214 11.4564 9.91653 11.5307 9.89509 11.5982C9.87364 11.6658 9.83733 11.7235 9.79073 11.7641C9.74414 11.8047 9.68936 11.8264 9.63332 11.8264C9.55818 11.8264 9.48611 11.7874 9.43297 11.7181C9.37984 11.6488 9.34999 11.5548 9.34999 11.4568Z" fill="white"/>
</svg>
