<svg width="21" height="21" viewBox="0 0 21 21" fill="none" xmlns="http://www.w3.org/2000/svg">
<g clip-path="url(#clip0_1_287)">
<path d="M10.4998 10.527C4.96573 10.527 0.463269 15.0295 0.463269 20.5635C0.463269 20.8044 0.658777 20.9999 0.899654 20.9999C1.14053 20.9999 1.33604 20.8044 1.33604 20.5635C1.33604 15.5103 5.44666 11.3997 10.4998 11.3997C15.553 11.3997 19.6637 15.5103 19.6637 20.5635C19.6637 20.8044 19.8592 20.9999 20.1 20.9999C20.3409 20.9999 20.5364 20.8044 20.5364 20.5635C20.5364 15.0286 16.0339 10.527 10.4998 10.527Z" fill="#9C9C9C"/>
<path d="M10.4999 -6.34441e-05C7.85372 -6.34441e-05 5.69982 2.15298 5.69982 4.80001C5.69982 7.44705 7.85377 9.60009 10.4999 9.60009C13.146 9.60009 15.3 7.44705 15.3 4.80001C15.3 2.15298 13.1461 -6.34441e-05 10.4999 -6.34441e-05ZM10.4999 8.72736C8.33462 8.72736 6.57255 6.96529 6.57255 4.80001C6.57255 2.63474 8.33462 0.872667 10.4999 0.872667C12.6652 0.872667 14.4272 2.63474 14.4272 4.80001C14.4272 6.96529 12.6652 8.72736 10.4999 8.72736Z" fill="#9C9C9C"/>
</g>
<defs>
<clipPath id="clip0_1_287">
<rect width="20.2026" height="20.2026" fill="white" transform="scale(1.03947)"/>
</clipPath>
</defs>
</svg>
