<svg width="18" height="18" viewBox="0 0 18 18" fill="none" xmlns="http://www.w3.org/2000/svg">
<path d="M6.8544 2.98586L15.009 11.1263L16.9113 9.227L8.75698 1.08676L6.8544 2.98586ZM15.009 12.2129C14.8893 12.2129 14.7748 12.1653 14.6901 12.0811L5.89812 3.30404C5.81341 3.21955 5.76585 3.1051 5.76585 2.98586C5.76585 2.8664 5.81341 2.75195 5.89812 2.66746L8.43814 0.131779C8.61428 -0.0439265 8.89967 -0.0439265 9.07581 0.131779L17.8678 8.90882C18.044 9.08452 18.044 9.36947 17.8678 9.5454L15.3278 12.0811C15.2433 12.1653 15.1286 12.2129 15.009 12.2129Z" fill="white"/>
<path d="M14.6785 14.6588C14.6134 14.6588 14.5476 14.6449 14.4861 14.6158L7.36273 11.2561L6.27375 12.3431C6.09739 12.5189 5.81222 12.5189 5.63608 12.3431C5.45994 12.1674 5.45994 11.8825 5.63608 11.7066L6.94964 10.3954C7.08429 10.2612 7.28889 10.2256 7.4609 10.3068L14.5843 13.6665L16.7014 11.5528L15.9608 10.8135C15.7847 10.6376 15.7847 10.3526 15.9608 10.1769C16.1367 10.001 16.4223 10.001 16.5983 10.1769L17.6581 11.2346C17.8341 11.4103 17.8341 11.6953 17.6581 11.871L14.9974 14.5272C14.9109 14.6134 14.7956 14.6588 14.6785 14.6588Z" fill="white"/>
<path d="M1.0886 16.1106L1.86158 16.8823L6.02205 12.729L5.24907 11.9573L1.0886 16.1106ZM1.86158 17.9689C1.74191 17.9689 1.62723 17.9216 1.54275 17.8371L0.132105 16.4288C-0.044035 16.2531 -0.044035 15.9682 0.132105 15.7922L4.93024 11.0026C5.01473 10.9181 5.1294 10.8705 5.24907 10.8705C5.36853 10.8705 5.4832 10.9181 5.56791 11.0026L6.97877 12.4106C7.15469 12.5865 7.15469 12.8715 6.97877 13.0472L2.18041 17.8373C2.09571 17.9216 1.98103 17.9689 1.86158 17.9689Z" fill="white"/>
<path d="M6.87871 2.77527C6.75904 2.77527 6.64436 2.72793 6.55988 2.64344L6.19739 2.28139C6.11268 2.1969 6.06512 2.08244 6.06512 1.96299C6.06512 1.84375 6.11268 1.72929 6.19739 1.64481L7.41343 0.430721C7.49791 0.346234 7.61259 0.298887 7.73226 0.298887C7.73226 0.298887 7.73226 0.298887 7.73248 0.298887C7.85193 0.298887 7.96661 0.346234 8.05131 0.430721L8.4138 0.792775C8.58972 0.96848 8.58972 1.25343 8.4138 1.42936L7.19776 2.64344C7.11306 2.72793 6.99838 2.77527 6.87871 2.77527Z" fill="white"/>
</svg>
