<svg width="34" height="24" viewBox="0 0 34 24" fill="none" xmlns="http://www.w3.org/2000/svg">
<path d="M27.4983 5.72746H6.43245C6.10177 5.72746 5.83371 5.9938 5.83371 6.32235V13.367C5.83371 13.6956 6.10177 13.9619 6.43245 13.9619H27.4983C27.829 13.9619 28.0971 13.6956 28.0971 13.367V6.32235C28.0971 5.9938 27.829 5.72746 27.4983 5.72746Z" fill="url(#paint0_linear_1_309)"/>
<path d="M7.97421 11.4188L8.21964 12.1072L8.46358 11.4188H8.72226V12.3689H8.52461V12.1092L8.5444 11.6614L8.28627 12.3689H8.15115L7.89433 11.6612L7.91299 12.1092V12.3689H7.71702V11.4188H7.97421Z" fill="url(#paint1_linear_1_309)"/>
<path d="M8.85281 12.0087C8.85159 11.9441 8.86552 11.88 8.8935 11.8216C8.9189 11.7686 8.95965 11.7244 9.01052 11.6946C9.06444 11.6638 9.12582 11.6482 9.18801 11.6495C9.231 11.6479 9.27388 11.6547 9.31416 11.6697C9.35445 11.6847 9.39132 11.7075 9.42262 11.7369C9.48334 11.7951 9.51712 11.8742 9.52396 11.9742L9.52527 12.0224C9.52527 12.1307 9.49484 12.2173 9.434 12.2821C9.37316 12.3468 9.2916 12.3795 9.18932 12.3801C9.08704 12.3801 9.00535 12.3475 8.94426 12.2822C8.88317 12.217 8.85268 12.1284 8.85281 12.0165V12.0087ZM9.04243 12.0221C9.04243 12.0892 9.05512 12.1404 9.07976 12.176C9.09252 12.1924 9.10892 12.2058 9.12769 12.215C9.14645 12.2241 9.16709 12.2289 9.18801 12.2289C9.20893 12.2289 9.22957 12.2241 9.24834 12.215C9.2671 12.2058 9.2835 12.1924 9.29626 12.176C9.32202 12.141 9.3349 12.0849 9.3349 12.0078C9.3349 11.9421 9.32202 11.8911 9.29626 11.8552C9.2842 11.8377 9.26787 11.8236 9.24881 11.8141C9.22975 11.8046 9.20857 11.8 9.18726 11.8008C9.1662 11.8 9.14525 11.8045 9.12643 11.8139C9.10761 11.8233 9.09154 11.8374 9.07976 11.8548C9.05488 11.891 9.04243 11.9468 9.04243 12.0221Z" fill="url(#paint2_linear_1_309)"/>
<path d="M11.4342 11.5772H11.1425V12.3689H10.9446V11.5772H10.6559V11.4188H11.4342V11.5772Z" fill="url(#paint3_linear_1_309)"/>
<path d="M11.9164 12.2963C11.8928 12.3244 11.863 12.3467 11.8293 12.3614C11.7956 12.3761 11.7589 12.3828 11.7222 12.3811C11.6462 12.3811 11.588 12.3592 11.548 12.3158C11.5081 12.2724 11.4875 12.2086 11.4866 12.1248V11.6625H11.6762V12.1189C11.6762 12.1923 11.71 12.229 11.7774 12.229C11.8416 12.229 11.8858 12.2069 11.9099 12.1624V11.6617H12.1001V12.3664H11.9217L11.9164 12.2963Z" fill="url(#paint4_linear_1_309)"/>
<path d="M14.0599 12.0942L14.1885 11.4188H14.3849L14.1728 12.3689H13.9746L13.8192 11.7339L13.6637 12.3689H13.4655L13.2536 11.4198H13.4498L13.5789 12.0938L13.7365 11.4188H13.9031L14.0599 12.0942Z" fill="url(#paint5_linear_1_309)"/>
<path d="M14.7853 12.3811C14.6812 12.3811 14.5964 12.3493 14.5311 12.2857C14.4658 12.2222 14.4331 12.1377 14.4329 12.0323V12.0137C14.4318 11.9481 14.446 11.8831 14.4744 11.8238C14.4997 11.77 14.5404 11.7249 14.5914 11.694C14.6438 11.6634 14.7037 11.6478 14.7644 11.6488C14.8615 11.6488 14.9379 11.6792 14.9936 11.74C15.0494 11.8008 15.0773 11.8874 15.0774 11.9996V12.0766H14.6252C14.6296 12.1192 14.6495 12.1588 14.6812 12.1878C14.7134 12.2161 14.7554 12.2311 14.7984 12.2296C14.8312 12.231 14.8639 12.2245 14.8937 12.2108C14.9236 12.1971 14.9496 12.1764 14.9697 12.1506L15.063 12.2542C15.0335 12.295 14.9937 12.3274 14.9475 12.3479C14.8966 12.3706 14.8412 12.382 14.7853 12.3811ZM14.7633 11.8014C14.7462 11.8008 14.7292 11.8039 14.7134 11.8105C14.6976 11.817 14.6834 11.8269 14.6718 11.8394C14.646 11.8702 14.6303 11.9081 14.6269 11.9481H14.8906V11.933C14.8921 11.8975 14.8799 11.8628 14.8564 11.8359C14.8442 11.8239 14.8296 11.8147 14.8136 11.8088C14.7975 11.8028 14.7804 11.8003 14.7633 11.8014Z" fill="url(#paint6_linear_1_309)"/>
<path d="M17.9334 10.8889H16.0641C15.975 10.8889 15.9028 10.9606 15.9028 11.0491V12.9064C15.9028 12.9949 15.975 13.0667 16.0641 13.0667H17.9334C18.0225 13.0667 18.0947 12.9949 18.0947 12.9064V11.0491C18.0947 10.9606 18.0225 10.8889 17.9334 10.8889Z" fill="url(#paint7_linear_1_309)"/>
<path d="M17.0116 11.5772H16.719V12.3689H16.5221V11.5772H16.2333V11.4188H17.0116V11.5772Z" fill="url(#paint8_linear_1_309)"/>
<path d="M17.2962 11.7395C17.3187 11.711 17.3475 11.688 17.3804 11.6724C17.4133 11.6568 17.4494 11.649 17.4858 11.6495C17.6399 11.6495 17.718 11.7384 17.7201 11.9162V12.3689H17.5305V11.9205C17.5331 11.8883 17.5237 11.8563 17.5041 11.8305C17.4866 11.812 17.4575 11.8014 17.417 11.8014C17.3928 11.7997 17.3687 11.8048 17.3473 11.8162C17.3259 11.8275 17.3082 11.8447 17.2962 11.8656V12.3689H17.1066V11.3675H17.2962V11.7395Z" fill="url(#paint9_linear_1_309)"/>
<path d="M19.8536 11.9794H19.4756V12.3689H19.2787V11.4188H19.9008V11.5772H19.4756V11.8224H19.8536V11.9794Z" fill="url(#paint10_linear_1_309)"/>
<path d="M20.3845 11.8392C20.3619 11.836 20.3391 11.8342 20.3162 11.834C20.2445 11.834 20.1975 11.8582 20.1753 11.9064V12.3688H19.9857V11.6642H20.1646L20.1699 11.7484C20.2079 11.6836 20.2607 11.6512 20.3281 11.6512C20.3481 11.651 20.368 11.6539 20.3871 11.6597L20.3845 11.8392Z" fill="url(#paint11_linear_1_309)"/>
<path d="M22.4047 12.1188C22.4056 12.1026 22.4025 12.0863 22.3956 12.0715C22.3888 12.0567 22.3784 12.0438 22.3654 12.0339C22.3215 12.006 22.2737 11.9849 22.2235 11.9712C22.1677 11.9544 22.1135 11.9326 22.0615 11.9063C21.9531 11.8481 21.8989 11.7697 21.8988 11.671C21.8981 11.6218 21.9134 11.5737 21.9424 11.5338C21.9744 11.4913 22.0178 11.4587 22.0677 11.4396C22.1259 11.4163 22.1883 11.4047 22.2511 11.4056C22.3139 11.4046 22.3762 11.4173 22.4335 11.4427C22.4841 11.4649 22.5272 11.501 22.5578 11.5468C22.5876 11.592 22.6031 11.6451 22.6022 11.6992H22.4053C22.4064 11.6803 22.4032 11.6615 22.3961 11.644C22.3889 11.6265 22.378 11.6108 22.3641 11.5979C22.3311 11.5721 22.2897 11.5592 22.2478 11.5618C22.2081 11.5594 22.1688 11.5701 22.1358 11.592C22.1231 11.6011 22.1128 11.6131 22.1059 11.6271C22.0989 11.641 22.0955 11.6564 22.0958 11.6719C22.0962 11.6878 22.1007 11.7033 22.1089 11.7169C22.1171 11.7305 22.1288 11.7417 22.1427 11.7495C22.1857 11.7755 22.2322 11.7952 22.2808 11.8081C22.3928 11.8416 22.4744 11.8831 22.5255 11.9327C22.5506 11.9565 22.5705 11.9854 22.5837 12.0173C22.597 12.0492 22.6033 12.0836 22.6024 12.1181C22.6039 12.1555 22.5962 12.1926 22.58 12.2263C22.5637 12.2601 22.5393 12.2893 22.5091 12.3115C22.4469 12.3582 22.3627 12.3816 22.2565 12.3816C22.1875 12.3826 22.119 12.3688 22.0557 12.3414C22.0001 12.3185 21.9522 12.2805 21.9176 12.2316C21.8855 12.1838 21.8689 12.1274 21.87 12.0699H22.0675C22.0675 12.1747 22.1305 12.2271 22.2565 12.227C22.2951 12.2291 22.3334 12.2193 22.3661 12.1988C22.3788 12.1897 22.3889 12.1777 22.3957 12.1637C22.4024 12.1497 22.4055 12.1343 22.4047 12.1188Z" fill="url(#paint12_linear_1_309)"/>
<path d="M23.1346 12.3688C23.125 12.3489 23.1187 12.3275 23.1159 12.3056C23.0936 12.3306 23.0659 12.3505 23.035 12.3637C23.004 12.3769 22.9705 12.3831 22.9368 12.382C22.8736 12.3842 22.8119 12.3628 22.7639 12.3219C22.7419 12.3034 22.7243 12.2802 22.7124 12.2541C22.7005 12.2279 22.6947 12.1995 22.6953 12.1708C22.6936 12.1374 22.7004 12.1041 22.715 12.074C22.7297 12.0439 22.7517 12.018 22.7791 11.9985C22.8348 11.9587 22.9157 11.9386 23.0217 11.9381H23.109V11.8976C23.1105 11.8693 23.1015 11.8415 23.0837 11.8194C23.0734 11.8089 23.0609 11.8008 23.0472 11.7957C23.0334 11.7906 23.0186 11.7886 23.004 11.7899C22.9771 11.7884 22.9506 11.7966 22.9293 11.8129C22.9202 11.8205 22.9131 11.8301 22.9083 11.841C22.9036 11.8518 22.9015 11.8636 22.9021 11.8754H22.7124C22.7122 11.8345 22.7253 11.7947 22.7498 11.7619C22.7774 11.7254 22.8146 11.6972 22.8573 11.6801C22.9067 11.6597 22.9599 11.6496 23.0135 11.6504C23.1006 11.6504 23.17 11.6723 23.2218 11.7159C23.2735 11.7595 23.2992 11.821 23.2989 11.9002V12.2058C23.2989 12.2728 23.3083 12.3235 23.327 12.3579V12.3688H23.1346ZM22.9778 12.2379C23.0048 12.2381 23.0314 12.2317 23.0553 12.2194C23.0774 12.2083 23.0956 12.1909 23.1077 12.1695V12.0482H23.0368C22.942 12.0482 22.8915 12.0808 22.8853 12.1459V12.1571C22.885 12.168 22.8871 12.1788 22.8914 12.1888C22.8957 12.1988 22.9021 12.2078 22.9103 12.2151C22.9292 12.2306 22.9533 12.2385 22.9778 12.237V12.2379Z" fill="url(#paint13_linear_1_309)"/>
<path d="M25.1881 12.1188C25.189 12.1026 25.1859 12.0863 25.179 12.0715C25.1721 12.0567 25.1618 12.0438 25.1487 12.0339C25.1049 12.006 25.0571 11.9849 25.0069 11.9712C24.9511 11.9544 24.8969 11.9326 24.8449 11.9063C24.7364 11.8481 24.6822 11.7697 24.6822 11.671C24.6815 11.6218 24.6968 11.5737 24.7258 11.5338C24.7579 11.4913 24.8014 11.4587 24.8513 11.4396C24.9095 11.4162 24.9718 11.4047 25.0345 11.4056C25.0973 11.4046 25.1595 11.4173 25.2169 11.4427C25.2675 11.4649 25.3107 11.501 25.3413 11.5468C25.371 11.5921 25.3864 11.6451 25.3856 11.6992H25.1887C25.1897 11.6803 25.1866 11.6615 25.1795 11.644C25.1723 11.6265 25.1614 11.6108 25.1474 11.5979C25.1146 11.5721 25.0732 11.5592 25.0314 11.5618C24.9917 11.5595 24.9524 11.5701 24.9194 11.592C24.9067 11.6011 24.8964 11.6131 24.8895 11.6271C24.8825 11.641 24.8791 11.6564 24.8794 11.6719C24.8798 11.6878 24.8843 11.7033 24.8926 11.7168C24.9008 11.7304 24.9124 11.7417 24.9263 11.7495C24.9693 11.7754 25.0158 11.7952 25.0644 11.8081C25.1764 11.8416 25.258 11.8831 25.3092 11.9327C25.3343 11.9566 25.3541 11.9854 25.3673 12.0173C25.3805 12.0493 25.3869 12.0836 25.386 12.1181C25.3875 12.1555 25.3798 12.1926 25.3635 12.2263C25.3472 12.2601 25.3229 12.2893 25.2926 12.3115C25.2304 12.3582 25.1463 12.3816 25.0401 12.3816C24.9711 12.3826 24.9026 12.3688 24.8393 12.3414C24.7837 12.3185 24.7358 12.2805 24.7012 12.2316C24.6691 12.1838 24.6525 12.1274 24.6536 12.0699H24.8511C24.8511 12.1747 24.9141 12.2271 25.0401 12.227C25.0787 12.2292 25.117 12.2193 25.1497 12.1988C25.1623 12.1897 25.1724 12.1776 25.1791 12.1637C25.1858 12.1497 25.1889 12.1343 25.1881 12.1188Z" fill="url(#paint14_linear_1_309)"/>
<path d="M25.9316 12.2963C25.908 12.3244 25.8782 12.3467 25.8445 12.3614C25.8108 12.3761 25.7741 12.3828 25.7373 12.3811C25.6614 12.3811 25.6031 12.3592 25.5632 12.3158C25.5233 12.2724 25.5027 12.2086 25.5018 12.1248V11.6625H25.6914V12.1189C25.6914 12.193 25.7252 12.2301 25.7926 12.2301C25.8568 12.2301 25.901 12.2079 25.9251 12.1634V11.6627H26.1153V12.3673H25.9369L25.9316 12.2963Z" fill="url(#paint15_linear_1_309)"/>
<path d="M9.32378 9.49843H7.86258V9.21045L8.55221 8.48018C8.6312 8.39775 8.70161 8.3076 8.76237 8.21111C8.80438 8.14561 8.82791 8.0701 8.83049 7.99248C8.83049 7.8984 8.80654 7.82422 8.75864 7.76995C8.71073 7.71568 8.6423 7.68879 8.55333 7.68928C8.45765 7.68928 8.38225 7.72205 8.32713 7.78757C8.27201 7.85309 8.24445 7.93913 8.24445 8.0457H7.8204C7.8192 7.92172 7.85142 7.79968 7.91372 7.69225C7.97559 7.58554 8.06673 7.49852 8.17651 7.44135C8.29513 7.37937 8.42754 7.34806 8.56155 7.3503C8.78116 7.3503 8.95175 7.40266 9.07331 7.50737C9.19488 7.61208 9.25566 7.76 9.25566 7.95112C9.2539 8.06273 9.22577 8.17237 9.17354 8.27119C9.11891 8.37986 9.02522 8.50639 8.89246 8.65079L8.4072 9.15852H9.32359L9.32378 9.49843Z" fill="url(#paint16_linear_1_309)"/>
<path d="M11.0176 8.62292C11.0176 8.91567 10.9566 9.13969 10.8346 9.29496C10.7125 9.45024 10.5339 9.52775 10.2987 9.5275C10.0664 9.5275 9.88872 9.45135 9.76566 9.29904C9.64261 9.14673 9.57965 8.92853 9.57678 8.64444V8.25501C9.57678 7.9593 9.63856 7.73479 9.76212 7.58149C9.88567 7.42819 10.0635 7.35154 10.2957 7.35154C10.5282 7.35154 10.7058 7.42745 10.8288 7.57927C10.9517 7.73108 11.0147 7.94916 11.0176 8.2335V8.62292ZM10.5945 8.19419C10.5945 8.01851 10.5703 7.89062 10.5219 7.81051C10.4735 7.7304 10.3981 7.69034 10.2957 7.69034C10.1962 7.69034 10.1228 7.72842 10.0755 7.80458C10.0282 7.88073 10.0033 7.99991 10.0008 8.1621V8.67763C10.0008 8.85071 10.0245 8.97909 10.0718 9.06279C10.119 9.14648 10.1949 9.18846 10.2995 9.1887C10.4029 9.1887 10.4775 9.14846 10.5234 9.06798C10.5693 8.9875 10.593 8.86387 10.5945 8.6971V8.19419Z" fill="url(#paint17_linear_1_309)"/>
<path d="M11.3413 8.10036C11.34 8.06982 11.3455 8.03939 11.3573 8.01116C11.369 7.98292 11.3868 7.95756 11.4094 7.9368C11.4572 7.89635 11.5179 7.87414 11.5807 7.87414C11.6435 7.87414 11.7042 7.89635 11.7521 7.9368C11.7745 7.95747 11.7922 7.98272 11.804 8.01082C11.8158 8.03892 11.8213 8.0692 11.8202 8.09961C11.8212 8.12965 11.8158 8.15956 11.8042 8.18731C11.7925 8.21505 11.775 8.23998 11.7528 8.26039C11.7045 8.30039 11.6436 8.3223 11.5807 8.3223C11.5178 8.3223 11.4569 8.30039 11.4086 8.26039C11.3865 8.24006 11.3691 8.21526 11.3574 8.18765C11.3458 8.16004 11.3403 8.13027 11.3413 8.10036ZM11.3413 9.2918C11.3401 9.26139 11.3456 9.2311 11.3574 9.203C11.3692 9.17489 11.3869 9.14965 11.4094 9.12899C11.4572 9.08854 11.5179 9.06633 11.5807 9.06633C11.6435 9.06633 11.7042 9.08854 11.7521 9.12899C11.7745 9.14965 11.7923 9.17489 11.804 9.203C11.8158 9.2311 11.8213 9.26139 11.8202 9.2918C11.8212 9.32184 11.8158 9.35175 11.8042 9.3795C11.7925 9.40724 11.775 9.43217 11.7528 9.45258C11.7045 9.49248 11.6436 9.51433 11.5807 9.51433C11.5179 9.51433 11.457 9.49248 11.4086 9.45258C11.3864 9.43217 11.3689 9.40724 11.3573 9.3795C11.3457 9.35175 11.3402 9.32184 11.3413 9.2918Z" fill="url(#paint18_linear_1_309)"/>
<path d="M12.2124 8.45608L12.3354 7.38053H13.5299V7.73101H12.6823L12.6297 8.18626C12.7282 8.1335 12.8384 8.10603 12.9503 8.10634C13.1534 8.10634 13.3125 8.16889 13.4276 8.294C13.5427 8.41911 13.6003 8.59417 13.6004 8.81917C13.6025 8.94685 13.5726 9.07305 13.5133 9.18634C13.457 9.29315 13.3702 9.38103 13.2637 9.43891C13.1553 9.49837 13.0274 9.52817 12.88 9.52829C12.7561 9.52935 12.6335 9.50273 12.5213 9.4504C12.4157 9.40253 12.3253 9.32685 12.26 9.23159C12.1956 9.13636 12.1603 9.02471 12.1583 8.91003H12.5769C12.5858 8.9983 12.6169 9.06691 12.6702 9.11587C12.7235 9.16483 12.793 9.18955 12.8789 9.19005C12.9744 9.19005 13.0481 9.15586 13.0998 9.0875C13.1516 9.01913 13.1772 8.9219 13.1767 8.7958C13.1767 8.67564 13.1469 8.58354 13.0873 8.5195C13.0277 8.45546 12.9433 8.42344 12.8341 8.42344C12.7335 8.42344 12.652 8.44959 12.5896 8.50188L12.5485 8.53897L12.2124 8.45608Z" fill="url(#paint19_linear_1_309)"/>
<path d="M13.9328 8.45608L14.0558 7.38053H15.2503V7.73101H14.4028L14.35 8.18626C14.4486 8.13351 14.5588 8.10604 14.6708 8.10634C14.8738 8.10634 15.0328 8.16889 15.1481 8.294C15.2633 8.41911 15.3209 8.59417 15.3209 8.81917C15.323 8.94685 15.2931 9.07305 15.2337 9.18634C15.1774 9.2932 15.0905 9.38108 14.984 9.43891C14.8757 9.49837 14.7479 9.52817 14.6005 9.52829C14.4765 9.52935 14.3539 9.50273 14.2417 9.4504C14.1361 9.40258 14.0458 9.32689 13.9804 9.23159C13.916 9.13638 13.8806 9.02473 13.8785 8.91003H14.2966C14.3054 8.9983 14.3365 9.06691 14.3899 9.11587C14.4433 9.16483 14.5129 9.18955 14.5986 9.19005C14.6943 9.19005 14.7679 9.15593 14.8198 9.0875C14.8716 9.01907 14.8972 8.92246 14.8972 8.79729C14.8972 8.67712 14.8675 8.58502 14.808 8.52098C14.7485 8.45694 14.6641 8.42492 14.5547 8.42492C14.4542 8.42492 14.3727 8.45107 14.3102 8.50336L14.2692 8.54045L13.9328 8.45608Z" fill="url(#paint20_linear_1_309)"/>
<path d="M27.4983 15.7655H6.43245C6.10177 15.7655 5.83371 16.0319 5.83371 16.3604V23.4051C5.83371 23.7337 6.10177 24 6.43245 24H27.4983C27.829 24 28.0971 23.7337 28.0971 23.4051V16.3604C28.0971 16.0319 27.829 15.7655 27.4983 15.7655Z" fill="url(#paint21_linear_1_309)"/>
<path d="M7.97421 21.4569L8.21964 22.1452L8.46358 21.4569H8.72226V22.4061H8.52461V22.1465L8.5444 21.6987L8.28627 22.4061H8.15115L7.89433 21.6994L7.91393 22.1465V22.4061H7.71702V21.4569H7.97421Z" fill="url(#paint22_linear_1_309)"/>
<path d="M8.85281 22.0467C8.85159 21.9821 8.86552 21.918 8.8935 21.8596C8.91901 21.8067 8.95973 21.7625 9.01052 21.7326C9.06444 21.7018 9.12582 21.6862 9.18801 21.6876C9.231 21.6859 9.27388 21.6928 9.31416 21.7078C9.35445 21.7227 9.39132 21.7456 9.42262 21.7749C9.48334 21.8334 9.51712 21.9125 9.52396 22.0122L9.52527 22.0605C9.52527 22.1688 9.49484 22.2553 9.434 22.3201C9.37316 22.3849 9.2916 22.418 9.18932 22.4197C9.08704 22.4197 9.00535 22.3871 8.94426 22.3219C8.88317 22.2568 8.85268 22.1681 8.85281 22.0558V22.0467ZM9.04243 22.0603C9.04243 22.1273 9.05488 22.1785 9.07976 22.214C9.09252 22.2305 9.10892 22.2438 9.12769 22.253C9.14645 22.2622 9.16709 22.2669 9.18801 22.2669C9.20893 22.2669 9.22957 22.2622 9.24834 22.253C9.2671 22.2438 9.2835 22.2305 9.29626 22.214C9.32202 22.1789 9.3349 22.1229 9.3349 22.046C9.3349 21.9802 9.32202 21.9294 9.29626 21.8932C9.2842 21.8757 9.26787 21.8616 9.24881 21.8521C9.22975 21.8426 9.20857 21.838 9.18726 21.8389C9.1662 21.838 9.14525 21.8425 9.12643 21.8519C9.10761 21.8614 9.09154 21.8755 9.07976 21.8928C9.05488 21.9292 9.04243 21.985 9.04243 22.0603Z" fill="url(#paint23_linear_1_309)"/>
<path d="M11.4342 21.6152H11.1425V22.4061H10.9446V21.6152H10.6559V21.4569H11.4342V21.6152Z" fill="url(#paint24_linear_1_309)"/>
<path d="M11.9164 22.3343C11.8928 22.3624 11.863 22.3847 11.8293 22.3994C11.7956 22.4141 11.7589 22.4208 11.7222 22.4191C11.6462 22.4191 11.588 22.3974 11.548 22.3538C11.5081 22.3102 11.4875 22.2468 11.4866 22.1628V21.7007H11.6762V22.1569C11.6762 22.231 11.71 22.2681 11.7774 22.2681C11.8416 22.2681 11.8858 22.2459 11.9099 22.2016V21.7009H12.1001V22.4055H11.9217L11.9164 22.3343Z" fill="url(#paint25_linear_1_309)"/>
<path d="M14.0599 22.1322L14.1885 21.4569H14.3849L14.1728 22.4061H13.9746L13.8192 21.7706L13.6637 22.4058H13.4655L13.2536 21.4565H13.4498L13.5789 22.1306L13.7365 21.4565H13.9031L14.0599 22.1322Z" fill="url(#paint26_linear_1_309)"/>
<path d="M14.7853 22.4197C14.6812 22.4197 14.5964 22.388 14.5311 22.3245C14.4658 22.2611 14.4331 22.1765 14.4329 22.0708V22.0523C14.4318 21.9866 14.446 21.9216 14.4744 21.8622C14.4997 21.8085 14.5404 21.7633 14.5914 21.7324C14.6437 21.7017 14.7036 21.686 14.7644 21.687C14.8615 21.687 14.9379 21.7175 14.9936 21.7784C15.0494 21.8394 15.0773 21.9259 15.0774 22.038V22.115H14.6252C14.6295 22.1576 14.6494 22.1972 14.6812 22.2262C14.7134 22.2546 14.7554 22.2695 14.7984 22.268C14.8312 22.2694 14.8639 22.263 14.8937 22.2492C14.9236 22.2355 14.9496 22.2148 14.9697 22.189L15.0631 22.2926C15.0336 22.3335 14.9937 22.3658 14.9475 22.3863C14.8966 22.4092 14.8412 22.4206 14.7853 22.4197ZM14.7633 21.8394C14.7463 21.8387 14.7293 21.8417 14.7135 21.8481C14.6977 21.8545 14.6835 21.8642 14.6718 21.8765C14.646 21.9073 14.6303 21.9452 14.6269 21.9852H14.8906V21.9702C14.8921 21.9346 14.8799 21.8999 14.8564 21.873C14.8442 21.8612 14.8295 21.8521 14.8135 21.8464C14.7974 21.8406 14.7803 21.8382 14.7633 21.8394Z" fill="url(#paint27_linear_1_309)"/>
<path d="M20.6758 20.9269H18.8064C18.7173 20.9269 18.6451 20.9986 18.6451 21.0871V22.9445C18.6451 23.0329 18.7173 23.1047 18.8064 23.1047H20.6758C20.7648 23.1047 20.837 23.0329 20.837 22.9445V21.0871C20.837 20.9986 20.7648 20.9269 20.6758 20.9269Z" fill="url(#paint28_linear_1_309)"/>
<path d="M17.0116 21.6152H16.719V22.4061H16.5221V21.6152H16.2333V21.4569H17.0116V21.6152Z" fill="url(#paint29_linear_1_309)"/>
<path d="M17.2962 21.7775C17.3187 21.749 17.3475 21.7261 17.3804 21.7105C17.4133 21.6949 17.4494 21.687 17.4858 21.6876C17.6399 21.6876 17.718 21.7765 17.7201 21.9542V22.4061H17.5305V21.9585C17.5331 21.9263 17.5237 21.8943 17.5041 21.8686C17.4866 21.85 17.4575 21.8394 17.417 21.8394C17.3928 21.8378 17.3687 21.8429 17.3473 21.8543C17.326 21.8656 17.3083 21.8827 17.2962 21.9036V22.4061H17.1066V21.4048H17.2962V21.7775Z" fill="url(#paint30_linear_1_309)"/>
<path d="M19.8536 22.0182H19.4756V22.4061H19.2787V21.4569H19.9008V21.6152H19.4756V21.8604H19.8536V22.0182Z" fill="url(#paint31_linear_1_309)"/>
<path d="M20.3845 21.8773C20.3619 21.8741 20.339 21.8724 20.3162 21.8721C20.2445 21.8721 20.1975 21.8962 20.1753 21.9444V22.4061H19.9857V21.7015H20.1646L20.1699 21.7855C20.2079 21.7208 20.2607 21.6884 20.3281 21.6883C20.3481 21.6882 20.368 21.6911 20.3871 21.6968L20.3845 21.8773Z" fill="url(#paint32_linear_1_309)"/>
<path d="M22.4047 22.1571C22.4056 22.1408 22.4025 22.1245 22.3956 22.1097C22.3888 22.0948 22.3784 22.0819 22.3653 22.0719C22.3215 22.0441 22.2737 22.023 22.2235 22.0093C22.1677 21.9924 22.1135 21.9707 22.0615 21.9444C21.9531 21.8861 21.8989 21.8077 21.8987 21.709C21.8981 21.6598 21.9134 21.6117 21.9424 21.5718C21.9745 21.5294 22.0179 21.4968 22.0677 21.4776C22.1259 21.4543 22.1883 21.4427 22.2511 21.4437C22.3139 21.4426 22.3761 21.4553 22.4335 21.4808C22.484 21.503 22.5271 21.5391 22.5578 21.5848C22.5876 21.6301 22.6031 21.6833 22.6022 21.7374H22.4053C22.4063 21.7185 22.4032 21.6996 22.3961 21.6821C22.3889 21.6646 22.378 21.6488 22.364 21.636C22.3312 21.6097 22.2898 21.5965 22.2478 21.5989C22.2081 21.5965 22.1688 21.6072 22.1358 21.6291C22.1231 21.6382 22.1128 21.6502 22.1059 21.6642C22.0989 21.6781 22.0955 21.6935 22.0958 21.709C22.0962 21.7249 22.1007 21.7404 22.1089 21.754C22.1171 21.7676 22.1288 21.7788 22.1427 21.7865C22.1857 21.8126 22.2322 21.8323 22.2808 21.8453C22.3928 21.8787 22.4743 21.9202 22.5255 21.9698C22.5506 21.9936 22.5704 22.0225 22.5837 22.0544C22.5969 22.0863 22.6033 22.1207 22.6024 22.1552C22.6039 22.1925 22.5962 22.2297 22.5799 22.2634C22.5637 22.2971 22.5393 22.3263 22.509 22.3484C22.4468 22.3952 22.3627 22.4185 22.2565 22.4185C22.1875 22.4194 22.119 22.4058 22.0557 22.3785C22.0001 22.3556 21.9522 22.3174 21.9176 22.2685C21.8855 22.2207 21.8689 22.1643 21.87 22.1068H22.0675C22.0675 22.2115 22.1305 22.2639 22.2565 22.2641C22.2951 22.2663 22.3335 22.2563 22.3661 22.2357C22.3785 22.2267 22.3886 22.2149 22.3953 22.2012C22.4021 22.1875 22.4053 22.1723 22.4047 22.1571Z" fill="url(#paint33_linear_1_309)"/>
<path d="M23.1342 22.4061C23.1247 22.3861 23.1184 22.3648 23.1156 22.3428C23.0932 22.3678 23.0655 22.3876 23.0345 22.4008C23.0036 22.414 22.9701 22.4202 22.9364 22.4191C22.8732 22.4213 22.8115 22.3998 22.7636 22.359C22.7415 22.3405 22.7239 22.3173 22.712 22.2911C22.7001 22.265 22.6943 22.2365 22.6949 22.2079C22.6932 22.1745 22.7 22.1412 22.7146 22.1112C22.7293 22.0811 22.7513 22.0552 22.7787 22.0358C22.8344 21.9957 22.9153 21.9755 23.0213 21.9751H23.1087V21.9347C23.1102 21.9064 23.1011 21.8786 23.0833 21.8565C23.073 21.846 23.0606 21.8379 23.0468 21.8329C23.033 21.8278 23.0182 21.8258 23.0036 21.8272C22.9768 21.8256 22.9503 21.8337 22.9289 21.85C22.9199 21.8576 22.9127 21.8672 22.908 21.8781C22.9032 21.8889 22.9011 21.9007 22.9017 21.9125H22.7121C22.7119 21.8717 22.725 21.8319 22.7494 21.7992C22.777 21.7626 22.8142 21.7342 22.8569 21.7172C22.9064 21.6969 22.9595 21.6868 23.0131 21.6875C23.1002 21.6875 23.1696 21.7094 23.2214 21.7532C23.2731 21.7969 23.2988 21.8583 23.2985 21.9373V22.2431C23.2985 22.31 23.3079 22.3606 23.3267 22.395V22.4061H23.1342ZM22.9775 22.275C23.0044 22.2753 23.031 22.2689 23.0549 22.2564C23.077 22.2454 23.0953 22.228 23.1074 22.2066V22.0858H23.0364C22.9416 22.0858 22.8911 22.1184 22.8849 22.1836V22.1947C22.8846 22.2056 22.8867 22.2164 22.891 22.2264C22.8953 22.2365 22.9018 22.2454 22.9099 22.2527C22.9288 22.2684 22.9529 22.2763 22.9775 22.275Z" fill="url(#paint34_linear_1_309)"/>
<path d="M25.1881 22.1571C25.189 22.1408 25.1859 22.1245 25.179 22.1097C25.1722 22.0948 25.1618 22.0819 25.1487 22.0719C25.1049 22.0441 25.0571 22.023 25.0069 22.0093C24.9511 21.9924 24.8969 21.9707 24.8449 21.9444C24.7364 21.8861 24.6822 21.8077 24.6822 21.709C24.6815 21.6598 24.6968 21.6117 24.7258 21.5718C24.758 21.5294 24.8014 21.4968 24.8513 21.4776C24.9095 21.4543 24.9718 21.4427 25.0345 21.4437C25.0973 21.4426 25.1596 21.4553 25.2169 21.4808C25.2674 21.503 25.3106 21.5391 25.3414 21.5848C25.3711 21.6302 25.3865 21.6833 25.3856 21.7374H25.1887C25.1898 21.7185 25.1866 21.6996 25.1795 21.6821C25.1724 21.6646 25.1614 21.6488 25.1474 21.636C25.1147 21.6098 25.0733 21.5966 25.0314 21.5989C24.9917 21.5965 24.9524 21.6072 24.9194 21.6291C24.9067 21.6382 24.8964 21.6502 24.8895 21.6642C24.8825 21.6781 24.8791 21.6935 24.8794 21.709C24.8798 21.7249 24.8844 21.7403 24.8926 21.7539C24.9008 21.7675 24.9124 21.7788 24.9263 21.7865C24.9693 21.8125 25.0158 21.8323 25.0644 21.8453C25.1764 21.8787 25.258 21.9202 25.3093 21.9698C25.3343 21.9937 25.3541 22.0225 25.3673 22.0544C25.3805 22.0864 25.3869 22.1207 25.386 22.1552C25.3875 22.1925 25.3798 22.2297 25.3635 22.2634C25.3473 22.2971 25.3229 22.3263 25.2926 22.3484C25.2304 22.3952 25.1463 22.4185 25.0401 22.4185C24.9711 22.4194 24.9026 22.4058 24.8393 22.3785C24.7837 22.3556 24.7358 22.3174 24.7012 22.2685C24.6691 22.2207 24.6525 22.1643 24.6536 22.1068H24.8511C24.8511 22.2115 24.9141 22.2639 25.0401 22.2641C25.0787 22.2663 25.1171 22.2564 25.1497 22.2357C25.1621 22.2267 25.1721 22.2149 25.1788 22.2012C25.1855 22.1874 25.1887 22.1723 25.1881 22.1571Z" fill="url(#paint35_linear_1_309)"/>
<path d="M25.9316 22.3343C25.8848 22.3908 25.8201 22.4191 25.7373 22.4191C25.6614 22.4191 25.6031 22.3974 25.5632 22.3538C25.5233 22.3102 25.5027 22.2468 25.5018 22.1628V21.7007H25.6914V22.1569C25.6914 22.231 25.7252 22.2681 25.7926 22.2681C25.8568 22.2681 25.901 22.2459 25.9251 22.2016V21.7009H26.1153V22.4055H25.9369L25.9316 22.3343Z" fill="url(#paint36_linear_1_309)"/>
<path d="M9.32378 19.5364H7.86258V19.2486L8.55221 18.5184C8.6312 18.436 8.70161 18.3458 8.76237 18.2493C8.80434 18.1839 8.82787 18.1086 8.83049 18.0311C8.83049 17.937 8.80654 17.8628 8.75864 17.8085C8.71073 17.7543 8.6423 17.7273 8.55333 17.7277C8.45765 17.7277 8.38225 17.7604 8.32713 17.826C8.27201 17.8915 8.24445 17.9775 8.24445 18.0841H7.8204C7.8192 17.9601 7.85142 17.8381 7.91372 17.7306C7.97567 17.624 8.06679 17.537 8.17651 17.4797C8.29515 17.4178 8.42756 17.3866 8.56155 17.3889C8.78116 17.3889 8.95175 17.4412 9.07331 17.546C9.19488 17.6507 9.25566 17.7985 9.25566 17.9895C9.25392 18.1011 9.22579 18.2108 9.17354 18.3096C9.11891 18.4183 9.02522 18.5448 8.89246 18.6894L8.4072 19.1971H9.32359L9.32378 19.5364Z" fill="url(#paint37_linear_1_309)"/>
<path d="M10.0129 18.2912H10.2383C10.3458 18.2912 10.4254 18.2646 10.4771 18.2113C10.5287 18.158 10.5546 18.0872 10.5547 17.9988C10.5547 17.9135 10.5291 17.8471 10.4778 17.7996C10.4265 17.7522 10.356 17.7283 10.2661 17.7281C10.1926 17.7256 10.1205 17.749 10.0627 17.7943C10.0364 17.8146 10.0153 17.8408 10.0011 17.8708C9.98685 17.9008 9.97989 17.9336 9.98078 17.9667H9.55748C9.55625 17.861 9.58771 17.7574 9.64762 17.67C9.71075 17.5796 9.79791 17.5083 9.8994 17.4642C10.0113 17.4138 10.133 17.3885 10.2559 17.39C10.4815 17.39 10.6582 17.4435 10.7859 17.5506C10.9137 17.6577 10.9777 17.8053 10.9778 17.9936C10.9779 18.0901 10.9466 18.1841 10.8884 18.2614C10.8283 18.3433 10.7475 18.408 10.6542 18.4489C10.7744 18.4916 10.864 18.5557 10.9229 18.641C10.9831 18.7304 11.014 18.8361 11.0114 18.9436C11.0114 19.1316 10.9423 19.2824 10.8042 19.3959C10.6661 19.5094 10.4833 19.5661 10.2559 19.5661C10.0431 19.5661 9.86892 19.5105 9.73329 19.3992C9.59767 19.288 9.53004 19.1406 9.53041 18.957H9.95353C9.95256 18.9942 9.96019 19.0311 9.97581 19.0649C9.99144 19.0987 10.0147 19.1285 10.0437 19.152C10.1059 19.2031 10.1847 19.2299 10.2654 19.2275C10.3659 19.2275 10.4448 19.2011 10.5019 19.1483C10.5305 19.1214 10.5529 19.0887 10.5677 19.0524C10.5824 19.0162 10.5892 18.9772 10.5875 18.9381C10.5875 18.7266 10.4704 18.6209 10.2361 18.6209H10.0121L10.0129 18.2912Z" fill="url(#paint38_linear_1_309)"/>
<path d="M11.3412 18.1386C11.3401 18.1081 11.3456 18.0778 11.3574 18.0497C11.3692 18.0216 11.3869 17.9963 11.4093 17.9756C11.4572 17.9352 11.5179 17.9131 11.5807 17.9131C11.6434 17.9131 11.7042 17.9352 11.752 17.9756C11.7745 17.9963 11.7922 18.0216 11.804 18.0497C11.8157 18.0778 11.8212 18.1081 11.8201 18.1386C11.8212 18.1686 11.8157 18.1985 11.8041 18.2262C11.7924 18.2539 11.7749 18.2788 11.7528 18.2992C11.7045 18.3392 11.6436 18.3611 11.5807 18.3611C11.5178 18.3611 11.4569 18.3392 11.4086 18.2992C11.3864 18.2788 11.3689 18.2539 11.3573 18.2262C11.3457 18.1985 11.3402 18.1686 11.3412 18.1386ZM11.3412 19.3298C11.3401 19.2994 11.3457 19.2691 11.3574 19.2411C11.3692 19.213 11.3869 19.1877 11.4093 19.167C11.4572 19.1267 11.5179 19.1045 11.5807 19.1045C11.6434 19.1045 11.7042 19.1267 11.752 19.167C11.7745 19.1877 11.7922 19.213 11.8039 19.2411C11.8157 19.2691 11.8212 19.2994 11.8201 19.3298C11.8212 19.3599 11.8157 19.3898 11.8041 19.4175C11.7925 19.4453 11.775 19.4702 11.7528 19.4906C11.7045 19.5306 11.6436 19.5525 11.5807 19.5525C11.5178 19.5525 11.4569 19.5306 11.4086 19.4906C11.3864 19.4702 11.3689 19.4453 11.3573 19.4175C11.3456 19.3898 11.3402 19.3599 11.3412 19.3298Z" fill="url(#paint39_linear_1_309)"/>
<path d="M13.4007 18.7393H13.6434V19.0782H13.4007V19.5365H12.9782V19.0782H12.1042L12.0855 18.8134L12.9741 17.4184H13.4007V18.7393ZM12.5062 18.7393H12.9776V17.9916L12.9498 18.0396L12.5062 18.7393Z" fill="url(#paint40_linear_1_309)"/>
<path d="M13.9328 18.495L14.0558 17.4184H15.2503V17.769H14.4028L14.35 18.2243C14.4486 18.1715 14.5588 18.1441 14.6708 18.1444C14.8738 18.1444 15.0328 18.2069 15.1481 18.332C15.2633 18.4571 15.3209 18.6322 15.3209 18.8572C15.323 18.9849 15.2931 19.1112 15.2337 19.2245C15.1773 19.331 15.0904 19.4186 14.984 19.4762C14.8757 19.5359 14.7479 19.5657 14.6005 19.5656C14.4765 19.5666 14.354 19.5401 14.2417 19.4879C14.1362 19.4399 14.0458 19.3642 13.9804 19.2689C13.916 19.1737 13.8806 19.062 13.8785 18.9473H14.2966C14.3054 19.0356 14.3365 19.1042 14.3899 19.1532C14.4433 19.2021 14.5129 19.2268 14.5986 19.2273C14.6943 19.2273 14.7679 19.1932 14.8198 19.1248C14.8716 19.0564 14.8972 18.9597 14.8972 18.8346C14.8972 18.7144 14.8675 18.6223 14.808 18.5583C14.7485 18.4942 14.6641 18.4622 14.5547 18.4622C14.4542 18.4622 14.3727 18.4884 14.3102 18.5408L14.2692 18.5779L13.9328 18.495Z" fill="url(#paint41_linear_1_309)"/>
<path d="M27.4509 0H25.6599C25.3033 0 25.0142 0.287263 25.0142 0.641621V2.4211C25.0142 2.77546 25.3033 3.06272 25.6599 3.06272H27.4509C27.8076 3.06272 28.0967 2.77546 28.0967 2.4211V0.641621C28.0967 0.287263 27.8076 0 27.4509 0Z" fill="url(#paint42_linear_1_309)"/>
<path d="M22.7372 0H20.9462C20.5895 0 20.3004 0.287263 20.3004 0.641621V2.4211C20.3004 2.77546 20.5895 3.06272 20.9462 3.06272H22.7372C23.0938 3.06272 23.3829 2.77546 23.3829 2.4211V0.641621C23.3829 0.287263 23.0938 0 22.7372 0Z" fill="url(#paint43_linear_1_309)"/>
<path d="M21.7674 2.3725C21.5999 2.37254 21.4362 2.32324 21.297 2.23083C21.1577 2.13843 21.0492 2.00707 20.9851 1.85337C20.921 1.69968 20.9042 1.53054 20.9368 1.36736C20.9695 1.20418 21.0501 1.05429 21.1685 0.93663C21.2869 0.818974 21.4377 0.738844 21.602 0.706372C21.7662 0.673901 21.9364 0.690548 22.0911 0.754208C22.2458 0.817867 22.3781 0.92568 22.4711 1.06401C22.5641 1.20234 22.6138 1.36498 22.6138 1.53135C22.6135 1.75433 22.5243 1.96811 22.3656 2.1258C22.2069 2.28349 21.9918 2.37221 21.7674 2.3725ZM21.7674 0.99747C21.6611 0.997433 21.5572 1.02871 21.4688 1.08735C21.3804 1.146 21.3115 1.22936 21.2708 1.32691C21.2301 1.42447 21.2194 1.53182 21.2402 1.63539C21.2609 1.73897 21.312 1.83411 21.3872 1.9088C21.4623 1.98348 21.5581 2.03434 21.6623 2.05496C21.7665 2.07557 21.8746 2.06501 21.9728 2.02461C22.071 1.98421 22.1549 1.91578 22.214 1.82798C22.273 1.74018 22.3045 1.63695 22.3045 1.53135C22.3044 1.38983 22.2477 1.25415 22.147 1.15407C22.0464 1.05398 21.9098 0.997666 21.7674 0.99747Z" fill="url(#paint44_linear_1_309)"/>
<path d="M26.7627 1.53138L27.2618 1.0357C27.2754 1.02216 27.2862 1.00608 27.2936 0.988393C27.301 0.970702 27.3048 0.951741 27.3048 0.932593C27.3048 0.913445 27.301 0.894484 27.2936 0.876793C27.2862 0.859103 27.2754 0.843028 27.2618 0.829489C27.2481 0.815949 27.232 0.805208 27.2142 0.797881C27.1964 0.790553 27.1773 0.786781 27.158 0.786781C27.1387 0.786781 27.1196 0.790553 27.1018 0.797881C27.084 0.805208 27.0679 0.815949 27.0542 0.829489L26.5553 1.32535L26.0565 0.829489C26.0431 0.814994 26.0269 0.803345 26.0088 0.795244C25.9908 0.787142 25.9712 0.782757 25.9514 0.782352C25.9316 0.781946 25.912 0.785529 25.8936 0.792885C25.8752 0.800241 25.8585 0.811217 25.8445 0.825151C25.8306 0.839085 25.8196 0.855689 25.8122 0.873962C25.8049 0.892235 25.8013 0.911798 25.8018 0.931472C25.8022 0.951146 25.8067 0.970524 25.8149 0.988436C25.8231 1.00635 25.8349 1.02243 25.8495 1.0357L26.3484 1.53138L25.8495 2.02706C25.8234 2.05466 25.8092 2.09126 25.8098 2.1291C25.8104 2.16694 25.8258 2.20307 25.8528 2.22983C25.8797 2.25659 25.916 2.27189 25.9541 2.2725C25.9922 2.27311 26.0291 2.25897 26.0568 2.23308L26.5557 1.7374L27.0546 2.23308C27.0682 2.24687 27.0843 2.25786 27.1022 2.2654C27.1201 2.27293 27.1392 2.27688 27.1586 2.27699C27.1781 2.27711 27.1973 2.2734 27.2152 2.26608C27.2332 2.25876 27.2495 2.24798 27.2632 2.23435C27.277 2.22072 27.2878 2.20453 27.2952 2.1867C27.3026 2.16887 27.3063 2.14976 27.3062 2.13048C27.3061 2.1112 27.3022 2.09213 27.2946 2.07438C27.2871 2.05662 27.276 2.04054 27.2621 2.02706L26.7627 1.53138Z" fill="url(#paint45_linear_1_309)"/>
<path d="M8.0048 10.795H0.588476C0.432402 10.795 0.282721 10.8566 0.172361 10.9663C0.062 11.0759 0 11.2246 0 11.3797L0 14.8845C0 15.0396 0.062 15.1883 0.172361 15.2979C0.282721 15.4076 0.432402 15.4692 0.588476 15.4692H3.8502C4.01245 15.4692 4.1709 15.518 4.30466 15.6092L6.46278 17.0801C6.50441 17.1085 6.55307 17.1251 6.6035 17.1281C6.65393 17.131 6.7042 17.1202 6.7489 17.0968C6.79359 17.0734 6.831 17.0383 6.85709 16.9954C6.88318 16.9524 6.89694 16.9031 6.89691 16.853V15.6647C6.89691 15.639 6.902 15.6135 6.9119 15.5898C6.9218 15.5661 6.9363 15.5445 6.95459 15.5264C6.97288 15.5082 6.99459 15.4938 7.01847 15.484C7.04236 15.4742 7.06796 15.4692 7.09381 15.4692H8.0048C8.16088 15.4692 8.31056 15.4076 8.42092 15.2979C8.53128 15.1883 8.59328 15.0396 8.59328 14.8845V11.3797C8.59328 11.3029 8.57806 11.2269 8.54848 11.1559C8.51891 11.085 8.47556 11.0205 8.42092 10.9663C8.36627 10.912 8.3014 10.8689 8.23 10.8395C8.1586 10.8101 8.08208 10.795 8.0048 10.795Z" fill="url(#paint46_linear_1_309)"/>
<path d="M1.8698 13.7919C2.28469 13.7919 2.62102 13.4577 2.62102 13.0455C2.62102 12.6333 2.28469 12.2991 1.8698 12.2991C1.45491 12.2991 1.11857 12.6333 1.11857 13.0455C1.11857 13.4577 1.45491 13.7919 1.8698 13.7919Z" fill="url(#paint47_linear_1_309)"/>
<path d="M4.29686 13.7919C4.71175 13.7919 5.04808 13.4577 5.04808 13.0455C5.04808 12.6333 4.71175 12.2991 4.29686 12.2991C3.88197 12.2991 3.54563 12.6333 3.54563 13.0455C3.54563 13.4577 3.88197 13.7919 4.29686 13.7919Z" fill="url(#paint48_linear_1_309)"/>
<path d="M6.72355 13.7919C7.13844 13.7919 7.47478 13.4577 7.47478 13.0455C7.47478 12.6333 7.13844 12.2991 6.72355 12.2991C6.30866 12.2991 5.97232 12.6333 5.97232 13.0455C5.97232 13.4577 6.30866 13.7919 6.72355 13.7919Z" fill="url(#paint49_linear_1_309)"/>
<path d="M27.0945 24C30.6126 24 33.4645 21.1664 33.4645 17.6709C33.4645 14.1755 30.6126 11.3419 27.0945 11.3419C23.5764 11.3419 20.7245 14.1755 20.7245 17.6709C20.7245 21.1664 23.5764 24 27.0945 24Z" fill="url(#paint50_linear_1_309)"/>
<path d="M27.0945 22.7928C29.9415 22.7928 32.2495 20.4996 32.2495 17.6709C32.2495 14.8422 29.9415 12.5491 27.0945 12.5491C24.2475 12.5491 21.9395 14.8422 21.9395 17.6709C21.9395 20.4996 24.2475 22.7928 27.0945 22.7928Z" fill="url(#paint51_linear_1_309)"/>
<path d="M25.5304 19.8753C25.5006 19.8753 25.4713 19.867 25.446 19.8514C25.4206 19.8357 25.4001 19.8134 25.3869 19.7868C25.3736 19.7602 25.3681 19.7305 25.3709 19.701C25.3738 19.6715 25.3849 19.6433 25.403 19.6197L26.9345 17.617V13.4835C26.936 13.4422 26.9535 13.4031 26.9833 13.3744C27.0132 13.3457 27.0532 13.3297 27.0948 13.3297C27.1363 13.3297 27.1763 13.3457 27.2062 13.3744C27.2361 13.4031 27.2536 13.4422 27.255 13.4835V17.6709C27.255 17.7058 27.2436 17.7396 27.2223 17.7674L25.6581 19.8124C25.6431 19.8319 25.6238 19.8478 25.6017 19.8587C25.5795 19.8696 25.5552 19.8753 25.5304 19.8753Z" fill="url(#paint52_linear_1_309)"/>
<path d="M27.095 18.2986C27.4439 18.2986 27.7268 18.0176 27.7268 17.6709C27.7268 17.3242 27.4439 17.0432 27.095 17.0432C26.7461 17.0432 26.4632 17.3242 26.4632 17.6709C26.4632 18.0176 26.7461 18.2986 27.095 18.2986Z" fill="url(#paint53_linear_1_309)"/>
<path d="M16.9019 0.363258H3.43953C2.98763 0.363258 2.6213 0.727236 2.6213 1.17622V2.24973C2.6213 2.69872 2.98763 3.0627 3.43953 3.0627H16.9019C17.3537 3.0627 17.7201 2.69872 17.7201 2.24973V1.17622C17.7201 0.727236 17.3537 0.363258 16.9019 0.363258Z" fill="url(#paint54_linear_1_309)"/>
<path d="M5.08682 0.363258H3.43972C3.33225 0.363233 3.22583 0.384243 3.12654 0.425088C3.02724 0.465933 2.93702 0.525811 2.86102 0.601305C2.78502 0.676798 2.72473 0.766427 2.6836 0.865073C2.64247 0.963719 2.6213 1.06945 2.6213 1.17622V2.24973C2.6213 2.35651 2.64247 2.46224 2.6836 2.56089C2.72473 2.65953 2.78502 2.74916 2.86102 2.82465C2.93702 2.90015 3.02724 2.96003 3.12654 3.00087C3.22583 3.04172 3.33225 3.06273 3.43972 3.0627H5.08682V0.363258Z" fill="url(#paint55_linear_1_309)"/>
<path d="M3.99653 2.13869C3.88434 2.13872 3.77466 2.10569 3.68137 2.04377C3.58808 1.98184 3.51538 1.89382 3.47246 1.79082C3.42954 1.68783 3.41834 1.5745 3.44028 1.46519C3.46221 1.35587 3.51629 1.25547 3.59567 1.1767C3.67506 1.09793 3.77618 1.04433 3.88623 1.02268C3.99629 1.00103 4.11034 1.01231 4.21394 1.05509C4.31754 1.09786 4.40604 1.17022 4.46824 1.26299C4.53044 1.35576 4.56354 1.46478 4.56336 1.57625C4.56296 1.72542 4.5031 1.86837 4.39686 1.97378C4.29062 2.07919 4.14668 2.13849 3.99653 2.13869ZM3.99653 1.12322C3.90657 1.12318 3.81861 1.14964 3.74378 1.19926C3.66895 1.24887 3.6106 1.31941 3.5761 1.40197C3.5416 1.48452 3.53251 1.57538 3.54997 1.66307C3.56743 1.75075 3.61066 1.83133 3.6742 1.89461C3.73774 1.95789 3.81873 2.00104 3.90694 2.01861C3.99515 2.03617 4.08662 2.02736 4.16979 1.99329C4.25296 1.95922 4.3241 1.90142 4.37422 1.82719C4.42434 1.75296 4.45119 1.66563 4.45138 1.57625C4.45147 1.45626 4.40362 1.34114 4.31833 1.25619C4.23304 1.17124 4.1173 1.12341 3.99653 1.12322Z" fill="url(#paint56_linear_1_309)"/>
<path d="M3.5942 1.88869L3.1447 2.33531L3.22388 2.41398L3.67338 1.96736L3.5942 1.88869Z" fill="url(#paint57_linear_1_309)"/>
<defs>
<linearGradient id="paint0_linear_1_309" x1="5.83371" y1="9.84459" x2="28.0971" y2="9.84459" gradientUnits="userSpaceOnUse">
<stop stop-color="#3B6ECC"/>
<stop offset="0.09" stop-color="#3460B8"/>
<stop offset="0.16" stop-color="#3058AD"/>
<stop offset="0.82" stop-color="#3058AD"/>
<stop offset="0.89" stop-color="#2852A5"/>
<stop offset="1" stop-color="#133F8E"/>
</linearGradient>
<linearGradient id="paint1_linear_1_309" x1="7.71702" y1="11.8934" x2="8.72226" y2="11.8934" gradientUnits="userSpaceOnUse">
<stop stop-color="#FDFEFF"/>
<stop offset="0.16" stop-color="#F2F6FE"/>
<stop offset="0.82" stop-color="#F2F6FE"/>
<stop offset="0.89" stop-color="#EAF0FB"/>
<stop offset="0.99" stop-color="#D4DFF1"/>
<stop offset="1" stop-color="#D1DDF0"/>
</linearGradient>
<linearGradient id="paint2_linear_1_309" x1="327.848" y1="485.197" x2="352.08" y2="485.197" gradientUnits="userSpaceOnUse">
<stop stop-color="#FDFEFF"/>
<stop offset="0.16" stop-color="#F2F6FE"/>
<stop offset="0.82" stop-color="#F2F6FE"/>
<stop offset="0.89" stop-color="#EAF0FB"/>
<stop offset="0.99" stop-color="#D4DFF1"/>
<stop offset="1" stop-color="#D1DDF0"/>
</linearGradient>
<linearGradient id="paint3_linear_1_309" x1="455.005" y1="620.715" x2="487.459" y2="620.715" gradientUnits="userSpaceOnUse">
<stop stop-color="#FDFEFF"/>
<stop offset="0.16" stop-color="#F2F6FE"/>
<stop offset="0.82" stop-color="#F2F6FE"/>
<stop offset="0.89" stop-color="#EAF0FB"/>
<stop offset="0.99" stop-color="#D4DFF1"/>
<stop offset="1" stop-color="#D1DDF0"/>
</linearGradient>
<linearGradient id="paint4_linear_1_309" x1="389.05" y1="478.172" x2="409.215" y2="478.172" gradientUnits="userSpaceOnUse">
<stop stop-color="#FDFEFF"/>
<stop offset="0.16" stop-color="#F2F6FE"/>
<stop offset="0.82" stop-color="#F2F6FE"/>
<stop offset="0.89" stop-color="#EAF0FB"/>
<stop offset="0.99" stop-color="#D4DFF1"/>
<stop offset="1" stop-color="#D1DDF0"/>
</linearGradient>
<linearGradient id="paint5_linear_1_309" x1="816.57" y1="620.715" x2="885.133" y2="620.715" gradientUnits="userSpaceOnUse">
<stop stop-color="#FDFEFF"/>
<stop offset="0.16" stop-color="#F2F6FE"/>
<stop offset="0.82" stop-color="#F2F6FE"/>
<stop offset="0.89" stop-color="#EAF0FB"/>
<stop offset="0.99" stop-color="#D4DFF1"/>
<stop offset="1" stop-color="#D1DDF0"/>
</linearGradient>
<linearGradient id="paint6_linear_1_309" x1="512.849" y1="486.181" x2="535.105" y2="486.181" gradientUnits="userSpaceOnUse">
<stop stop-color="#FDFEFF"/>
<stop offset="0.16" stop-color="#F2F6FE"/>
<stop offset="0.82" stop-color="#F2F6FE"/>
<stop offset="0.89" stop-color="#EAF0FB"/>
<stop offset="0.99" stop-color="#D4DFF1"/>
<stop offset="1" stop-color="#D1DDF0"/>
</linearGradient>
<linearGradient id="paint7_linear_1_309" x1="1883.49" y1="1417.55" x2="2140.91" y2="1417.55" gradientUnits="userSpaceOnUse">
<stop stop-color="#FDFEFF"/>
<stop offset="0.16" stop-color="#F2F6FE"/>
<stop offset="0.82" stop-color="#F2F6FE"/>
<stop offset="0.89" stop-color="#EAF0FB"/>
<stop offset="0.99" stop-color="#D4DFF1"/>
<stop offset="1" stop-color="#D1DDF0"/>
</linearGradient>
<linearGradient id="paint8_linear_1_309" x1="693.158" y1="620.715" x2="725.612" y2="620.715" gradientUnits="userSpaceOnUse">
<stop stop-color="#3B6ECC"/>
<stop offset="0.09" stop-color="#3460B8"/>
<stop offset="0.16" stop-color="#3058AD"/>
<stop offset="0.82" stop-color="#3058AD"/>
<stop offset="0.89" stop-color="#2852A5"/>
<stop offset="1" stop-color="#133F8E"/>
</linearGradient>
<linearGradient id="paint9_linear_1_309" x1="579.402" y1="652.197" x2="599.568" y2="652.197" gradientUnits="userSpaceOnUse">
<stop stop-color="#3B6ECC"/>
<stop offset="0.09" stop-color="#3460B8"/>
<stop offset="0.16" stop-color="#3058AD"/>
<stop offset="0.82" stop-color="#3058AD"/>
<stop offset="0.89" stop-color="#2852A5"/>
<stop offset="1" stop-color="#133F8E"/>
</linearGradient>
<linearGradient id="paint10_linear_1_309" x1="661.835" y1="620.715" x2="682.569" y2="620.715" gradientUnits="userSpaceOnUse">
<stop stop-color="#FDFEFF"/>
<stop offset="0.16" stop-color="#F2F6FE"/>
<stop offset="0.82" stop-color="#F2F6FE"/>
<stop offset="0.89" stop-color="#EAF0FB"/>
<stop offset="0.99" stop-color="#D4DFF1"/>
<stop offset="1" stop-color="#D1DDF0"/>
</linearGradient>
<linearGradient id="paint11_linear_1_309" x1="449.871" y1="476.388" x2="458.507" y2="476.388" gradientUnits="userSpaceOnUse">
<stop stop-color="#FDFEFF"/>
<stop offset="0.16" stop-color="#F2F6FE"/>
<stop offset="0.82" stop-color="#F2F6FE"/>
<stop offset="0.89" stop-color="#EAF0FB"/>
<stop offset="0.99" stop-color="#D4DFF1"/>
<stop offset="1" stop-color="#D1DDF0"/>
</linearGradient>
<linearGradient id="paint12_linear_1_309" x1="880.324" y1="637.418" x2="909.095" y2="637.418" gradientUnits="userSpaceOnUse">
<stop stop-color="#FDFEFF"/>
<stop offset="0.16" stop-color="#F2F6FE"/>
<stop offset="0.82" stop-color="#F2F6FE"/>
<stop offset="0.89" stop-color="#EAF0FB"/>
<stop offset="0.99" stop-color="#D4DFF1"/>
<stop offset="1" stop-color="#D1DDF0"/>
</linearGradient>
<linearGradient id="paint13_linear_1_309" x1="791.221" y1="485.782" x2="812.597" y2="485.782" gradientUnits="userSpaceOnUse">
<stop stop-color="#FDFEFF"/>
<stop offset="0.16" stop-color="#F2F6FE"/>
<stop offset="0.82" stop-color="#F2F6FE"/>
<stop offset="0.89" stop-color="#EAF0FB"/>
<stop offset="0.99" stop-color="#D4DFF1"/>
<stop offset="1" stop-color="#D1DDF0"/>
</linearGradient>
<linearGradient id="paint14_linear_1_309" x1="992.322" y1="637.418" x2="1021.09" y2="637.418" gradientUnits="userSpaceOnUse">
<stop stop-color="#FDFEFF"/>
<stop offset="0.16" stop-color="#F2F6FE"/>
<stop offset="0.82" stop-color="#F2F6FE"/>
<stop offset="0.89" stop-color="#EAF0FB"/>
<stop offset="0.99" stop-color="#D4DFF1"/>
<stop offset="1" stop-color="#D1DDF0"/>
</linearGradient>
<linearGradient id="paint15_linear_1_309" x1="863.753" y1="477.692" x2="883.918" y2="477.692" gradientUnits="userSpaceOnUse">
<stop stop-color="#FDFEFF"/>
<stop offset="0.16" stop-color="#F2F6FE"/>
<stop offset="0.82" stop-color="#F2F6FE"/>
<stop offset="0.89" stop-color="#EAF0FB"/>
<stop offset="0.99" stop-color="#D4DFF1"/>
<stop offset="1" stop-color="#D1DDF0"/>
</linearGradient>
<linearGradient id="paint16_linear_1_309" x1="637.734" y1="983.341" x2="758.849" y2="983.341" gradientUnits="userSpaceOnUse">
<stop stop-color="#FDFEFF"/>
<stop offset="0.16" stop-color="#F2F6FE"/>
<stop offset="0.82" stop-color="#F2F6FE"/>
<stop offset="0.89" stop-color="#EAF0FB"/>
<stop offset="0.99" stop-color="#D4DFF1"/>
<stop offset="1" stop-color="#D1DDF0"/>
</linearGradient>
<linearGradient id="paint17_linear_1_309" x1="748.911" y1="997.631" x2="860.146" y2="997.631" gradientUnits="userSpaceOnUse">
<stop stop-color="#FDFEFF"/>
<stop offset="0.16" stop-color="#F2F6FE"/>
<stop offset="0.82" stop-color="#F2F6FE"/>
<stop offset="0.89" stop-color="#EAF0FB"/>
<stop offset="0.99" stop-color="#D4DFF1"/>
<stop offset="1" stop-color="#D1DDF0"/>
</linearGradient>
<linearGradient id="paint18_linear_1_309" x1="302.548" y1="776.908" x2="314.846" y2="776.908" gradientUnits="userSpaceOnUse">
<stop stop-color="#FDFEFF"/>
<stop offset="0.16" stop-color="#F2F6FE"/>
<stop offset="0.82" stop-color="#F2F6FE"/>
<stop offset="0.89" stop-color="#EAF0FB"/>
<stop offset="0.99" stop-color="#D4DFF1"/>
<stop offset="1" stop-color="#D1DDF0"/>
</linearGradient>
<linearGradient id="paint19_linear_1_309" x1="951.696" y1="986.538" x2="1063.14" y2="986.538" gradientUnits="userSpaceOnUse">
<stop stop-color="#FDFEFF"/>
<stop offset="0.16" stop-color="#F2F6FE"/>
<stop offset="0.82" stop-color="#F2F6FE"/>
<stop offset="0.89" stop-color="#EAF0FB"/>
<stop offset="0.99" stop-color="#D4DFF1"/>
<stop offset="1" stop-color="#D1DDF0"/>
</linearGradient>
<linearGradient id="paint20_linear_1_309" x1="1086.49" y1="986.538" x2="1197.96" y2="986.538" gradientUnits="userSpaceOnUse">
<stop stop-color="#FDFEFF"/>
<stop offset="0.16" stop-color="#F2F6FE"/>
<stop offset="0.82" stop-color="#F2F6FE"/>
<stop offset="0.89" stop-color="#EAF0FB"/>
<stop offset="0.99" stop-color="#D4DFF1"/>
<stop offset="1" stop-color="#D1DDF0"/>
</linearGradient>
<linearGradient id="paint21_linear_1_309" x1="6964.24" y1="8844.74" x2="33521.1" y2="8844.74" gradientUnits="userSpaceOnUse">
<stop stop-color="#FDFEFF"/>
<stop offset="0.16" stop-color="#F2F6FE"/>
<stop offset="0.82" stop-color="#F2F6FE"/>
<stop offset="0.89" stop-color="#EAF0FB"/>
<stop offset="0.99" stop-color="#D4DFF1"/>
<stop offset="1" stop-color="#D1DDF0"/>
</linearGradient>
<linearGradient id="paint22_linear_1_309" x1="7.71702" y1="21.9314" x2="8.72226" y2="21.9314" gradientUnits="userSpaceOnUse">
<stop stop-color="#FCAB72"/>
<stop offset="0.03" stop-color="#F8A367"/>
<stop offset="0.11" stop-color="#EE8C48"/>
<stop offset="0.16" stop-color="#EA833D"/>
<stop offset="0.82" stop-color="#EA833D"/>
<stop offset="0.88" stop-color="#E77D35"/>
<stop offset="0.98" stop-color="#DE6C1F"/>
<stop offset="1" stop-color="#DB6719"/>
</linearGradient>
<linearGradient id="paint23_linear_1_309" x1="327.848" y1="892.627" x2="352.08" y2="892.627" gradientUnits="userSpaceOnUse">
<stop stop-color="#FCAB72"/>
<stop offset="0.03" stop-color="#F8A367"/>
<stop offset="0.11" stop-color="#EE8C48"/>
<stop offset="0.16" stop-color="#EA833D"/>
<stop offset="0.82" stop-color="#EA833D"/>
<stop offset="0.88" stop-color="#E77D35"/>
<stop offset="0.98" stop-color="#DE6C1F"/>
<stop offset="1" stop-color="#DB6719"/>
</linearGradient>
<linearGradient id="paint24_linear_1_309" x1="455.005" y1="1144.13" x2="487.459" y2="1144.13" gradientUnits="userSpaceOnUse">
<stop stop-color="#FCAB72"/>
<stop offset="0.03" stop-color="#F8A367"/>
<stop offset="0.11" stop-color="#EE8C48"/>
<stop offset="0.16" stop-color="#EA833D"/>
<stop offset="0.82" stop-color="#EA833D"/>
<stop offset="0.88" stop-color="#E77D35"/>
<stop offset="0.98" stop-color="#DE6C1F"/>
<stop offset="1" stop-color="#DB6719"/>
</linearGradient>
<linearGradient id="paint25_linear_1_309" x1="389.05" y1="876.609" x2="409.215" y2="876.609" gradientUnits="userSpaceOnUse">
<stop stop-color="#FCAB72"/>
<stop offset="0.03" stop-color="#F8A367"/>
<stop offset="0.11" stop-color="#EE8C48"/>
<stop offset="0.16" stop-color="#EA833D"/>
<stop offset="0.82" stop-color="#EA833D"/>
<stop offset="0.88" stop-color="#E77D35"/>
<stop offset="0.98" stop-color="#DE6C1F"/>
<stop offset="1" stop-color="#DB6719"/>
</linearGradient>
<linearGradient id="paint26_linear_1_309" x1="816.57" y1="1144.56" x2="885.133" y2="1144.56" gradientUnits="userSpaceOnUse">
<stop stop-color="#FCAB72"/>
<stop offset="0.03" stop-color="#F8A367"/>
<stop offset="0.11" stop-color="#EE8C48"/>
<stop offset="0.16" stop-color="#EA833D"/>
<stop offset="0.82" stop-color="#EA833D"/>
<stop offset="0.88" stop-color="#E77D35"/>
<stop offset="0.98" stop-color="#DE6C1F"/>
<stop offset="1" stop-color="#DB6719"/>
</linearGradient>
<linearGradient id="paint27_linear_1_309" x1="512.857" y1="893.145" x2="535.113" y2="893.145" gradientUnits="userSpaceOnUse">
<stop stop-color="#FCAB72"/>
<stop offset="0.03" stop-color="#F8A367"/>
<stop offset="0.11" stop-color="#EE8C48"/>
<stop offset="0.16" stop-color="#EA833D"/>
<stop offset="0.82" stop-color="#EA833D"/>
<stop offset="0.88" stop-color="#E77D35"/>
<stop offset="0.98" stop-color="#DE6C1F"/>
<stop offset="1" stop-color="#DB6719"/>
</linearGradient>
<linearGradient id="paint28_linear_1_309" x1="2208.35" y1="2606.46" x2="2465.79" y2="2606.46" gradientUnits="userSpaceOnUse">
<stop stop-color="#FCAB72"/>
<stop offset="0.03" stop-color="#F8A367"/>
<stop offset="0.11" stop-color="#EE8C48"/>
<stop offset="0.16" stop-color="#EA833D"/>
<stop offset="0.82" stop-color="#EA833D"/>
<stop offset="0.88" stop-color="#E77D35"/>
<stop offset="0.98" stop-color="#DE6C1F"/>
<stop offset="1" stop-color="#DB6719"/>
</linearGradient>
<linearGradient id="paint29_linear_1_309" x1="693.158" y1="1144.13" x2="725.612" y2="1144.13" gradientUnits="userSpaceOnUse">
<stop stop-color="#FCAB72"/>
<stop offset="0.03" stop-color="#F8A367"/>
<stop offset="0.11" stop-color="#EE8C48"/>
<stop offset="0.16" stop-color="#EA833D"/>
<stop offset="0.82" stop-color="#EA833D"/>
<stop offset="0.88" stop-color="#E77D35"/>
<stop offset="0.98" stop-color="#DE6C1F"/>
<stop offset="1" stop-color="#DB6719"/>
</linearGradient>
<linearGradient id="paint30_linear_1_309" x1="579.402" y1="1204.3" x2="599.568" y2="1204.3" gradientUnits="userSpaceOnUse">
<stop stop-color="#FCAB72"/>
<stop offset="0.03" stop-color="#F8A367"/>
<stop offset="0.11" stop-color="#EE8C48"/>
<stop offset="0.16" stop-color="#EA833D"/>
<stop offset="0.82" stop-color="#EA833D"/>
<stop offset="0.88" stop-color="#E77D35"/>
<stop offset="0.98" stop-color="#DE6C1F"/>
<stop offset="1" stop-color="#DB6719"/>
</linearGradient>
<linearGradient id="paint31_linear_1_309" x1="661.835" y1="1144.13" x2="682.569" y2="1144.13" gradientUnits="userSpaceOnUse">
<stop stop-color="#FDFEFF"/>
<stop offset="0.16" stop-color="#F2F6FE"/>
<stop offset="0.82" stop-color="#F2F6FE"/>
<stop offset="0.89" stop-color="#EAF0FB"/>
<stop offset="0.99" stop-color="#D4DFF1"/>
<stop offset="1" stop-color="#D1DDF0"/>
</linearGradient>
<linearGradient id="paint32_linear_1_309" x1="449.871" y1="875.105" x2="458.507" y2="875.105" gradientUnits="userSpaceOnUse">
<stop stop-color="#FDFEFF"/>
<stop offset="0.16" stop-color="#F2F6FE"/>
<stop offset="0.82" stop-color="#F2F6FE"/>
<stop offset="0.89" stop-color="#EAF0FB"/>
<stop offset="0.99" stop-color="#D4DFF1"/>
<stop offset="1" stop-color="#D1DDF0"/>
</linearGradient>
<linearGradient id="paint33_linear_1_309" x1="880.288" y1="1174.49" x2="909.057" y2="1174.49" gradientUnits="userSpaceOnUse">
<stop stop-color="#FCAB72"/>
<stop offset="0.03" stop-color="#F8A367"/>
<stop offset="0.11" stop-color="#EE8C48"/>
<stop offset="0.16" stop-color="#EA833D"/>
<stop offset="0.82" stop-color="#EA833D"/>
<stop offset="0.88" stop-color="#E77D35"/>
<stop offset="0.98" stop-color="#DE6C1F"/>
<stop offset="1" stop-color="#DB6719"/>
</linearGradient>
<linearGradient id="paint34_linear_1_309" x1="791.199" y1="891.894" x2="812.574" y2="891.894" gradientUnits="userSpaceOnUse">
<stop stop-color="#FCAB72"/>
<stop offset="0.03" stop-color="#F8A367"/>
<stop offset="0.11" stop-color="#EE8C48"/>
<stop offset="0.16" stop-color="#EA833D"/>
<stop offset="0.82" stop-color="#EA833D"/>
<stop offset="0.88" stop-color="#E77D35"/>
<stop offset="0.98" stop-color="#DE6C1F"/>
<stop offset="1" stop-color="#DB6719"/>
</linearGradient>
<linearGradient id="paint35_linear_1_309" x1="992.332" y1="1174.49" x2="1021.1" y2="1174.49" gradientUnits="userSpaceOnUse">
<stop stop-color="#FCAB72"/>
<stop offset="0.03" stop-color="#F8A367"/>
<stop offset="0.11" stop-color="#EE8C48"/>
<stop offset="0.16" stop-color="#EA833D"/>
<stop offset="0.82" stop-color="#EA833D"/>
<stop offset="0.88" stop-color="#E77D35"/>
<stop offset="0.98" stop-color="#DE6C1F"/>
<stop offset="1" stop-color="#DB6719"/>
</linearGradient>
<linearGradient id="paint36_linear_1_309" x1="863.753" y1="876.299" x2="883.918" y2="876.299" gradientUnits="userSpaceOnUse">
<stop stop-color="#FCAB72"/>
<stop offset="0.03" stop-color="#F8A367"/>
<stop offset="0.11" stop-color="#EE8C48"/>
<stop offset="0.16" stop-color="#EA833D"/>
<stop offset="0.82" stop-color="#EA833D"/>
<stop offset="0.88" stop-color="#E77D35"/>
<stop offset="0.98" stop-color="#DE6C1F"/>
<stop offset="1" stop-color="#DB6719"/>
</linearGradient>
<linearGradient id="paint37_linear_1_309" x1="637.734" y1="2155.68" x2="758.849" y2="2155.68" gradientUnits="userSpaceOnUse">
<stop stop-color="#FCAB72"/>
<stop offset="0.03" stop-color="#F8A367"/>
<stop offset="0.11" stop-color="#EE8C48"/>
<stop offset="0.16" stop-color="#EA833D"/>
<stop offset="0.82" stop-color="#EA833D"/>
<stop offset="0.88" stop-color="#E77D35"/>
<stop offset="0.98" stop-color="#DE6C1F"/>
<stop offset="1" stop-color="#DB6719"/>
</linearGradient>
<linearGradient id="paint38_linear_1_309" x1="765.935" y1="2185.77" x2="883.404" y2="2185.77" gradientUnits="userSpaceOnUse">
<stop stop-color="#FCAB72"/>
<stop offset="0.03" stop-color="#F8A367"/>
<stop offset="0.11" stop-color="#EE8C48"/>
<stop offset="0.16" stop-color="#EA833D"/>
<stop offset="0.82" stop-color="#EA833D"/>
<stop offset="0.88" stop-color="#E77D35"/>
<stop offset="0.98" stop-color="#DE6C1F"/>
<stop offset="1" stop-color="#DB6719"/>
</linearGradient>
<linearGradient id="paint39_linear_1_309" x1="302.517" y1="1674.04" x2="314.813" y2="1674.04" gradientUnits="userSpaceOnUse">
<stop stop-color="#FCAB72"/>
<stop offset="0.03" stop-color="#F8A367"/>
<stop offset="0.11" stop-color="#EE8C48"/>
<stop offset="0.16" stop-color="#EA833D"/>
<stop offset="0.82" stop-color="#EA833D"/>
<stop offset="0.88" stop-color="#E77D35"/>
<stop offset="0.98" stop-color="#DE6C1F"/>
<stop offset="1" stop-color="#DB6719"/>
</linearGradient>
<linearGradient id="paint40_linear_1_309" x1="1020.83" y1="2127.91" x2="1150.85" y2="2127.91" gradientUnits="userSpaceOnUse">
<stop stop-color="#FCAB72"/>
<stop offset="0.03" stop-color="#F8A367"/>
<stop offset="0.11" stop-color="#EE8C48"/>
<stop offset="0.16" stop-color="#EA833D"/>
<stop offset="0.82" stop-color="#EA833D"/>
<stop offset="0.88" stop-color="#E77D35"/>
<stop offset="0.98" stop-color="#DE6C1F"/>
<stop offset="1" stop-color="#DB6719"/>
</linearGradient>
<linearGradient id="paint41_linear_1_309" x1="1086.49" y1="2158.64" x2="1197.96" y2="2158.64" gradientUnits="userSpaceOnUse">
<stop stop-color="#FCAB72"/>
<stop offset="0.03" stop-color="#F8A367"/>
<stop offset="0.11" stop-color="#EE8C48"/>
<stop offset="0.16" stop-color="#EA833D"/>
<stop offset="0.82" stop-color="#EA833D"/>
<stop offset="0.88" stop-color="#E77D35"/>
<stop offset="0.98" stop-color="#DE6C1F"/>
<stop offset="1" stop-color="#DB6719"/>
</linearGradient>
<linearGradient id="paint42_linear_1_309" x1="4156.37" y1="252.919" x2="4665.48" y2="252.919" gradientUnits="userSpaceOnUse">
<stop stop-color="#FDFEFF"/>
<stop offset="0.16" stop-color="#F2F6FE"/>
<stop offset="0.82" stop-color="#F2F6FE"/>
<stop offset="0.89" stop-color="#EAF0FB"/>
<stop offset="0.99" stop-color="#D4DFF1"/>
<stop offset="1" stop-color="#D1DDF0"/>
</linearGradient>
<linearGradient id="paint43_linear_1_309" x1="3373.18" y1="252.919" x2="3882.3" y2="252.919" gradientUnits="userSpaceOnUse">
<stop stop-color="#FDFEFF"/>
<stop offset="0.16" stop-color="#F2F6FE"/>
<stop offset="0.82" stop-color="#F2F6FE"/>
<stop offset="0.89" stop-color="#EAF0FB"/>
<stop offset="0.99" stop-color="#D4DFF1"/>
<stop offset="1" stop-color="#D1DDF0"/>
</linearGradient>
<linearGradient id="paint44_linear_1_309" x1="1918.85" y1="139.615" x2="2072.44" y2="139.615" gradientUnits="userSpaceOnUse">
<stop stop-color="#3B6ECC"/>
<stop offset="0.09" stop-color="#3460B8"/>
<stop offset="0.16" stop-color="#3058AD"/>
<stop offset="0.82" stop-color="#3058AD"/>
<stop offset="0.89" stop-color="#2852A5"/>
<stop offset="1" stop-color="#133F8E"/>
</linearGradient>
<linearGradient id="paint45_linear_1_309" x1="2106.08" y1="124.213" x2="2226.87" y2="124.213" gradientUnits="userSpaceOnUse">
<stop stop-color="#3B6ECC"/>
<stop offset="0.09" stop-color="#3460B8"/>
<stop offset="0.16" stop-color="#3058AD"/>
<stop offset="0.82" stop-color="#3058AD"/>
<stop offset="0.89" stop-color="#2852A5"/>
<stop offset="1" stop-color="#133F8E"/>
</linearGradient>
<linearGradient id="paint46_linear_1_309" x1="0" y1="4779.37" x2="3956.52" y2="4779.37" gradientUnits="userSpaceOnUse">
<stop stop-color="#FCAB72"/>
<stop offset="0.03" stop-color="#F8A367"/>
<stop offset="0.11" stop-color="#EE8C48"/>
<stop offset="0.16" stop-color="#EA833D"/>
<stop offset="0.82" stop-color="#EA833D"/>
<stop offset="0.88" stop-color="#E77D35"/>
<stop offset="0.98" stop-color="#DE6C1F"/>
<stop offset="1" stop-color="#DB6719"/>
</linearGradient>
<linearGradient id="paint47_linear_1_309" x1="91.1755" y1="1062.46" x2="212.123" y2="1062.46" gradientUnits="userSpaceOnUse">
<stop stop-color="#FDFEFF"/>
<stop offset="0.16" stop-color="#F2F6FE"/>
<stop offset="0.82" stop-color="#F2F6FE"/>
<stop offset="0.89" stop-color="#EAF0FB"/>
<stop offset="0.99" stop-color="#D4DFF1"/>
<stop offset="1" stop-color="#D1DDF0"/>
</linearGradient>
<linearGradient id="paint48_linear_1_309" x1="288.95" y1="1062.46" x2="409.897" y2="1062.46" gradientUnits="userSpaceOnUse">
<stop stop-color="#FDFEFF"/>
<stop offset="0.16" stop-color="#F2F6FE"/>
<stop offset="0.82" stop-color="#F2F6FE"/>
<stop offset="0.89" stop-color="#EAF0FB"/>
<stop offset="0.99" stop-color="#D4DFF1"/>
<stop offset="1" stop-color="#D1DDF0"/>
</linearGradient>
<linearGradient id="paint49_linear_1_309" x1="486.727" y1="1062.46" x2="607.674" y2="1062.46" gradientUnits="userSpaceOnUse">
<stop stop-color="#FDFEFF"/>
<stop offset="0.16" stop-color="#F2F6FE"/>
<stop offset="0.82" stop-color="#F2F6FE"/>
<stop offset="0.89" stop-color="#EAF0FB"/>
<stop offset="0.99" stop-color="#D4DFF1"/>
<stop offset="1" stop-color="#D1DDF0"/>
</linearGradient>
<linearGradient id="paint50_linear_1_309" x1="14167.4" y1="12073.5" x2="22863.7" y2="12073.5" gradientUnits="userSpaceOnUse">
<stop stop-color="#3B6ECC"/>
<stop offset="0.09" stop-color="#3460B8"/>
<stop offset="0.16" stop-color="#3058AD"/>
<stop offset="0.82" stop-color="#3058AD"/>
<stop offset="0.89" stop-color="#2852A5"/>
<stop offset="1" stop-color="#133F8E"/>
</linearGradient>
<linearGradient id="paint51_linear_1_309" x1="12141.4" y1="9773.96" x2="17836.7" y2="9773.96" gradientUnits="userSpaceOnUse">
<stop stop-color="#FDFEFF"/>
<stop offset="0.16" stop-color="#F2F6FE"/>
<stop offset="0.82" stop-color="#F2F6FE"/>
<stop offset="0.89" stop-color="#EAF0FB"/>
<stop offset="0.99" stop-color="#D4DFF1"/>
<stop offset="1" stop-color="#D1DDF0"/>
</linearGradient>
<linearGradient id="paint52_linear_1_309" x1="2587.39" y1="5872.68" x2="2777.72" y2="5872.68" gradientUnits="userSpaceOnUse">
<stop stop-color="#3B6ECC"/>
<stop offset="0.09" stop-color="#3460B8"/>
<stop offset="0.16" stop-color="#3058AD"/>
<stop offset="0.82" stop-color="#3058AD"/>
<stop offset="0.89" stop-color="#2852A5"/>
<stop offset="1" stop-color="#133F8E"/>
</linearGradient>
<linearGradient id="paint53_linear_1_309" x1="1818" y1="1213.36" x2="1903.53" y2="1213.36" gradientUnits="userSpaceOnUse">
<stop stop-color="#3B6ECC"/>
<stop offset="0.09" stop-color="#3460B8"/>
<stop offset="0.16" stop-color="#3058AD"/>
<stop offset="0.82" stop-color="#3058AD"/>
<stop offset="0.89" stop-color="#2852A5"/>
<stop offset="1" stop-color="#133F8E"/>
</linearGradient>
<linearGradient id="paint54_linear_1_309" x1="2123.09" y1="249.738" x2="14337.9" y2="249.738" gradientUnits="userSpaceOnUse">
<stop stop-color="#FDFEFF"/>
<stop offset="0.16" stop-color="#F2F6FE"/>
<stop offset="0.82" stop-color="#F2F6FE"/>
<stop offset="0.89" stop-color="#EAF0FB"/>
<stop offset="0.99" stop-color="#D4DFF1"/>
<stop offset="1" stop-color="#D1DDF0"/>
</linearGradient>
<linearGradient id="paint55_linear_1_309" x1="348.878" y1="249.738" x2="674.572" y2="249.738" gradientUnits="userSpaceOnUse">
<stop stop-color="#3B6ECC"/>
<stop offset="0.09" stop-color="#3460B8"/>
<stop offset="0.16" stop-color="#3058AD"/>
<stop offset="0.82" stop-color="#3058AD"/>
<stop offset="0.89" stop-color="#2852A5"/>
<stop offset="1" stop-color="#133F8E"/>
</linearGradient>
<linearGradient id="paint56_linear_1_309" x1="211.818" y1="96.7278" x2="280.71" y2="96.7278" gradientUnits="userSpaceOnUse">
<stop stop-color="#FDFEFF"/>
<stop offset="0.16" stop-color="#F2F6FE"/>
<stop offset="0.82" stop-color="#F2F6FE"/>
<stop offset="0.89" stop-color="#EAF0FB"/>
<stop offset="0.99" stop-color="#D4DFF1"/>
<stop offset="1" stop-color="#D1DDF0"/>
</linearGradient>
<linearGradient id="paint57_linear_1_309" x1="110.185" y1="15.0048" x2="128.194" y2="15.0048" gradientUnits="userSpaceOnUse">
<stop stop-color="#FDFEFF"/>
<stop offset="0.16" stop-color="#F2F6FE"/>
<stop offset="0.82" stop-color="#F2F6FE"/>
<stop offset="0.89" stop-color="#EAF0FB"/>
<stop offset="0.99" stop-color="#D4DFF1"/>
<stop offset="1" stop-color="#D1DDF0"/>
</linearGradient>
</defs>
</svg>
