<svg width="24" height="25" viewBox="0 0 24 25" fill="none" xmlns="http://www.w3.org/2000/svg">
<path d="M24 12.517C24 11.5102 23.9183 10.7755 23.7415 10.0136H12.2449V14.5577H18.9931C18.8571 15.687 18.1224 17.3877 16.4898 18.5305L16.4669 18.6826L20.1019 21.4986L20.3537 21.5238C22.6666 19.3877 24 16.2448 24 12.517Z" fill="#4285F4"/>
<path d="M12.2449 24.4897C15.551 24.4897 18.3264 23.4012 20.3537 21.5237L16.4898 18.5304C15.4558 19.2515 14.068 19.7549 12.2449 19.7549C9.00682 19.7549 6.25854 17.6189 5.27885 14.6666L5.13525 14.6788L1.35551 17.6039L1.30608 17.7413C3.31967 21.7413 7.45573 24.4897 12.2449 24.4897Z" fill="#34A853"/>
<path d="M5.27886 14.6666C5.02036 13.9047 4.87076 13.0883 4.87076 12.2448C4.87076 11.4012 5.02036 10.5849 5.26526 9.82305L5.25841 9.66078L1.43131 6.68861L1.30609 6.74817C0.476196 8.40806 0 10.272 0 12.2448C0 14.2176 0.476196 16.0815 1.30609 17.7414L5.27886 14.6666Z" fill="#FBBC05"/>
<path d="M12.2453 4.73466C14.5446 4.73466 16.0955 5.72786 16.9799 6.55785L20.4357 3.18367C18.3133 1.21089 15.5513 0 12.2453 0C7.45611 0 3.32005 2.74828 1.30646 6.74825L5.26563 9.82312C6.25892 6.87074 9.0072 4.73466 12.2453 4.73466Z" fill="#EB4335"/>
</svg>
